M48
;DRILL file {KiCad (5.0.1-3-g963ef8bb5)} date Tuesday, February 12, 2019 at 05:52:11 PM
;FORMAT={-:-/ absolute / inch / decimal}
FMAT,2
INCH,TZ
T1C0.0315
T2C0.0433
T3C0.0315
T4C0.0335
T5C0.1260
%
G90
G05
M72
T1
X4.2994Y-4.3783
X4.3594Y-4.4882
X4.4594Y-4.4882
X4.5195Y-4.3783
X3.5583Y-4.1339
X3.8583Y-4.1339
X5.0081Y-4.3783
X5.0681Y-4.4882
X5.1681Y-4.4882
X5.2281Y-4.3783
X4.3638Y-4.1732
X4.7638Y-4.1732
X4.4488Y-4.0551
X4.6457Y-4.0551
X4.04Y-4.26
X4.04Y-4.56
X2.8821Y-4.3783
X2.9421Y-4.4882
X3.0421Y-4.4882
X3.1022Y-4.3783
X3.5907Y-4.3783
X3.6508Y-4.4882
X3.7508Y-4.4882
X3.8108Y-4.3783
T2
X2.874Y-4.001
X2.9921Y-4.001
X3.1496Y-4.001
X3.2087Y-4.188
T3
X4.2331Y-4.3118
X4.2331Y-4.6646
X4.5858Y-4.3118
X4.5858Y-4.6646
X4.9417Y-4.3118
X4.9417Y-4.6646
X5.2945Y-4.3118
X5.2945Y-4.6646
X2.8157Y-4.3118
X2.8157Y-4.6646
X3.1685Y-4.3118
X3.1685Y-4.6646
X3.5244Y-4.3118
X3.5244Y-4.6646
X3.8772Y-4.3118
X3.8772Y-4.6646
T4
X2.815Y-4.0945
X3.0906Y-4.0945
T5
X4.0551Y-3.9764
T0
M30
