G04 #@! TF.GenerationSoftware,KiCad,Pcbnew,(5.0.1-3-g963ef8bb5)*
G04 #@! TF.CreationDate,2019-02-12T17:52:07-08:00*
G04 #@! TF.ProjectId,4button-3wire,34627574746F6E2D33776972652E6B69,rev?*
G04 #@! TF.SameCoordinates,Original*
G04 #@! TF.FileFunction,Legend,Top*
G04 #@! TF.FilePolarity,Positive*
%FSLAX46Y46*%
G04 Gerber Fmt 4.6, Leading zero omitted, Abs format (unit mm)*
G04 Created by KiCad (PCBNEW (5.0.1-3-g963ef8bb5)) date Tuesday, February 12, 2019 at 05:52:07 PM*
%MOMM*%
%LPD*%
G01*
G04 APERTURE LIST*
%ADD10C,0.150000*%
%ADD11C,0.120000*%
G04 APERTURE END LIST*
D10*
G04 #@! TO.C,SW2*
X98800000Y-118800000D02*
X98800000Y-109200000D01*
X89200000Y-118800000D02*
X98800000Y-118800000D01*
X89200000Y-109200000D02*
X89200000Y-118800000D01*
X98800000Y-109200000D02*
X89200000Y-109200000D01*
G04 #@! TO.C,SW4*
X134800000Y-109200000D02*
X125200000Y-109200000D01*
X125200000Y-109200000D02*
X125200000Y-118800000D01*
X125200000Y-118800000D02*
X134800000Y-118800000D01*
X134800000Y-118800000D02*
X134800000Y-109200000D01*
G04 #@! TO.C,SW1*
X80800000Y-109200000D02*
X71200000Y-109200000D01*
X71200000Y-109200000D02*
X71200000Y-118800000D01*
X71200000Y-118800000D02*
X80800000Y-118800000D01*
X80800000Y-118800000D02*
X80800000Y-109200000D01*
G04 #@! TO.C,SW3*
X116800000Y-109200000D02*
X107200000Y-109200000D01*
X107200000Y-109200000D02*
X107200000Y-118800000D01*
X107200000Y-118800000D02*
X116800000Y-118800000D01*
X116800000Y-118800000D02*
X116800000Y-109200000D01*
D11*
G04 #@! TO.C,D5*
X95710000Y-106120000D02*
X95710000Y-103880000D01*
X95470000Y-106120000D02*
X95470000Y-103880000D01*
X95590000Y-106120000D02*
X95590000Y-103880000D01*
X91420000Y-105000000D02*
X92070000Y-105000000D01*
X96960000Y-105000000D02*
X96310000Y-105000000D01*
X92070000Y-106120000D02*
X96310000Y-106120000D01*
X92070000Y-103880000D02*
X92070000Y-106120000D01*
X96310000Y-103880000D02*
X92070000Y-103880000D01*
X96310000Y-106120000D02*
X96310000Y-103880000D01*
G04 #@! TO.C,C1*
X113030000Y-101630000D02*
X117970000Y-101630000D01*
X113030000Y-104370000D02*
X117970000Y-104370000D01*
X113030000Y-101630000D02*
X113030000Y-101945000D01*
X113030000Y-104055000D02*
X113030000Y-104370000D01*
X117970000Y-101630000D02*
X117970000Y-101945000D01*
X117970000Y-104055000D02*
X117970000Y-104370000D01*
G04 #@! TO.C,R4*
X119960000Y-106000000D02*
X119190000Y-106000000D01*
X111880000Y-106000000D02*
X112650000Y-106000000D01*
X119190000Y-104630000D02*
X112650000Y-104630000D01*
X119190000Y-107370000D02*
X119190000Y-104630000D01*
X112650000Y-107370000D02*
X119190000Y-107370000D01*
X112650000Y-104630000D02*
X112650000Y-107370000D01*
D10*
G04 #@! TO.C,J1*
X67600000Y-101500000D02*
X69800000Y-101500000D01*
X67600000Y-106500000D02*
X67600000Y-101500000D01*
X69800000Y-106500000D02*
X67600000Y-106500000D01*
X82000000Y-107100000D02*
X69800000Y-107100000D01*
X82000000Y-100900000D02*
X82000000Y-107100000D01*
X69800000Y-100900000D02*
X82000000Y-100900000D01*
X69800000Y-107100000D02*
X69800000Y-100900000D01*
D11*
G04 #@! TO.C,D6*
X101496000Y-113534000D02*
X103736000Y-113534000D01*
X101496000Y-113294000D02*
X103736000Y-113294000D01*
X101496000Y-113414000D02*
X103736000Y-113414000D01*
X102616000Y-109244000D02*
X102616000Y-109894000D01*
X102616000Y-114784000D02*
X102616000Y-114134000D01*
X101496000Y-109894000D02*
X101496000Y-114134000D01*
X103736000Y-109894000D02*
X101496000Y-109894000D01*
X103736000Y-114134000D02*
X103736000Y-109894000D01*
X101496000Y-114134000D02*
X103736000Y-114134000D01*
G04 #@! TO.C,SW2*
D10*
X89766666Y-108704761D02*
X89909523Y-108752380D01*
X90147619Y-108752380D01*
X90242857Y-108704761D01*
X90290476Y-108657142D01*
X90338095Y-108561904D01*
X90338095Y-108466666D01*
X90290476Y-108371428D01*
X90242857Y-108323809D01*
X90147619Y-108276190D01*
X89957142Y-108228571D01*
X89861904Y-108180952D01*
X89814285Y-108133333D01*
X89766666Y-108038095D01*
X89766666Y-107942857D01*
X89814285Y-107847619D01*
X89861904Y-107800000D01*
X89957142Y-107752380D01*
X90195238Y-107752380D01*
X90338095Y-107800000D01*
X90671428Y-107752380D02*
X90909523Y-108752380D01*
X91100000Y-108038095D01*
X91290476Y-108752380D01*
X91528571Y-107752380D01*
X91861904Y-107847619D02*
X91909523Y-107800000D01*
X92004761Y-107752380D01*
X92242857Y-107752380D01*
X92338095Y-107800000D01*
X92385714Y-107847619D01*
X92433333Y-107942857D01*
X92433333Y-108038095D01*
X92385714Y-108180952D01*
X91814285Y-108752380D01*
X92433333Y-108752380D01*
G04 #@! TO.C,SW4*
X125766666Y-108704761D02*
X125909523Y-108752380D01*
X126147619Y-108752380D01*
X126242857Y-108704761D01*
X126290476Y-108657142D01*
X126338095Y-108561904D01*
X126338095Y-108466666D01*
X126290476Y-108371428D01*
X126242857Y-108323809D01*
X126147619Y-108276190D01*
X125957142Y-108228571D01*
X125861904Y-108180952D01*
X125814285Y-108133333D01*
X125766666Y-108038095D01*
X125766666Y-107942857D01*
X125814285Y-107847619D01*
X125861904Y-107800000D01*
X125957142Y-107752380D01*
X126195238Y-107752380D01*
X126338095Y-107800000D01*
X126671428Y-107752380D02*
X126909523Y-108752380D01*
X127100000Y-108038095D01*
X127290476Y-108752380D01*
X127528571Y-107752380D01*
X128338095Y-108085714D02*
X128338095Y-108752380D01*
X128100000Y-107704761D02*
X127861904Y-108419047D01*
X128480952Y-108419047D01*
G04 #@! TO.C,SW1*
X71766666Y-108704761D02*
X71909523Y-108752380D01*
X72147619Y-108752380D01*
X72242857Y-108704761D01*
X72290476Y-108657142D01*
X72338095Y-108561904D01*
X72338095Y-108466666D01*
X72290476Y-108371428D01*
X72242857Y-108323809D01*
X72147619Y-108276190D01*
X71957142Y-108228571D01*
X71861904Y-108180952D01*
X71814285Y-108133333D01*
X71766666Y-108038095D01*
X71766666Y-107942857D01*
X71814285Y-107847619D01*
X71861904Y-107800000D01*
X71957142Y-107752380D01*
X72195238Y-107752380D01*
X72338095Y-107800000D01*
X72671428Y-107752380D02*
X72909523Y-108752380D01*
X73100000Y-108038095D01*
X73290476Y-108752380D01*
X73528571Y-107752380D01*
X74433333Y-108752380D02*
X73861904Y-108752380D01*
X74147619Y-108752380D02*
X74147619Y-107752380D01*
X74052380Y-107895238D01*
X73957142Y-107990476D01*
X73861904Y-108038095D01*
G04 #@! TO.C,SW3*
X107766666Y-108704761D02*
X107909523Y-108752380D01*
X108147619Y-108752380D01*
X108242857Y-108704761D01*
X108290476Y-108657142D01*
X108338095Y-108561904D01*
X108338095Y-108466666D01*
X108290476Y-108371428D01*
X108242857Y-108323809D01*
X108147619Y-108276190D01*
X107957142Y-108228571D01*
X107861904Y-108180952D01*
X107814285Y-108133333D01*
X107766666Y-108038095D01*
X107766666Y-107942857D01*
X107814285Y-107847619D01*
X107861904Y-107800000D01*
X107957142Y-107752380D01*
X108195238Y-107752380D01*
X108338095Y-107800000D01*
X108671428Y-107752380D02*
X108909523Y-108752380D01*
X109100000Y-108038095D01*
X109290476Y-108752380D01*
X109528571Y-107752380D01*
X109814285Y-107752380D02*
X110433333Y-107752380D01*
X110100000Y-108133333D01*
X110242857Y-108133333D01*
X110338095Y-108180952D01*
X110385714Y-108228571D01*
X110433333Y-108323809D01*
X110433333Y-108561904D01*
X110385714Y-108657142D01*
X110338095Y-108704761D01*
X110242857Y-108752380D01*
X109957142Y-108752380D01*
X109861904Y-108704761D01*
X109814285Y-108657142D01*
G04 #@! TO.C,D5*
X93451904Y-107572380D02*
X93451904Y-106572380D01*
X93690000Y-106572380D01*
X93832857Y-106620000D01*
X93928095Y-106715238D01*
X93975714Y-106810476D01*
X94023333Y-107000952D01*
X94023333Y-107143809D01*
X93975714Y-107334285D01*
X93928095Y-107429523D01*
X93832857Y-107524761D01*
X93690000Y-107572380D01*
X93451904Y-107572380D01*
X94928095Y-106572380D02*
X94451904Y-106572380D01*
X94404285Y-107048571D01*
X94451904Y-107000952D01*
X94547142Y-106953333D01*
X94785238Y-106953333D01*
X94880476Y-107000952D01*
X94928095Y-107048571D01*
X94975714Y-107143809D01*
X94975714Y-107381904D01*
X94928095Y-107477142D01*
X94880476Y-107524761D01*
X94785238Y-107572380D01*
X94547142Y-107572380D01*
X94451904Y-107524761D01*
X94404285Y-107477142D01*
X97738095Y-107252380D02*
X97738095Y-106252380D01*
X98309523Y-107252380D02*
X97880952Y-106680952D01*
X98309523Y-106252380D02*
X97738095Y-106823809D01*
G04 #@! TO.C,C1*
X115333333Y-100857142D02*
X115285714Y-100904761D01*
X115142857Y-100952380D01*
X115047619Y-100952380D01*
X114904761Y-100904761D01*
X114809523Y-100809523D01*
X114761904Y-100714285D01*
X114714285Y-100523809D01*
X114714285Y-100380952D01*
X114761904Y-100190476D01*
X114809523Y-100095238D01*
X114904761Y-100000000D01*
X115047619Y-99952380D01*
X115142857Y-99952380D01*
X115285714Y-100000000D01*
X115333333Y-100047619D01*
X116285714Y-100952380D02*
X115714285Y-100952380D01*
X116000000Y-100952380D02*
X116000000Y-99952380D01*
X115904761Y-100095238D01*
X115809523Y-100190476D01*
X115714285Y-100238095D01*
G04 #@! TO.C,H1*
X102238095Y-97252380D02*
X102238095Y-96252380D01*
X102238095Y-96728571D02*
X102809523Y-96728571D01*
X102809523Y-97252380D02*
X102809523Y-96252380D01*
X103809523Y-97252380D02*
X103238095Y-97252380D01*
X103523809Y-97252380D02*
X103523809Y-96252380D01*
X103428571Y-96395238D01*
X103333333Y-96490476D01*
X103238095Y-96538095D01*
G04 #@! TO.C,R4*
X115753333Y-104082380D02*
X115420000Y-103606190D01*
X115181904Y-104082380D02*
X115181904Y-103082380D01*
X115562857Y-103082380D01*
X115658095Y-103130000D01*
X115705714Y-103177619D01*
X115753333Y-103272857D01*
X115753333Y-103415714D01*
X115705714Y-103510952D01*
X115658095Y-103558571D01*
X115562857Y-103606190D01*
X115181904Y-103606190D01*
X116610476Y-103415714D02*
X116610476Y-104082380D01*
X116372380Y-103034761D02*
X116134285Y-103749047D01*
X116753333Y-103749047D01*
G04 #@! TO.C,J1*
X82552380Y-105733333D02*
X83266666Y-105733333D01*
X83409523Y-105780952D01*
X83504761Y-105876190D01*
X83552380Y-106019047D01*
X83552380Y-106114285D01*
X83552380Y-104733333D02*
X83552380Y-105304761D01*
X83552380Y-105019047D02*
X82552380Y-105019047D01*
X82695238Y-105114285D01*
X82790476Y-105209523D01*
X82838095Y-105304761D01*
G04 #@! TO.C,D6*
X100948380Y-112752095D02*
X99948380Y-112752095D01*
X99948380Y-112514000D01*
X99996000Y-112371142D01*
X100091238Y-112275904D01*
X100186476Y-112228285D01*
X100376952Y-112180666D01*
X100519809Y-112180666D01*
X100710285Y-112228285D01*
X100805523Y-112275904D01*
X100900761Y-112371142D01*
X100948380Y-112514000D01*
X100948380Y-112752095D01*
X99948380Y-111323523D02*
X99948380Y-111514000D01*
X99996000Y-111609238D01*
X100043619Y-111656857D01*
X100186476Y-111752095D01*
X100376952Y-111799714D01*
X100757904Y-111799714D01*
X100853142Y-111752095D01*
X100900761Y-111704476D01*
X100948380Y-111609238D01*
X100948380Y-111418761D01*
X100900761Y-111323523D01*
X100853142Y-111275904D01*
X100757904Y-111228285D01*
X100519809Y-111228285D01*
X100424571Y-111275904D01*
X100376952Y-111323523D01*
X100329333Y-111418761D01*
X100329333Y-111609238D01*
X100376952Y-111704476D01*
X100424571Y-111752095D01*
X100519809Y-111799714D01*
X101268380Y-116085904D02*
X100268380Y-116085904D01*
X101268380Y-115514476D02*
X100696952Y-115943047D01*
X100268380Y-115514476D02*
X100839809Y-116085904D01*
G04 #@! TD*
M02*
