G04 #@! TF.GenerationSoftware,KiCad,Pcbnew,(5.0.1-3-g963ef8bb5)*
G04 #@! TF.CreationDate,2019-02-12T17:52:07-08:00*
G04 #@! TF.ProjectId,4button-3wire,34627574746F6E2D33776972652E6B69,rev?*
G04 #@! TF.SameCoordinates,Original*
G04 #@! TF.FileFunction,Copper,L1,Top,Signal*
G04 #@! TF.FilePolarity,Positive*
%FSLAX46Y46*%
G04 Gerber Fmt 4.6, Leading zero omitted, Abs format (unit mm)*
G04 Created by KiCad (PCBNEW (5.0.1-3-g963ef8bb5)) date Tuesday, February 12, 2019 at 05:52:07 PM*
%MOMM*%
%LPD*%
G01*
G04 APERTURE LIST*
G04 #@! TA.AperFunction,Conductor*
%ADD10C,0.100000*%
G04 #@! TD*
G04 #@! TA.AperFunction,ComponentPad*
%ADD11C,1.500000*%
G04 #@! TD*
G04 #@! TA.AperFunction,ComponentPad*
%ADD12O,1.600000X1.600000*%
G04 #@! TD*
G04 #@! TA.AperFunction,ComponentPad*
%ADD13R,1.600000X1.600000*%
G04 #@! TD*
G04 #@! TA.AperFunction,ComponentPad*
%ADD14C,1.600000*%
G04 #@! TD*
G04 #@! TA.AperFunction,ComponentPad*
%ADD15C,3.000000*%
G04 #@! TD*
G04 #@! TA.AperFunction,ComponentPad*
%ADD16C,2.500000*%
G04 #@! TD*
G04 #@! TA.AperFunction,ComponentPad*
%ADD17C,2.000000*%
G04 #@! TD*
G04 #@! TA.AperFunction,Conductor*
%ADD18C,0.400000*%
G04 #@! TD*
G04 APERTURE END LIST*
D10*
G04 #@! TO.N,Net-(C1-Pad2)*
G04 #@! TO.C,SW2*
G36*
X93141756Y-113251806D02*
X93178159Y-113257206D01*
X93213857Y-113266147D01*
X93248506Y-113278545D01*
X93281774Y-113294280D01*
X93313339Y-113313199D01*
X93342897Y-113335121D01*
X93370165Y-113359835D01*
X93394879Y-113387103D01*
X93416801Y-113416661D01*
X93435720Y-113448226D01*
X93451455Y-113481494D01*
X93463853Y-113516143D01*
X93472794Y-113551841D01*
X93478194Y-113588244D01*
X93480000Y-113625000D01*
X93480000Y-114375000D01*
X93478194Y-114411756D01*
X93472794Y-114448159D01*
X93463853Y-114483857D01*
X93451455Y-114518506D01*
X93435720Y-114551774D01*
X93416801Y-114583339D01*
X93394879Y-114612897D01*
X93370165Y-114640165D01*
X93342897Y-114664879D01*
X93313339Y-114686801D01*
X93281774Y-114705720D01*
X93248506Y-114721455D01*
X93213857Y-114733853D01*
X93178159Y-114742794D01*
X93141756Y-114748194D01*
X93105000Y-114750000D01*
X92355000Y-114750000D01*
X92318244Y-114748194D01*
X92281841Y-114742794D01*
X92246143Y-114733853D01*
X92211494Y-114721455D01*
X92178226Y-114705720D01*
X92146661Y-114686801D01*
X92117103Y-114664879D01*
X92089835Y-114640165D01*
X92065121Y-114612897D01*
X92043199Y-114583339D01*
X92024280Y-114551774D01*
X92008545Y-114518506D01*
X91996147Y-114483857D01*
X91987206Y-114448159D01*
X91981806Y-114411756D01*
X91980000Y-114375000D01*
X91980000Y-113625000D01*
X91981806Y-113588244D01*
X91987206Y-113551841D01*
X91996147Y-113516143D01*
X92008545Y-113481494D01*
X92024280Y-113448226D01*
X92043199Y-113416661D01*
X92065121Y-113387103D01*
X92089835Y-113359835D01*
X92117103Y-113335121D01*
X92146661Y-113313199D01*
X92178226Y-113294280D01*
X92211494Y-113278545D01*
X92246143Y-113266147D01*
X92281841Y-113257206D01*
X92318244Y-113251806D01*
X92355000Y-113250000D01*
X93105000Y-113250000D01*
X93141756Y-113251806D01*
X93141756Y-113251806D01*
G37*
D11*
G04 #@! TD*
G04 #@! TO.P,SW2,4*
G04 #@! TO.N,Net-(C1-Pad2)*
X92730000Y-114000000D03*
D10*
G04 #@! TO.N,Net-(J1-PadS)*
G04 #@! TO.C,SW2*
G36*
X95681756Y-113251806D02*
X95718159Y-113257206D01*
X95753857Y-113266147D01*
X95788506Y-113278545D01*
X95821774Y-113294280D01*
X95853339Y-113313199D01*
X95882897Y-113335121D01*
X95910165Y-113359835D01*
X95934879Y-113387103D01*
X95956801Y-113416661D01*
X95975720Y-113448226D01*
X95991455Y-113481494D01*
X96003853Y-113516143D01*
X96012794Y-113551841D01*
X96018194Y-113588244D01*
X96020000Y-113625000D01*
X96020000Y-114375000D01*
X96018194Y-114411756D01*
X96012794Y-114448159D01*
X96003853Y-114483857D01*
X95991455Y-114518506D01*
X95975720Y-114551774D01*
X95956801Y-114583339D01*
X95934879Y-114612897D01*
X95910165Y-114640165D01*
X95882897Y-114664879D01*
X95853339Y-114686801D01*
X95821774Y-114705720D01*
X95788506Y-114721455D01*
X95753857Y-114733853D01*
X95718159Y-114742794D01*
X95681756Y-114748194D01*
X95645000Y-114750000D01*
X94895000Y-114750000D01*
X94858244Y-114748194D01*
X94821841Y-114742794D01*
X94786143Y-114733853D01*
X94751494Y-114721455D01*
X94718226Y-114705720D01*
X94686661Y-114686801D01*
X94657103Y-114664879D01*
X94629835Y-114640165D01*
X94605121Y-114612897D01*
X94583199Y-114583339D01*
X94564280Y-114551774D01*
X94548545Y-114518506D01*
X94536147Y-114483857D01*
X94527206Y-114448159D01*
X94521806Y-114411756D01*
X94520000Y-114375000D01*
X94520000Y-113625000D01*
X94521806Y-113588244D01*
X94527206Y-113551841D01*
X94536147Y-113516143D01*
X94548545Y-113481494D01*
X94564280Y-113448226D01*
X94583199Y-113416661D01*
X94605121Y-113387103D01*
X94629835Y-113359835D01*
X94657103Y-113335121D01*
X94686661Y-113313199D01*
X94718226Y-113294280D01*
X94751494Y-113278545D01*
X94786143Y-113266147D01*
X94821841Y-113257206D01*
X94858244Y-113251806D01*
X94895000Y-113250000D01*
X95645000Y-113250000D01*
X95681756Y-113251806D01*
X95681756Y-113251806D01*
G37*
D11*
G04 #@! TD*
G04 #@! TO.P,SW2,3*
G04 #@! TO.N,Net-(J1-PadS)*
X95270000Y-114000000D03*
D10*
G04 #@! TO.N,Net-(C1-Pad1)*
G04 #@! TO.C,SW2*
G36*
X97956756Y-110461806D02*
X97993159Y-110467206D01*
X98028857Y-110476147D01*
X98063506Y-110488545D01*
X98096774Y-110504280D01*
X98128339Y-110523199D01*
X98157897Y-110545121D01*
X98185165Y-110569835D01*
X98209879Y-110597103D01*
X98231801Y-110626661D01*
X98250720Y-110658226D01*
X98266455Y-110691494D01*
X98278853Y-110726143D01*
X98287794Y-110761841D01*
X98293194Y-110798244D01*
X98295000Y-110835000D01*
X98295000Y-111585000D01*
X98293194Y-111621756D01*
X98287794Y-111658159D01*
X98278853Y-111693857D01*
X98266455Y-111728506D01*
X98250720Y-111761774D01*
X98231801Y-111793339D01*
X98209879Y-111822897D01*
X98185165Y-111850165D01*
X98157897Y-111874879D01*
X98128339Y-111896801D01*
X98096774Y-111915720D01*
X98063506Y-111931455D01*
X98028857Y-111943853D01*
X97993159Y-111952794D01*
X97956756Y-111958194D01*
X97920000Y-111960000D01*
X95670000Y-111960000D01*
X95633244Y-111958194D01*
X95596841Y-111952794D01*
X95561143Y-111943853D01*
X95526494Y-111931455D01*
X95493226Y-111915720D01*
X95461661Y-111896801D01*
X95432103Y-111874879D01*
X95404835Y-111850165D01*
X95380121Y-111822897D01*
X95358199Y-111793339D01*
X95339280Y-111761774D01*
X95323545Y-111728506D01*
X95311147Y-111693857D01*
X95302206Y-111658159D01*
X95296806Y-111621756D01*
X95295000Y-111585000D01*
X95295000Y-110835000D01*
X95296806Y-110798244D01*
X95302206Y-110761841D01*
X95311147Y-110726143D01*
X95323545Y-110691494D01*
X95339280Y-110658226D01*
X95358199Y-110626661D01*
X95380121Y-110597103D01*
X95404835Y-110569835D01*
X95432103Y-110545121D01*
X95461661Y-110523199D01*
X95493226Y-110504280D01*
X95526494Y-110488545D01*
X95561143Y-110476147D01*
X95596841Y-110467206D01*
X95633244Y-110461806D01*
X95670000Y-110460000D01*
X97920000Y-110460000D01*
X97956756Y-110461806D01*
X97956756Y-110461806D01*
G37*
D11*
G04 #@! TD*
G04 #@! TO.P,SW2,2*
G04 #@! TO.N,Net-(C1-Pad1)*
X96795000Y-111210000D03*
D10*
G04 #@! TO.N,Net-(D5-Pad2)*
G04 #@! TO.C,SW2*
G36*
X92366756Y-110461806D02*
X92403159Y-110467206D01*
X92438857Y-110476147D01*
X92473506Y-110488545D01*
X92506774Y-110504280D01*
X92538339Y-110523199D01*
X92567897Y-110545121D01*
X92595165Y-110569835D01*
X92619879Y-110597103D01*
X92641801Y-110626661D01*
X92660720Y-110658226D01*
X92676455Y-110691494D01*
X92688853Y-110726143D01*
X92697794Y-110761841D01*
X92703194Y-110798244D01*
X92705000Y-110835000D01*
X92705000Y-111585000D01*
X92703194Y-111621756D01*
X92697794Y-111658159D01*
X92688853Y-111693857D01*
X92676455Y-111728506D01*
X92660720Y-111761774D01*
X92641801Y-111793339D01*
X92619879Y-111822897D01*
X92595165Y-111850165D01*
X92567897Y-111874879D01*
X92538339Y-111896801D01*
X92506774Y-111915720D01*
X92473506Y-111931455D01*
X92438857Y-111943853D01*
X92403159Y-111952794D01*
X92366756Y-111958194D01*
X92330000Y-111960000D01*
X90080000Y-111960000D01*
X90043244Y-111958194D01*
X90006841Y-111952794D01*
X89971143Y-111943853D01*
X89936494Y-111931455D01*
X89903226Y-111915720D01*
X89871661Y-111896801D01*
X89842103Y-111874879D01*
X89814835Y-111850165D01*
X89790121Y-111822897D01*
X89768199Y-111793339D01*
X89749280Y-111761774D01*
X89733545Y-111728506D01*
X89721147Y-111693857D01*
X89712206Y-111658159D01*
X89706806Y-111621756D01*
X89705000Y-111585000D01*
X89705000Y-110835000D01*
X89706806Y-110798244D01*
X89712206Y-110761841D01*
X89721147Y-110726143D01*
X89733545Y-110691494D01*
X89749280Y-110658226D01*
X89768199Y-110626661D01*
X89790121Y-110597103D01*
X89814835Y-110569835D01*
X89842103Y-110545121D01*
X89871661Y-110523199D01*
X89903226Y-110504280D01*
X89936494Y-110488545D01*
X89971143Y-110476147D01*
X90006841Y-110467206D01*
X90043244Y-110461806D01*
X90080000Y-110460000D01*
X92330000Y-110460000D01*
X92366756Y-110461806D01*
X92366756Y-110461806D01*
G37*
D11*
G04 #@! TD*
G04 #@! TO.P,SW2,1*
G04 #@! TO.N,Net-(D5-Pad2)*
X91205000Y-111210000D03*
D10*
G04 #@! TO.N,Net-(D6-Pad1)*
G04 #@! TO.C,SW4*
G36*
X128366756Y-110461806D02*
X128403159Y-110467206D01*
X128438857Y-110476147D01*
X128473506Y-110488545D01*
X128506774Y-110504280D01*
X128538339Y-110523199D01*
X128567897Y-110545121D01*
X128595165Y-110569835D01*
X128619879Y-110597103D01*
X128641801Y-110626661D01*
X128660720Y-110658226D01*
X128676455Y-110691494D01*
X128688853Y-110726143D01*
X128697794Y-110761841D01*
X128703194Y-110798244D01*
X128705000Y-110835000D01*
X128705000Y-111585000D01*
X128703194Y-111621756D01*
X128697794Y-111658159D01*
X128688853Y-111693857D01*
X128676455Y-111728506D01*
X128660720Y-111761774D01*
X128641801Y-111793339D01*
X128619879Y-111822897D01*
X128595165Y-111850165D01*
X128567897Y-111874879D01*
X128538339Y-111896801D01*
X128506774Y-111915720D01*
X128473506Y-111931455D01*
X128438857Y-111943853D01*
X128403159Y-111952794D01*
X128366756Y-111958194D01*
X128330000Y-111960000D01*
X126080000Y-111960000D01*
X126043244Y-111958194D01*
X126006841Y-111952794D01*
X125971143Y-111943853D01*
X125936494Y-111931455D01*
X125903226Y-111915720D01*
X125871661Y-111896801D01*
X125842103Y-111874879D01*
X125814835Y-111850165D01*
X125790121Y-111822897D01*
X125768199Y-111793339D01*
X125749280Y-111761774D01*
X125733545Y-111728506D01*
X125721147Y-111693857D01*
X125712206Y-111658159D01*
X125706806Y-111621756D01*
X125705000Y-111585000D01*
X125705000Y-110835000D01*
X125706806Y-110798244D01*
X125712206Y-110761841D01*
X125721147Y-110726143D01*
X125733545Y-110691494D01*
X125749280Y-110658226D01*
X125768199Y-110626661D01*
X125790121Y-110597103D01*
X125814835Y-110569835D01*
X125842103Y-110545121D01*
X125871661Y-110523199D01*
X125903226Y-110504280D01*
X125936494Y-110488545D01*
X125971143Y-110476147D01*
X126006841Y-110467206D01*
X126043244Y-110461806D01*
X126080000Y-110460000D01*
X128330000Y-110460000D01*
X128366756Y-110461806D01*
X128366756Y-110461806D01*
G37*
D11*
G04 #@! TD*
G04 #@! TO.P,SW4,1*
G04 #@! TO.N,Net-(D6-Pad1)*
X127205000Y-111210000D03*
D10*
G04 #@! TO.N,Net-(C1-Pad1)*
G04 #@! TO.C,SW4*
G36*
X133956756Y-110461806D02*
X133993159Y-110467206D01*
X134028857Y-110476147D01*
X134063506Y-110488545D01*
X134096774Y-110504280D01*
X134128339Y-110523199D01*
X134157897Y-110545121D01*
X134185165Y-110569835D01*
X134209879Y-110597103D01*
X134231801Y-110626661D01*
X134250720Y-110658226D01*
X134266455Y-110691494D01*
X134278853Y-110726143D01*
X134287794Y-110761841D01*
X134293194Y-110798244D01*
X134295000Y-110835000D01*
X134295000Y-111585000D01*
X134293194Y-111621756D01*
X134287794Y-111658159D01*
X134278853Y-111693857D01*
X134266455Y-111728506D01*
X134250720Y-111761774D01*
X134231801Y-111793339D01*
X134209879Y-111822897D01*
X134185165Y-111850165D01*
X134157897Y-111874879D01*
X134128339Y-111896801D01*
X134096774Y-111915720D01*
X134063506Y-111931455D01*
X134028857Y-111943853D01*
X133993159Y-111952794D01*
X133956756Y-111958194D01*
X133920000Y-111960000D01*
X131670000Y-111960000D01*
X131633244Y-111958194D01*
X131596841Y-111952794D01*
X131561143Y-111943853D01*
X131526494Y-111931455D01*
X131493226Y-111915720D01*
X131461661Y-111896801D01*
X131432103Y-111874879D01*
X131404835Y-111850165D01*
X131380121Y-111822897D01*
X131358199Y-111793339D01*
X131339280Y-111761774D01*
X131323545Y-111728506D01*
X131311147Y-111693857D01*
X131302206Y-111658159D01*
X131296806Y-111621756D01*
X131295000Y-111585000D01*
X131295000Y-110835000D01*
X131296806Y-110798244D01*
X131302206Y-110761841D01*
X131311147Y-110726143D01*
X131323545Y-110691494D01*
X131339280Y-110658226D01*
X131358199Y-110626661D01*
X131380121Y-110597103D01*
X131404835Y-110569835D01*
X131432103Y-110545121D01*
X131461661Y-110523199D01*
X131493226Y-110504280D01*
X131526494Y-110488545D01*
X131561143Y-110476147D01*
X131596841Y-110467206D01*
X131633244Y-110461806D01*
X131670000Y-110460000D01*
X133920000Y-110460000D01*
X133956756Y-110461806D01*
X133956756Y-110461806D01*
G37*
D11*
G04 #@! TD*
G04 #@! TO.P,SW4,2*
G04 #@! TO.N,Net-(C1-Pad1)*
X132795000Y-111210000D03*
D10*
G04 #@! TO.N,Net-(D5-Pad1)*
G04 #@! TO.C,SW4*
G36*
X131681756Y-113251806D02*
X131718159Y-113257206D01*
X131753857Y-113266147D01*
X131788506Y-113278545D01*
X131821774Y-113294280D01*
X131853339Y-113313199D01*
X131882897Y-113335121D01*
X131910165Y-113359835D01*
X131934879Y-113387103D01*
X131956801Y-113416661D01*
X131975720Y-113448226D01*
X131991455Y-113481494D01*
X132003853Y-113516143D01*
X132012794Y-113551841D01*
X132018194Y-113588244D01*
X132020000Y-113625000D01*
X132020000Y-114375000D01*
X132018194Y-114411756D01*
X132012794Y-114448159D01*
X132003853Y-114483857D01*
X131991455Y-114518506D01*
X131975720Y-114551774D01*
X131956801Y-114583339D01*
X131934879Y-114612897D01*
X131910165Y-114640165D01*
X131882897Y-114664879D01*
X131853339Y-114686801D01*
X131821774Y-114705720D01*
X131788506Y-114721455D01*
X131753857Y-114733853D01*
X131718159Y-114742794D01*
X131681756Y-114748194D01*
X131645000Y-114750000D01*
X130895000Y-114750000D01*
X130858244Y-114748194D01*
X130821841Y-114742794D01*
X130786143Y-114733853D01*
X130751494Y-114721455D01*
X130718226Y-114705720D01*
X130686661Y-114686801D01*
X130657103Y-114664879D01*
X130629835Y-114640165D01*
X130605121Y-114612897D01*
X130583199Y-114583339D01*
X130564280Y-114551774D01*
X130548545Y-114518506D01*
X130536147Y-114483857D01*
X130527206Y-114448159D01*
X130521806Y-114411756D01*
X130520000Y-114375000D01*
X130520000Y-113625000D01*
X130521806Y-113588244D01*
X130527206Y-113551841D01*
X130536147Y-113516143D01*
X130548545Y-113481494D01*
X130564280Y-113448226D01*
X130583199Y-113416661D01*
X130605121Y-113387103D01*
X130629835Y-113359835D01*
X130657103Y-113335121D01*
X130686661Y-113313199D01*
X130718226Y-113294280D01*
X130751494Y-113278545D01*
X130786143Y-113266147D01*
X130821841Y-113257206D01*
X130858244Y-113251806D01*
X130895000Y-113250000D01*
X131645000Y-113250000D01*
X131681756Y-113251806D01*
X131681756Y-113251806D01*
G37*
D11*
G04 #@! TD*
G04 #@! TO.P,SW4,3*
G04 #@! TO.N,Net-(D5-Pad1)*
X131270000Y-114000000D03*
D10*
G04 #@! TO.N,Net-(J1-PadS)*
G04 #@! TO.C,SW4*
G36*
X129141756Y-113251806D02*
X129178159Y-113257206D01*
X129213857Y-113266147D01*
X129248506Y-113278545D01*
X129281774Y-113294280D01*
X129313339Y-113313199D01*
X129342897Y-113335121D01*
X129370165Y-113359835D01*
X129394879Y-113387103D01*
X129416801Y-113416661D01*
X129435720Y-113448226D01*
X129451455Y-113481494D01*
X129463853Y-113516143D01*
X129472794Y-113551841D01*
X129478194Y-113588244D01*
X129480000Y-113625000D01*
X129480000Y-114375000D01*
X129478194Y-114411756D01*
X129472794Y-114448159D01*
X129463853Y-114483857D01*
X129451455Y-114518506D01*
X129435720Y-114551774D01*
X129416801Y-114583339D01*
X129394879Y-114612897D01*
X129370165Y-114640165D01*
X129342897Y-114664879D01*
X129313339Y-114686801D01*
X129281774Y-114705720D01*
X129248506Y-114721455D01*
X129213857Y-114733853D01*
X129178159Y-114742794D01*
X129141756Y-114748194D01*
X129105000Y-114750000D01*
X128355000Y-114750000D01*
X128318244Y-114748194D01*
X128281841Y-114742794D01*
X128246143Y-114733853D01*
X128211494Y-114721455D01*
X128178226Y-114705720D01*
X128146661Y-114686801D01*
X128117103Y-114664879D01*
X128089835Y-114640165D01*
X128065121Y-114612897D01*
X128043199Y-114583339D01*
X128024280Y-114551774D01*
X128008545Y-114518506D01*
X127996147Y-114483857D01*
X127987206Y-114448159D01*
X127981806Y-114411756D01*
X127980000Y-114375000D01*
X127980000Y-113625000D01*
X127981806Y-113588244D01*
X127987206Y-113551841D01*
X127996147Y-113516143D01*
X128008545Y-113481494D01*
X128024280Y-113448226D01*
X128043199Y-113416661D01*
X128065121Y-113387103D01*
X128089835Y-113359835D01*
X128117103Y-113335121D01*
X128146661Y-113313199D01*
X128178226Y-113294280D01*
X128211494Y-113278545D01*
X128246143Y-113266147D01*
X128281841Y-113257206D01*
X128318244Y-113251806D01*
X128355000Y-113250000D01*
X129105000Y-113250000D01*
X129141756Y-113251806D01*
X129141756Y-113251806D01*
G37*
D11*
G04 #@! TD*
G04 #@! TO.P,SW4,4*
G04 #@! TO.N,Net-(J1-PadS)*
X128730000Y-114000000D03*
D10*
G04 #@! TO.N,Net-(C1-Pad2)*
G04 #@! TO.C,SW1*
G36*
X74366756Y-110461806D02*
X74403159Y-110467206D01*
X74438857Y-110476147D01*
X74473506Y-110488545D01*
X74506774Y-110504280D01*
X74538339Y-110523199D01*
X74567897Y-110545121D01*
X74595165Y-110569835D01*
X74619879Y-110597103D01*
X74641801Y-110626661D01*
X74660720Y-110658226D01*
X74676455Y-110691494D01*
X74688853Y-110726143D01*
X74697794Y-110761841D01*
X74703194Y-110798244D01*
X74705000Y-110835000D01*
X74705000Y-111585000D01*
X74703194Y-111621756D01*
X74697794Y-111658159D01*
X74688853Y-111693857D01*
X74676455Y-111728506D01*
X74660720Y-111761774D01*
X74641801Y-111793339D01*
X74619879Y-111822897D01*
X74595165Y-111850165D01*
X74567897Y-111874879D01*
X74538339Y-111896801D01*
X74506774Y-111915720D01*
X74473506Y-111931455D01*
X74438857Y-111943853D01*
X74403159Y-111952794D01*
X74366756Y-111958194D01*
X74330000Y-111960000D01*
X72080000Y-111960000D01*
X72043244Y-111958194D01*
X72006841Y-111952794D01*
X71971143Y-111943853D01*
X71936494Y-111931455D01*
X71903226Y-111915720D01*
X71871661Y-111896801D01*
X71842103Y-111874879D01*
X71814835Y-111850165D01*
X71790121Y-111822897D01*
X71768199Y-111793339D01*
X71749280Y-111761774D01*
X71733545Y-111728506D01*
X71721147Y-111693857D01*
X71712206Y-111658159D01*
X71706806Y-111621756D01*
X71705000Y-111585000D01*
X71705000Y-110835000D01*
X71706806Y-110798244D01*
X71712206Y-110761841D01*
X71721147Y-110726143D01*
X71733545Y-110691494D01*
X71749280Y-110658226D01*
X71768199Y-110626661D01*
X71790121Y-110597103D01*
X71814835Y-110569835D01*
X71842103Y-110545121D01*
X71871661Y-110523199D01*
X71903226Y-110504280D01*
X71936494Y-110488545D01*
X71971143Y-110476147D01*
X72006841Y-110467206D01*
X72043244Y-110461806D01*
X72080000Y-110460000D01*
X74330000Y-110460000D01*
X74366756Y-110461806D01*
X74366756Y-110461806D01*
G37*
D11*
G04 #@! TD*
G04 #@! TO.P,SW1,1*
G04 #@! TO.N,Net-(C1-Pad2)*
X73205000Y-111210000D03*
D10*
G04 #@! TO.N,Net-(D5-Pad2)*
G04 #@! TO.C,SW1*
G36*
X79956756Y-110461806D02*
X79993159Y-110467206D01*
X80028857Y-110476147D01*
X80063506Y-110488545D01*
X80096774Y-110504280D01*
X80128339Y-110523199D01*
X80157897Y-110545121D01*
X80185165Y-110569835D01*
X80209879Y-110597103D01*
X80231801Y-110626661D01*
X80250720Y-110658226D01*
X80266455Y-110691494D01*
X80278853Y-110726143D01*
X80287794Y-110761841D01*
X80293194Y-110798244D01*
X80295000Y-110835000D01*
X80295000Y-111585000D01*
X80293194Y-111621756D01*
X80287794Y-111658159D01*
X80278853Y-111693857D01*
X80266455Y-111728506D01*
X80250720Y-111761774D01*
X80231801Y-111793339D01*
X80209879Y-111822897D01*
X80185165Y-111850165D01*
X80157897Y-111874879D01*
X80128339Y-111896801D01*
X80096774Y-111915720D01*
X80063506Y-111931455D01*
X80028857Y-111943853D01*
X79993159Y-111952794D01*
X79956756Y-111958194D01*
X79920000Y-111960000D01*
X77670000Y-111960000D01*
X77633244Y-111958194D01*
X77596841Y-111952794D01*
X77561143Y-111943853D01*
X77526494Y-111931455D01*
X77493226Y-111915720D01*
X77461661Y-111896801D01*
X77432103Y-111874879D01*
X77404835Y-111850165D01*
X77380121Y-111822897D01*
X77358199Y-111793339D01*
X77339280Y-111761774D01*
X77323545Y-111728506D01*
X77311147Y-111693857D01*
X77302206Y-111658159D01*
X77296806Y-111621756D01*
X77295000Y-111585000D01*
X77295000Y-110835000D01*
X77296806Y-110798244D01*
X77302206Y-110761841D01*
X77311147Y-110726143D01*
X77323545Y-110691494D01*
X77339280Y-110658226D01*
X77358199Y-110626661D01*
X77380121Y-110597103D01*
X77404835Y-110569835D01*
X77432103Y-110545121D01*
X77461661Y-110523199D01*
X77493226Y-110504280D01*
X77526494Y-110488545D01*
X77561143Y-110476147D01*
X77596841Y-110467206D01*
X77633244Y-110461806D01*
X77670000Y-110460000D01*
X79920000Y-110460000D01*
X79956756Y-110461806D01*
X79956756Y-110461806D01*
G37*
D11*
G04 #@! TD*
G04 #@! TO.P,SW1,2*
G04 #@! TO.N,Net-(D5-Pad2)*
X78795000Y-111210000D03*
D10*
G04 #@! TO.N,Net-(C1-Pad2)*
G04 #@! TO.C,SW1*
G36*
X77681756Y-113251806D02*
X77718159Y-113257206D01*
X77753857Y-113266147D01*
X77788506Y-113278545D01*
X77821774Y-113294280D01*
X77853339Y-113313199D01*
X77882897Y-113335121D01*
X77910165Y-113359835D01*
X77934879Y-113387103D01*
X77956801Y-113416661D01*
X77975720Y-113448226D01*
X77991455Y-113481494D01*
X78003853Y-113516143D01*
X78012794Y-113551841D01*
X78018194Y-113588244D01*
X78020000Y-113625000D01*
X78020000Y-114375000D01*
X78018194Y-114411756D01*
X78012794Y-114448159D01*
X78003853Y-114483857D01*
X77991455Y-114518506D01*
X77975720Y-114551774D01*
X77956801Y-114583339D01*
X77934879Y-114612897D01*
X77910165Y-114640165D01*
X77882897Y-114664879D01*
X77853339Y-114686801D01*
X77821774Y-114705720D01*
X77788506Y-114721455D01*
X77753857Y-114733853D01*
X77718159Y-114742794D01*
X77681756Y-114748194D01*
X77645000Y-114750000D01*
X76895000Y-114750000D01*
X76858244Y-114748194D01*
X76821841Y-114742794D01*
X76786143Y-114733853D01*
X76751494Y-114721455D01*
X76718226Y-114705720D01*
X76686661Y-114686801D01*
X76657103Y-114664879D01*
X76629835Y-114640165D01*
X76605121Y-114612897D01*
X76583199Y-114583339D01*
X76564280Y-114551774D01*
X76548545Y-114518506D01*
X76536147Y-114483857D01*
X76527206Y-114448159D01*
X76521806Y-114411756D01*
X76520000Y-114375000D01*
X76520000Y-113625000D01*
X76521806Y-113588244D01*
X76527206Y-113551841D01*
X76536147Y-113516143D01*
X76548545Y-113481494D01*
X76564280Y-113448226D01*
X76583199Y-113416661D01*
X76605121Y-113387103D01*
X76629835Y-113359835D01*
X76657103Y-113335121D01*
X76686661Y-113313199D01*
X76718226Y-113294280D01*
X76751494Y-113278545D01*
X76786143Y-113266147D01*
X76821841Y-113257206D01*
X76858244Y-113251806D01*
X76895000Y-113250000D01*
X77645000Y-113250000D01*
X77681756Y-113251806D01*
X77681756Y-113251806D01*
G37*
D11*
G04 #@! TD*
G04 #@! TO.P,SW1,3*
G04 #@! TO.N,Net-(C1-Pad2)*
X77270000Y-114000000D03*
D10*
G04 #@! TO.N,Net-(J1-PadS)*
G04 #@! TO.C,SW1*
G36*
X75141756Y-113251806D02*
X75178159Y-113257206D01*
X75213857Y-113266147D01*
X75248506Y-113278545D01*
X75281774Y-113294280D01*
X75313339Y-113313199D01*
X75342897Y-113335121D01*
X75370165Y-113359835D01*
X75394879Y-113387103D01*
X75416801Y-113416661D01*
X75435720Y-113448226D01*
X75451455Y-113481494D01*
X75463853Y-113516143D01*
X75472794Y-113551841D01*
X75478194Y-113588244D01*
X75480000Y-113625000D01*
X75480000Y-114375000D01*
X75478194Y-114411756D01*
X75472794Y-114448159D01*
X75463853Y-114483857D01*
X75451455Y-114518506D01*
X75435720Y-114551774D01*
X75416801Y-114583339D01*
X75394879Y-114612897D01*
X75370165Y-114640165D01*
X75342897Y-114664879D01*
X75313339Y-114686801D01*
X75281774Y-114705720D01*
X75248506Y-114721455D01*
X75213857Y-114733853D01*
X75178159Y-114742794D01*
X75141756Y-114748194D01*
X75105000Y-114750000D01*
X74355000Y-114750000D01*
X74318244Y-114748194D01*
X74281841Y-114742794D01*
X74246143Y-114733853D01*
X74211494Y-114721455D01*
X74178226Y-114705720D01*
X74146661Y-114686801D01*
X74117103Y-114664879D01*
X74089835Y-114640165D01*
X74065121Y-114612897D01*
X74043199Y-114583339D01*
X74024280Y-114551774D01*
X74008545Y-114518506D01*
X73996147Y-114483857D01*
X73987206Y-114448159D01*
X73981806Y-114411756D01*
X73980000Y-114375000D01*
X73980000Y-113625000D01*
X73981806Y-113588244D01*
X73987206Y-113551841D01*
X73996147Y-113516143D01*
X74008545Y-113481494D01*
X74024280Y-113448226D01*
X74043199Y-113416661D01*
X74065121Y-113387103D01*
X74089835Y-113359835D01*
X74117103Y-113335121D01*
X74146661Y-113313199D01*
X74178226Y-113294280D01*
X74211494Y-113278545D01*
X74246143Y-113266147D01*
X74281841Y-113257206D01*
X74318244Y-113251806D01*
X74355000Y-113250000D01*
X75105000Y-113250000D01*
X75141756Y-113251806D01*
X75141756Y-113251806D01*
G37*
D11*
G04 #@! TD*
G04 #@! TO.P,SW1,4*
G04 #@! TO.N,Net-(J1-PadS)*
X74730000Y-114000000D03*
D10*
G04 #@! TO.N,Net-(D6-Pad1)*
G04 #@! TO.C,SW3*
G36*
X110366756Y-110461806D02*
X110403159Y-110467206D01*
X110438857Y-110476147D01*
X110473506Y-110488545D01*
X110506774Y-110504280D01*
X110538339Y-110523199D01*
X110567897Y-110545121D01*
X110595165Y-110569835D01*
X110619879Y-110597103D01*
X110641801Y-110626661D01*
X110660720Y-110658226D01*
X110676455Y-110691494D01*
X110688853Y-110726143D01*
X110697794Y-110761841D01*
X110703194Y-110798244D01*
X110705000Y-110835000D01*
X110705000Y-111585000D01*
X110703194Y-111621756D01*
X110697794Y-111658159D01*
X110688853Y-111693857D01*
X110676455Y-111728506D01*
X110660720Y-111761774D01*
X110641801Y-111793339D01*
X110619879Y-111822897D01*
X110595165Y-111850165D01*
X110567897Y-111874879D01*
X110538339Y-111896801D01*
X110506774Y-111915720D01*
X110473506Y-111931455D01*
X110438857Y-111943853D01*
X110403159Y-111952794D01*
X110366756Y-111958194D01*
X110330000Y-111960000D01*
X108080000Y-111960000D01*
X108043244Y-111958194D01*
X108006841Y-111952794D01*
X107971143Y-111943853D01*
X107936494Y-111931455D01*
X107903226Y-111915720D01*
X107871661Y-111896801D01*
X107842103Y-111874879D01*
X107814835Y-111850165D01*
X107790121Y-111822897D01*
X107768199Y-111793339D01*
X107749280Y-111761774D01*
X107733545Y-111728506D01*
X107721147Y-111693857D01*
X107712206Y-111658159D01*
X107706806Y-111621756D01*
X107705000Y-111585000D01*
X107705000Y-110835000D01*
X107706806Y-110798244D01*
X107712206Y-110761841D01*
X107721147Y-110726143D01*
X107733545Y-110691494D01*
X107749280Y-110658226D01*
X107768199Y-110626661D01*
X107790121Y-110597103D01*
X107814835Y-110569835D01*
X107842103Y-110545121D01*
X107871661Y-110523199D01*
X107903226Y-110504280D01*
X107936494Y-110488545D01*
X107971143Y-110476147D01*
X108006841Y-110467206D01*
X108043244Y-110461806D01*
X108080000Y-110460000D01*
X110330000Y-110460000D01*
X110366756Y-110461806D01*
X110366756Y-110461806D01*
G37*
D11*
G04 #@! TD*
G04 #@! TO.P,SW3,1*
G04 #@! TO.N,Net-(D6-Pad1)*
X109205000Y-111210000D03*
D10*
G04 #@! TO.N,Net-(C1-Pad2)*
G04 #@! TO.C,SW3*
G36*
X115956756Y-110461806D02*
X115993159Y-110467206D01*
X116028857Y-110476147D01*
X116063506Y-110488545D01*
X116096774Y-110504280D01*
X116128339Y-110523199D01*
X116157897Y-110545121D01*
X116185165Y-110569835D01*
X116209879Y-110597103D01*
X116231801Y-110626661D01*
X116250720Y-110658226D01*
X116266455Y-110691494D01*
X116278853Y-110726143D01*
X116287794Y-110761841D01*
X116293194Y-110798244D01*
X116295000Y-110835000D01*
X116295000Y-111585000D01*
X116293194Y-111621756D01*
X116287794Y-111658159D01*
X116278853Y-111693857D01*
X116266455Y-111728506D01*
X116250720Y-111761774D01*
X116231801Y-111793339D01*
X116209879Y-111822897D01*
X116185165Y-111850165D01*
X116157897Y-111874879D01*
X116128339Y-111896801D01*
X116096774Y-111915720D01*
X116063506Y-111931455D01*
X116028857Y-111943853D01*
X115993159Y-111952794D01*
X115956756Y-111958194D01*
X115920000Y-111960000D01*
X113670000Y-111960000D01*
X113633244Y-111958194D01*
X113596841Y-111952794D01*
X113561143Y-111943853D01*
X113526494Y-111931455D01*
X113493226Y-111915720D01*
X113461661Y-111896801D01*
X113432103Y-111874879D01*
X113404835Y-111850165D01*
X113380121Y-111822897D01*
X113358199Y-111793339D01*
X113339280Y-111761774D01*
X113323545Y-111728506D01*
X113311147Y-111693857D01*
X113302206Y-111658159D01*
X113296806Y-111621756D01*
X113295000Y-111585000D01*
X113295000Y-110835000D01*
X113296806Y-110798244D01*
X113302206Y-110761841D01*
X113311147Y-110726143D01*
X113323545Y-110691494D01*
X113339280Y-110658226D01*
X113358199Y-110626661D01*
X113380121Y-110597103D01*
X113404835Y-110569835D01*
X113432103Y-110545121D01*
X113461661Y-110523199D01*
X113493226Y-110504280D01*
X113526494Y-110488545D01*
X113561143Y-110476147D01*
X113596841Y-110467206D01*
X113633244Y-110461806D01*
X113670000Y-110460000D01*
X115920000Y-110460000D01*
X115956756Y-110461806D01*
X115956756Y-110461806D01*
G37*
D11*
G04 #@! TD*
G04 #@! TO.P,SW3,2*
G04 #@! TO.N,Net-(C1-Pad2)*
X114795000Y-111210000D03*
D10*
G04 #@! TO.N,Net-(J1-PadS)*
G04 #@! TO.C,SW3*
G36*
X113681756Y-113251806D02*
X113718159Y-113257206D01*
X113753857Y-113266147D01*
X113788506Y-113278545D01*
X113821774Y-113294280D01*
X113853339Y-113313199D01*
X113882897Y-113335121D01*
X113910165Y-113359835D01*
X113934879Y-113387103D01*
X113956801Y-113416661D01*
X113975720Y-113448226D01*
X113991455Y-113481494D01*
X114003853Y-113516143D01*
X114012794Y-113551841D01*
X114018194Y-113588244D01*
X114020000Y-113625000D01*
X114020000Y-114375000D01*
X114018194Y-114411756D01*
X114012794Y-114448159D01*
X114003853Y-114483857D01*
X113991455Y-114518506D01*
X113975720Y-114551774D01*
X113956801Y-114583339D01*
X113934879Y-114612897D01*
X113910165Y-114640165D01*
X113882897Y-114664879D01*
X113853339Y-114686801D01*
X113821774Y-114705720D01*
X113788506Y-114721455D01*
X113753857Y-114733853D01*
X113718159Y-114742794D01*
X113681756Y-114748194D01*
X113645000Y-114750000D01*
X112895000Y-114750000D01*
X112858244Y-114748194D01*
X112821841Y-114742794D01*
X112786143Y-114733853D01*
X112751494Y-114721455D01*
X112718226Y-114705720D01*
X112686661Y-114686801D01*
X112657103Y-114664879D01*
X112629835Y-114640165D01*
X112605121Y-114612897D01*
X112583199Y-114583339D01*
X112564280Y-114551774D01*
X112548545Y-114518506D01*
X112536147Y-114483857D01*
X112527206Y-114448159D01*
X112521806Y-114411756D01*
X112520000Y-114375000D01*
X112520000Y-113625000D01*
X112521806Y-113588244D01*
X112527206Y-113551841D01*
X112536147Y-113516143D01*
X112548545Y-113481494D01*
X112564280Y-113448226D01*
X112583199Y-113416661D01*
X112605121Y-113387103D01*
X112629835Y-113359835D01*
X112657103Y-113335121D01*
X112686661Y-113313199D01*
X112718226Y-113294280D01*
X112751494Y-113278545D01*
X112786143Y-113266147D01*
X112821841Y-113257206D01*
X112858244Y-113251806D01*
X112895000Y-113250000D01*
X113645000Y-113250000D01*
X113681756Y-113251806D01*
X113681756Y-113251806D01*
G37*
D11*
G04 #@! TD*
G04 #@! TO.P,SW3,3*
G04 #@! TO.N,Net-(J1-PadS)*
X113270000Y-114000000D03*
D10*
G04 #@! TO.N,Net-(D5-Pad1)*
G04 #@! TO.C,SW3*
G36*
X111141756Y-113251806D02*
X111178159Y-113257206D01*
X111213857Y-113266147D01*
X111248506Y-113278545D01*
X111281774Y-113294280D01*
X111313339Y-113313199D01*
X111342897Y-113335121D01*
X111370165Y-113359835D01*
X111394879Y-113387103D01*
X111416801Y-113416661D01*
X111435720Y-113448226D01*
X111451455Y-113481494D01*
X111463853Y-113516143D01*
X111472794Y-113551841D01*
X111478194Y-113588244D01*
X111480000Y-113625000D01*
X111480000Y-114375000D01*
X111478194Y-114411756D01*
X111472794Y-114448159D01*
X111463853Y-114483857D01*
X111451455Y-114518506D01*
X111435720Y-114551774D01*
X111416801Y-114583339D01*
X111394879Y-114612897D01*
X111370165Y-114640165D01*
X111342897Y-114664879D01*
X111313339Y-114686801D01*
X111281774Y-114705720D01*
X111248506Y-114721455D01*
X111213857Y-114733853D01*
X111178159Y-114742794D01*
X111141756Y-114748194D01*
X111105000Y-114750000D01*
X110355000Y-114750000D01*
X110318244Y-114748194D01*
X110281841Y-114742794D01*
X110246143Y-114733853D01*
X110211494Y-114721455D01*
X110178226Y-114705720D01*
X110146661Y-114686801D01*
X110117103Y-114664879D01*
X110089835Y-114640165D01*
X110065121Y-114612897D01*
X110043199Y-114583339D01*
X110024280Y-114551774D01*
X110008545Y-114518506D01*
X109996147Y-114483857D01*
X109987206Y-114448159D01*
X109981806Y-114411756D01*
X109980000Y-114375000D01*
X109980000Y-113625000D01*
X109981806Y-113588244D01*
X109987206Y-113551841D01*
X109996147Y-113516143D01*
X110008545Y-113481494D01*
X110024280Y-113448226D01*
X110043199Y-113416661D01*
X110065121Y-113387103D01*
X110089835Y-113359835D01*
X110117103Y-113335121D01*
X110146661Y-113313199D01*
X110178226Y-113294280D01*
X110211494Y-113278545D01*
X110246143Y-113266147D01*
X110281841Y-113257206D01*
X110318244Y-113251806D01*
X110355000Y-113250000D01*
X111105000Y-113250000D01*
X111141756Y-113251806D01*
X111141756Y-113251806D01*
G37*
D11*
G04 #@! TD*
G04 #@! TO.P,SW3,4*
G04 #@! TO.N,Net-(D5-Pad1)*
X110730000Y-114000000D03*
D12*
G04 #@! TO.P,D5,2*
G04 #@! TO.N,Net-(D5-Pad2)*
X90380000Y-105000000D03*
D13*
G04 #@! TO.P,D5,1*
G04 #@! TO.N,Net-(D5-Pad1)*
X98000000Y-105000000D03*
G04 #@! TD*
D14*
G04 #@! TO.P,C1,1*
G04 #@! TO.N,Net-(C1-Pad1)*
X113000000Y-103000000D03*
G04 #@! TO.P,C1,2*
G04 #@! TO.N,Net-(C1-Pad2)*
X118000000Y-103000000D03*
G04 #@! TD*
D12*
G04 #@! TO.P,R4,2*
G04 #@! TO.N,Net-(C1-Pad2)*
X121000000Y-106000000D03*
D14*
G04 #@! TO.P,R4,1*
G04 #@! TO.N,Net-(C1-Pad1)*
X110840000Y-106000000D03*
G04 #@! TD*
D10*
G04 #@! TO.N,N/C*
G04 #@! TO.C,J1*
G36*
X82323513Y-104878611D02*
X82396318Y-104889411D01*
X82467714Y-104907295D01*
X82537013Y-104932090D01*
X82603548Y-104963559D01*
X82666678Y-105001398D01*
X82725795Y-105045242D01*
X82780330Y-105094670D01*
X82829758Y-105149205D01*
X82873602Y-105208322D01*
X82911441Y-105271452D01*
X82942910Y-105337987D01*
X82967705Y-105407286D01*
X82985589Y-105478682D01*
X82996389Y-105551487D01*
X83000000Y-105625000D01*
X83000000Y-107125000D01*
X82996389Y-107198513D01*
X82985589Y-107271318D01*
X82967705Y-107342714D01*
X82942910Y-107412013D01*
X82911441Y-107478548D01*
X82873602Y-107541678D01*
X82829758Y-107600795D01*
X82780330Y-107655330D01*
X82725795Y-107704758D01*
X82666678Y-107748602D01*
X82603548Y-107786441D01*
X82537013Y-107817910D01*
X82467714Y-107842705D01*
X82396318Y-107860589D01*
X82323513Y-107871389D01*
X82250000Y-107875000D01*
X80750000Y-107875000D01*
X80676487Y-107871389D01*
X80603682Y-107860589D01*
X80532286Y-107842705D01*
X80462987Y-107817910D01*
X80396452Y-107786441D01*
X80333322Y-107748602D01*
X80274205Y-107704758D01*
X80219670Y-107655330D01*
X80170242Y-107600795D01*
X80126398Y-107541678D01*
X80088559Y-107478548D01*
X80057090Y-107412013D01*
X80032295Y-107342714D01*
X80014411Y-107271318D01*
X80003611Y-107198513D01*
X80000000Y-107125000D01*
X80000000Y-105625000D01*
X80003611Y-105551487D01*
X80014411Y-105478682D01*
X80032295Y-105407286D01*
X80057090Y-105337987D01*
X80088559Y-105271452D01*
X80126398Y-105208322D01*
X80170242Y-105149205D01*
X80219670Y-105094670D01*
X80274205Y-105045242D01*
X80333322Y-105001398D01*
X80396452Y-104963559D01*
X80462987Y-104932090D01*
X80532286Y-104907295D01*
X80603682Y-104889411D01*
X80676487Y-104878611D01*
X80750000Y-104875000D01*
X82250000Y-104875000D01*
X82323513Y-104878611D01*
X82323513Y-104878611D01*
G37*
D15*
G04 #@! TD*
G04 #@! TO.P,J1,X*
G04 #@! TO.N,N/C*
X81500000Y-106375000D03*
D10*
G04 #@! TO.N,Net-(D5-Pad1)*
G04 #@! TO.C,J1*
G36*
X81436261Y-100378010D02*
X81496931Y-100387009D01*
X81556428Y-100401912D01*
X81614177Y-100422575D01*
X81669623Y-100448799D01*
X81722231Y-100480331D01*
X81771496Y-100516868D01*
X81816942Y-100558058D01*
X81858132Y-100603504D01*
X81894669Y-100652769D01*
X81926201Y-100705377D01*
X81952425Y-100760823D01*
X81973088Y-100818572D01*
X81987991Y-100878069D01*
X81996990Y-100938739D01*
X82000000Y-101000000D01*
X82000000Y-102250000D01*
X81996990Y-102311261D01*
X81987991Y-102371931D01*
X81973088Y-102431428D01*
X81952425Y-102489177D01*
X81926201Y-102544623D01*
X81894669Y-102597231D01*
X81858132Y-102646496D01*
X81816942Y-102691942D01*
X81771496Y-102733132D01*
X81722231Y-102769669D01*
X81669623Y-102801201D01*
X81614177Y-102827425D01*
X81556428Y-102848088D01*
X81496931Y-102862991D01*
X81436261Y-102871990D01*
X81375000Y-102875000D01*
X78625000Y-102875000D01*
X78563739Y-102871990D01*
X78503069Y-102862991D01*
X78443572Y-102848088D01*
X78385823Y-102827425D01*
X78330377Y-102801201D01*
X78277769Y-102769669D01*
X78228504Y-102733132D01*
X78183058Y-102691942D01*
X78141868Y-102646496D01*
X78105331Y-102597231D01*
X78073799Y-102544623D01*
X78047575Y-102489177D01*
X78026912Y-102431428D01*
X78012009Y-102371931D01*
X78003010Y-102311261D01*
X78000000Y-102250000D01*
X78000000Y-101000000D01*
X78003010Y-100938739D01*
X78012009Y-100878069D01*
X78026912Y-100818572D01*
X78047575Y-100760823D01*
X78073799Y-100705377D01*
X78105331Y-100652769D01*
X78141868Y-100603504D01*
X78183058Y-100558058D01*
X78228504Y-100516868D01*
X78277769Y-100480331D01*
X78330377Y-100448799D01*
X78385823Y-100422575D01*
X78443572Y-100401912D01*
X78503069Y-100387009D01*
X78563739Y-100378010D01*
X78625000Y-100375000D01*
X81375000Y-100375000D01*
X81436261Y-100378010D01*
X81436261Y-100378010D01*
G37*
D16*
G04 #@! TD*
G04 #@! TO.P,J1,T*
G04 #@! TO.N,Net-(D5-Pad1)*
X80000000Y-101625000D03*
D10*
G04 #@! TO.N,Net-(C1-Pad2)*
G04 #@! TO.C,J1*
G36*
X76549009Y-99877408D02*
X76597545Y-99884607D01*
X76645142Y-99896530D01*
X76691342Y-99913060D01*
X76735698Y-99934039D01*
X76777785Y-99959265D01*
X76817197Y-99988495D01*
X76853553Y-100021447D01*
X76886505Y-100057803D01*
X76915735Y-100097215D01*
X76940961Y-100139302D01*
X76961940Y-100183658D01*
X76978470Y-100229858D01*
X76990393Y-100277455D01*
X76997592Y-100325991D01*
X77000000Y-100375000D01*
X77000000Y-102875000D01*
X76997592Y-102924009D01*
X76990393Y-102972545D01*
X76978470Y-103020142D01*
X76961940Y-103066342D01*
X76940961Y-103110698D01*
X76915735Y-103152785D01*
X76886505Y-103192197D01*
X76853553Y-103228553D01*
X76817197Y-103261505D01*
X76777785Y-103290735D01*
X76735698Y-103315961D01*
X76691342Y-103336940D01*
X76645142Y-103353470D01*
X76597545Y-103365393D01*
X76549009Y-103372592D01*
X76500000Y-103375000D01*
X75500000Y-103375000D01*
X75450991Y-103372592D01*
X75402455Y-103365393D01*
X75354858Y-103353470D01*
X75308658Y-103336940D01*
X75264302Y-103315961D01*
X75222215Y-103290735D01*
X75182803Y-103261505D01*
X75146447Y-103228553D01*
X75113495Y-103192197D01*
X75084265Y-103152785D01*
X75059039Y-103110698D01*
X75038060Y-103066342D01*
X75021530Y-103020142D01*
X75009607Y-102972545D01*
X75002408Y-102924009D01*
X75000000Y-102875000D01*
X75000000Y-100375000D01*
X75002408Y-100325991D01*
X75009607Y-100277455D01*
X75021530Y-100229858D01*
X75038060Y-100183658D01*
X75059039Y-100139302D01*
X75084265Y-100097215D01*
X75113495Y-100057803D01*
X75146447Y-100021447D01*
X75182803Y-99988495D01*
X75222215Y-99959265D01*
X75264302Y-99934039D01*
X75308658Y-99913060D01*
X75354858Y-99896530D01*
X75402455Y-99884607D01*
X75450991Y-99877408D01*
X75500000Y-99875000D01*
X76500000Y-99875000D01*
X76549009Y-99877408D01*
X76549009Y-99877408D01*
G37*
D17*
G04 #@! TD*
G04 #@! TO.P,J1,R*
G04 #@! TO.N,Net-(C1-Pad2)*
X76000000Y-101625000D03*
D10*
G04 #@! TO.N,Net-(J1-PadS)*
G04 #@! TO.C,J1*
G36*
X73549009Y-100127408D02*
X73597545Y-100134607D01*
X73645142Y-100146530D01*
X73691342Y-100163060D01*
X73735698Y-100184039D01*
X73777785Y-100209265D01*
X73817197Y-100238495D01*
X73853553Y-100271447D01*
X73886505Y-100307803D01*
X73915735Y-100347215D01*
X73940961Y-100389302D01*
X73961940Y-100433658D01*
X73978470Y-100479858D01*
X73990393Y-100527455D01*
X73997592Y-100575991D01*
X74000000Y-100625000D01*
X74000000Y-102625000D01*
X73997592Y-102674009D01*
X73990393Y-102722545D01*
X73978470Y-102770142D01*
X73961940Y-102816342D01*
X73940961Y-102860698D01*
X73915735Y-102902785D01*
X73886505Y-102942197D01*
X73853553Y-102978553D01*
X73817197Y-103011505D01*
X73777785Y-103040735D01*
X73735698Y-103065961D01*
X73691342Y-103086940D01*
X73645142Y-103103470D01*
X73597545Y-103115393D01*
X73549009Y-103122592D01*
X73500000Y-103125000D01*
X72500000Y-103125000D01*
X72450991Y-103122592D01*
X72402455Y-103115393D01*
X72354858Y-103103470D01*
X72308658Y-103086940D01*
X72264302Y-103065961D01*
X72222215Y-103040735D01*
X72182803Y-103011505D01*
X72146447Y-102978553D01*
X72113495Y-102942197D01*
X72084265Y-102902785D01*
X72059039Y-102860698D01*
X72038060Y-102816342D01*
X72021530Y-102770142D01*
X72009607Y-102722545D01*
X72002408Y-102674009D01*
X72000000Y-102625000D01*
X72000000Y-100625000D01*
X72002408Y-100575991D01*
X72009607Y-100527455D01*
X72021530Y-100479858D01*
X72038060Y-100433658D01*
X72059039Y-100389302D01*
X72084265Y-100347215D01*
X72113495Y-100307803D01*
X72146447Y-100271447D01*
X72182803Y-100238495D01*
X72222215Y-100209265D01*
X72264302Y-100184039D01*
X72308658Y-100163060D01*
X72354858Y-100146530D01*
X72402455Y-100134607D01*
X72450991Y-100127408D01*
X72500000Y-100125000D01*
X73500000Y-100125000D01*
X73549009Y-100127408D01*
X73549009Y-100127408D01*
G37*
D17*
G04 #@! TD*
G04 #@! TO.P,J1,S*
G04 #@! TO.N,Net-(J1-PadS)*
X73000000Y-101625000D03*
D12*
G04 #@! TO.P,D6,2*
G04 #@! TO.N,Net-(D5-Pad1)*
X102616000Y-108204000D03*
D13*
G04 #@! TO.P,D6,1*
G04 #@! TO.N,Net-(D6-Pad1)*
X102616000Y-115824000D03*
G04 #@! TD*
D18*
G04 #@! TO.N,Net-(C1-Pad2)*
X76000000Y-99775000D02*
X76000000Y-101625000D01*
X77775000Y-98000000D02*
X76000000Y-99775000D01*
X83000000Y-98000000D02*
X77775000Y-98000000D01*
X86000000Y-101000000D02*
X83000000Y-98000000D01*
X88000000Y-107000000D02*
X86000000Y-105000000D01*
X86000000Y-105000000D02*
X86000000Y-101000000D01*
X101000000Y-106000000D02*
X100000000Y-107000000D01*
X105000000Y-106000000D02*
X101000000Y-106000000D01*
X111000000Y-100000000D02*
X105000000Y-106000000D01*
X100000000Y-107000000D02*
X88000000Y-107000000D01*
X115000000Y-100000000D02*
X111000000Y-100000000D01*
X118000000Y-103000000D02*
X115000000Y-100000000D01*
G04 #@! TD*
M02*
