<svg id="Layer_1" data-name="Layer 1" xmlns="http://www.w3.org/2000/svg" viewBox="0 0 199.81 68.28"><defs><style>.cls-1,.cls-2{fill:#848400;}.cls-2,.cls-3,.cls-5,.cls-6,.cls-7{fill-opacity:0;stroke-linecap:round;stroke-linejoin:round;stroke-width:0.25px;}.cls-2{stroke:#848400;}.cls-3{fill:#008400;stroke:#008400;}.cls-4{fill:#fff;}.cls-5{fill:#840000;stroke:#840000;}.cls-6{fill:#008484;stroke:#008484;}.cls-7{fill:#c2c200;stroke:#c2c200;}</style></defs><title>4button-3wire-brd</title><polyline class="cls-1" points="72.52 49.03 72.63 49.04 72.73 49.06 72.83 49.1 72.92 49.15 73.01 49.2 73.1 49.27 73.17 49.33 73.24 49.41 73.31 49.49 73.36 49.58 73.4 49.67 73.44 49.78 73.46 49.88 73.48 49.98 73.49 50.09 73.49 52.21 73.48 52.31 73.46 52.42 73.44 52.52 73.4 52.62 73.36 52.71 73.31 52.8 73.24 52.89 73.17 52.96 73.1 53.03 73.01 53.09 72.92 53.15 72.83 53.19 72.73 53.23 72.63 53.25 72.52 53.27 72.42 53.27 70.3 53.27 70.19 53.27 70.09 53.25 69.99 53.23 69.89 53.19 69.79 53.15 69.71 53.09 69.62 53.03 69.54 52.96 69.47 52.89 69.41 52.8 69.36 52.71 69.31 52.62 69.27 52.52 69.25 52.42 69.24 52.31 69.23 52.21 69.23 50.09 69.24 49.98 69.25 49.88 69.27 49.78 69.31 49.67 69.36 49.58 69.41 49.49 69.47 49.41 69.54 49.33 69.62 49.27 69.71 49.2 69.79 49.15 69.89 49.1 69.99 49.06 70.09 49.04 70.19 49.03 70.3 49.02 72.42 49.02 72.52 49.03"/><polyline class="cls-1" points="79.72 49.03 79.83 49.04 79.93 49.06 80.03 49.1 80.12 49.15 80.21 49.2 80.3 49.27 80.37 49.33 80.44 49.41 80.51 49.49 80.56 49.58 80.6 49.67 80.64 49.78 80.66 49.88 80.68 49.98 80.69 50.09 80.69 52.21 80.68 52.31 80.66 52.42 80.64 52.52 80.6 52.62 80.56 52.71 80.51 52.8 80.44 52.89 80.37 52.96 80.3 53.03 80.21 53.09 80.12 53.15 80.03 53.19 79.93 53.23 79.83 53.25 79.72 53.27 79.62 53.27 77.5 53.27 77.39 53.27 77.29 53.25 77.19 53.23 77.09 53.19 76.99 53.15 76.91 53.09 76.82 53.03 76.74 52.96 76.67 52.89 76.61 52.8 76.56 52.71 76.51 52.62 76.47 52.52 76.45 52.42 76.44 52.31 76.43 52.21 76.43 50.09 76.44 49.98 76.45 49.88 76.47 49.78 76.51 49.67 76.56 49.58 76.61 49.49 76.67 49.41 76.74 49.33 76.82 49.27 76.91 49.2 76.99 49.15 77.09 49.1 77.19 49.06 77.29 49.04 77.39 49.03 77.5 49.02 79.62 49.02 79.72 49.03"/><polyline class="cls-1" points="86.17 41.12 86.27 41.14 86.38 41.16 86.47 41.19 86.57 41.24 86.66 41.3 86.74 41.35 86.82 41.42 86.89 41.5 86.95 41.58 87.01 41.68 87.05 41.77 87.09 41.86 87.11 41.97 87.13 42.07 87.13 42.17 87.13 44.3 87.13 44.41 87.11 44.51 87.09 44.61 87.05 44.71 87.01 44.8 86.95 44.9 86.89 44.97 86.82 45.05 86.74 45.13 86.66 45.18 86.57 45.24 86.47 45.28 86.38 45.32 86.27 45.34 86.17 45.36 86.07 45.36 79.69 45.36 79.58 45.36 79.48 45.34 79.38 45.32 79.28 45.28 79.19 45.24 79.1 45.18 79.02 45.13 78.94 45.05 78.87 44.97 78.81 44.9 78.76 44.8 78.71 44.71 78.68 44.61 78.65 44.51 78.63 44.41 78.63 44.3 78.63 42.17 78.63 42.07 78.65 41.97 78.68 41.86 78.71 41.77 78.76 41.68 78.81 41.58 78.87 41.5 78.94 41.42 79.02 41.35 79.1 41.3 79.19 41.24 79.28 41.19 79.38 41.16 79.48 41.14 79.58 41.12 79.69 41.12 86.07 41.12 86.17 41.12"/><polyline class="cls-1" points="70.33 41.12 70.43 41.14 70.53 41.16 70.63 41.19 70.72 41.24 70.81 41.3 70.9 41.35 70.97 41.42 71.05 41.5 71.11 41.58 71.16 41.68 71.2 41.77 71.24 41.86 71.27 41.97 71.28 42.07 71.29 42.17 71.29 44.3 71.28 44.41 71.27 44.51 71.24 44.61 71.2 44.71 71.16 44.8 71.11 44.9 71.05 44.97 70.97 45.05 70.9 45.13 70.81 45.18 70.72 45.24 70.63 45.28 70.53 45.32 70.43 45.34 70.33 45.36 70.22 45.36 63.84 45.36 63.74 45.36 63.64 45.34 63.53 45.32 63.44 45.28 63.34 45.24 63.26 45.18 63.17 45.13 63.1 45.05 63.02 44.97 62.96 44.9 62.91 44.8 62.87 44.71 62.83 44.61 62.8 44.51 62.79 44.41 62.78 44.3 62.78 42.17 62.79 42.07 62.8 41.97 62.83 41.86 62.87 41.77 62.91 41.68 62.96 41.58 63.02 41.5 63.1 41.42 63.17 41.35 63.26 41.3 63.34 41.24 63.44 41.19 63.53 41.16 63.64 41.14 63.74 41.12 63.84 41.12 70.22 41.12 70.33 41.12"/><polyline class="cls-1" points="172.38 41.12 172.48 41.14 172.58 41.16 172.68 41.19 172.77 41.24 172.86 41.3 172.95 41.35 173.03 41.42 173.09 41.5 173.16 41.58 173.21 41.68 173.26 41.77 173.28 41.86 173.31 41.97 173.33 42.07 173.34 42.17 173.34 44.3 173.33 44.41 173.31 44.51 173.28 44.61 173.26 44.71 173.21 44.8 173.16 44.9 173.09 44.97 173.03 45.05 172.95 45.13 172.86 45.18 172.77 45.24 172.68 45.28 172.58 45.32 172.48 45.34 172.38 45.36 172.27 45.36 165.89 45.36 165.79 45.36 165.68 45.34 165.58 45.32 165.49 45.28 165.39 45.24 165.3 45.18 165.22 45.13 165.14 45.05 165.07 44.97 165.01 44.9 164.95 44.8 164.91 44.71 164.88 44.61 164.85 44.51 164.83 44.41 164.83 44.3 164.83 42.17 164.83 42.07 164.85 41.97 164.88 41.86 164.91 41.77 164.95 41.68 165.01 41.58 165.07 41.5 165.14 41.42 165.22 41.35 165.3 41.3 165.39 41.24 165.49 41.19 165.58 41.16 165.68 41.14 165.79 41.12 165.89 41.12 172.27 41.12 172.38 41.12"/><polyline class="cls-1" points="188.22 41.12 188.33 41.14 188.43 41.16 188.52 41.19 188.62 41.24 188.71 41.3 188.79 41.35 188.87 41.42 188.94 41.5 189 41.58 189.05 41.68 189.1 41.77 189.13 41.86 189.16 41.97 189.18 42.07 189.18 42.17 189.18 44.3 189.18 44.41 189.16 44.51 189.13 44.61 189.1 44.71 189.05 44.8 189 44.9 188.94 44.97 188.87 45.05 188.79 45.13 188.71 45.18 188.62 45.24 188.52 45.28 188.43 45.32 188.33 45.34 188.22 45.36 188.12 45.36 181.74 45.36 181.64 45.36 181.53 45.34 181.43 45.32 181.33 45.28 181.23 45.24 181.15 45.18 181.06 45.13 180.99 45.05 180.92 44.97 180.85 44.9 180.8 44.8 180.76 44.71 180.72 44.61 180.69 44.51 180.68 44.41 180.67 44.3 180.67 42.17 180.68 42.07 180.69 41.97 180.72 41.86 180.76 41.77 180.8 41.68 180.85 41.58 180.92 41.5 180.99 41.42 181.06 41.35 181.15 41.3 181.23 41.24 181.33 41.19 181.43 41.16 181.53 41.14 181.64 41.12 181.74 41.12 188.12 41.12 188.22 41.12"/><polyline class="cls-1" points="181.77 49.03 181.87 49.04 181.97 49.06 182.08 49.1 182.17 49.15 182.26 49.2 182.34 49.27 182.42 49.33 182.49 49.41 182.55 49.49 182.6 49.58 182.65 49.67 182.69 49.78 182.71 49.88 182.72 49.98 182.73 50.09 182.73 52.21 182.72 52.31 182.71 52.42 182.69 52.52 182.65 52.62 182.6 52.71 182.55 52.8 182.49 52.89 182.42 52.96 182.34 53.03 182.26 53.09 182.17 53.15 182.08 53.19 181.97 53.23 181.87 53.25 181.77 53.27 181.67 53.27 179.54 53.27 179.43 53.27 179.33 53.25 179.23 53.23 179.13 53.19 179.04 53.15 178.95 53.09 178.87 53.03 178.79 52.96 178.72 52.89 178.66 52.8 178.61 52.71 178.56 52.62 178.53 52.52 178.5 52.42 178.48 52.31 178.48 52.21 178.48 50.09 178.48 49.98 178.5 49.88 178.53 49.78 178.56 49.67 178.61 49.58 178.66 49.49 178.72 49.41 178.79 49.33 178.87 49.27 178.95 49.2 179.04 49.15 179.13 49.1 179.23 49.06 179.33 49.04 179.43 49.03 179.54 49.02 181.67 49.02 181.77 49.03"/><polyline class="cls-1" points="174.57 49.03 174.67 49.04 174.78 49.06 174.88 49.1 174.97 49.15 175.06 49.2 175.14 49.27 175.22 49.33 175.29 49.41 175.35 49.49 175.4 49.58 175.45 49.67 175.49 49.78 175.51 49.88 175.52 49.98 175.53 50.09 175.53 52.21 175.52 52.31 175.51 52.42 175.49 52.52 175.45 52.62 175.4 52.71 175.35 52.8 175.29 52.89 175.22 52.96 175.14 53.03 175.06 53.09 174.97 53.15 174.88 53.19 174.78 53.23 174.67 53.25 174.57 53.27 174.47 53.27 172.34 53.27 172.23 53.27 172.13 53.25 172.03 53.23 171.93 53.19 171.84 53.15 171.75 53.09 171.66 53.03 171.59 52.96 171.52 52.89 171.46 52.8 171.41 52.71 171.36 52.62 171.33 52.52 171.3 52.42 171.28 52.31 171.28 52.21 171.28 50.09 171.28 49.98 171.3 49.88 171.33 49.78 171.36 49.67 171.41 49.58 171.46 49.49 171.52 49.41 171.59 49.33 171.66 49.27 171.75 49.2 171.84 49.15 171.93 49.1 172.03 49.06 172.13 49.04 172.23 49.03 172.34 49.02 174.47 49.02 174.57 49.03"/><polyline class="cls-1" points="19.31 41.12 19.41 41.14 19.51 41.16 19.61 41.19 19.7 41.24 19.79 41.3 19.88 41.35 19.95 41.42 20.02 41.5 20.08 41.58 20.13 41.68 20.18 41.77 20.22 41.86 20.24 41.97 20.26 42.07 20.26 42.17 20.26 44.3 20.26 44.41 20.24 44.51 20.22 44.61 20.18 44.71 20.13 44.8 20.08 44.9 20.02 44.97 19.95 45.05 19.88 45.13 19.79 45.18 19.7 45.24 19.61 45.28 19.51 45.32 19.41 45.34 19.31 45.36 19.2 45.36 12.82 45.36 12.72 45.36 12.62 45.34 12.52 45.32 12.41 45.28 12.32 45.24 12.23 45.18 12.15 45.13 12.07 45.05 12 44.97 11.94 44.9 11.88 44.8 11.84 44.71 11.8 44.61 11.78 44.51 11.77 44.41 11.76 44.3 11.76 42.17 11.77 42.07 11.78 41.97 11.8 41.86 11.84 41.77 11.88 41.68 11.94 41.58 12 41.5 12.07 41.42 12.15 41.35 12.23 41.3 12.32 41.24 12.41 41.19 12.52 41.16 12.62 41.14 12.72 41.12 12.82 41.12 19.2 41.12 19.31 41.12"/><polyline class="cls-1" points="35.15 41.12 35.25 41.14 35.35 41.16 35.45 41.19 35.55 41.24 35.63 41.3 35.72 41.35 35.79 41.42 35.87 41.5 35.93 41.58 35.98 41.68 36.02 41.77 36.06 41.86 36.09 41.97 36.1 42.07 36.11 42.17 36.11 44.3 36.1 44.41 36.09 44.51 36.06 44.61 36.02 44.71 35.98 44.8 35.93 44.9 35.87 44.97 35.79 45.05 35.72 45.13 35.63 45.18 35.55 45.24 35.45 45.28 35.35 45.32 35.25 45.34 35.15 45.36 35.05 45.36 28.67 45.36 28.57 45.36 28.46 45.34 28.36 45.32 28.26 45.28 28.17 45.24 28.07 45.18 28 45.13 27.92 45.05 27.84 44.97 27.78 44.9 27.73 44.8 27.69 44.71 27.65 44.61 27.62 44.51 27.61 44.41 27.61 44.3 27.61 42.17 27.61 42.07 27.62 41.97 27.65 41.86 27.69 41.77 27.73 41.68 27.78 41.58 27.84 41.5 27.92 41.42 28 41.35 28.07 41.3 28.17 41.24 28.26 41.19 28.36 41.16 28.46 41.14 28.57 41.12 28.67 41.12 35.05 41.12 35.15 41.12"/><polyline class="cls-1" points="28.7 49.03 28.8 49.04 28.9 49.06 29 49.1 29.1 49.15 29.18 49.2 29.27 49.27 29.35 49.33 29.42 49.41 29.48 49.49 29.54 49.58 29.58 49.67 29.62 49.78 29.64 49.88 29.65 49.98 29.66 50.09 29.66 52.21 29.65 52.31 29.64 52.42 29.62 52.52 29.58 52.62 29.54 52.71 29.48 52.8 29.42 52.89 29.35 52.96 29.27 53.03 29.18 53.09 29.1 53.15 29 53.19 28.9 53.23 28.8 53.25 28.7 53.27 28.59 53.27 26.47 53.27 26.37 53.27 26.26 53.25 26.16 53.23 26.07 53.19 25.97 53.15 25.88 53.09 25.79 53.03 25.72 52.96 25.65 52.89 25.58 52.8 25.53 52.71 25.49 52.62 25.45 52.52 25.43 52.42 25.41 52.31 25.4 52.21 25.4 50.09 25.41 49.98 25.43 49.88 25.45 49.78 25.49 49.67 25.53 49.58 25.58 49.49 25.65 49.41 25.72 49.33 25.79 49.27 25.88 49.2 25.97 49.15 26.07 49.1 26.16 49.06 26.26 49.04 26.37 49.03 26.47 49.02 28.59 49.02 28.7 49.03"/><polyline class="cls-1" points="21.5 49.03 21.6 49.04 21.7 49.06 21.8 49.1 21.9 49.15 21.98 49.2 22.07 49.27 22.15 49.33 22.22 49.41 22.28 49.49 22.34 49.58 22.38 49.67 22.42 49.78 22.44 49.88 22.45 49.98 22.46 50.09 22.46 52.21 22.45 52.31 22.44 52.42 22.42 52.52 22.38 52.62 22.34 52.71 22.28 52.8 22.22 52.89 22.15 52.96 22.07 53.03 21.98 53.09 21.9 53.15 21.8 53.19 21.7 53.23 21.6 53.25 21.5 53.27 21.39 53.27 19.27 53.27 19.17 53.27 19.06 53.25 18.96 53.23 18.87 53.19 18.77 53.15 18.68 53.09 18.59 53.03 18.52 52.96 18.45 52.89 18.38 52.8 18.33 52.71 18.29 52.62 18.25 52.52 18.23 52.42 18.21 52.31 18.2 52.21 18.2 50.09 18.21 49.98 18.23 49.88 18.25 49.78 18.29 49.67 18.33 49.58 18.38 49.49 18.45 49.41 18.52 49.33 18.59 49.27 18.68 49.2 18.77 49.15 18.87 49.1 18.96 49.06 19.06 49.04 19.17 49.03 19.27 49.02 21.39 49.02 21.5 49.03"/><polyline class="cls-1" points="121.35 41.12 121.45 41.14 121.55 41.16 121.65 41.19 121.75 41.24 121.84 41.3 121.92 41.35 122 41.42 122.07 41.5 122.13 41.58 122.19 41.68 122.23 41.77 122.27 41.86 122.29 41.97 122.3 42.07 122.31 42.17 122.31 44.3 122.3 44.41 122.29 44.51 122.27 44.61 122.23 44.71 122.19 44.8 122.13 44.9 122.07 44.97 122 45.05 121.92 45.13 121.84 45.18 121.75 45.24 121.65 45.28 121.55 45.32 121.45 45.34 121.35 45.36 121.25 45.36 114.87 45.36 114.76 45.36 114.66 45.34 114.56 45.32 114.46 45.28 114.37 45.24 114.28 45.18 114.19 45.13 114.11 45.05 114.05 44.97 113.99 44.9 113.93 44.8 113.89 44.71 113.85 44.61 113.83 44.51 113.81 44.41 113.81 44.3 113.81 42.17 113.81 42.07 113.83 41.97 113.85 41.86 113.89 41.77 113.93 41.68 113.99 41.58 114.05 41.5 114.11 41.42 114.19 41.35 114.28 41.3 114.37 41.24 114.46 41.19 114.56 41.16 114.66 41.14 114.76 41.12 114.87 41.12 121.25 41.12 121.35 41.12"/><polyline class="cls-1" points="137.2 41.12 137.3 41.14 137.4 41.16 137.5 41.19 137.59 41.24 137.68 41.3 137.77 41.35 137.85 41.42 137.91 41.5 137.98 41.58 138.03 41.68 138.08 41.77 138.11 41.86 138.13 41.97 138.15 42.07 138.16 42.17 138.16 44.3 138.15 44.41 138.13 44.51 138.11 44.61 138.08 44.71 138.03 44.8 137.98 44.9 137.91 44.97 137.85 45.05 137.77 45.13 137.68 45.18 137.59 45.24 137.5 45.28 137.4 45.32 137.3 45.34 137.2 45.36 137.09 45.36 130.71 45.36 130.61 45.36 130.51 45.34 130.41 45.32 130.31 45.28 130.21 45.24 130.12 45.18 130.04 45.13 129.96 45.05 129.89 44.97 129.83 44.9 129.78 44.8 129.73 44.71 129.7 44.61 129.67 44.51 129.66 44.41 129.65 44.3 129.65 42.17 129.66 42.07 129.67 41.97 129.7 41.86 129.73 41.77 129.78 41.68 129.83 41.58 129.89 41.5 129.96 41.42 130.04 41.35 130.12 41.3 130.21 41.24 130.31 41.19 130.41 41.16 130.51 41.14 130.61 41.12 130.71 41.12 137.09 41.12 137.2 41.12"/><polyline class="cls-1" points="130.75 49.03 130.85 49.04 130.95 49.06 131.05 49.1 131.14 49.15 131.24 49.2 131.32 49.27 131.4 49.33 131.47 49.41 131.53 49.49 131.58 49.58 131.63 49.67 131.66 49.78 131.68 49.88 131.71 49.98 131.71 50.09 131.71 52.21 131.71 52.31 131.68 52.42 131.66 52.52 131.63 52.62 131.58 52.71 131.53 52.8 131.47 52.89 131.4 52.96 131.32 53.03 131.24 53.09 131.14 53.15 131.05 53.19 130.95 53.23 130.85 53.25 130.75 53.27 130.65 53.27 128.51 53.27 128.41 53.27 128.31 53.25 128.21 53.23 128.11 53.19 128.02 53.15 127.92 53.09 127.85 53.03 127.77 52.96 127.69 52.89 127.64 52.8 127.58 52.71 127.54 52.62 127.5 52.52 127.48 52.42 127.46 52.31 127.46 52.21 127.46 50.09 127.46 49.98 127.48 49.88 127.5 49.78 127.54 49.67 127.58 49.58 127.64 49.49 127.69 49.41 127.77 49.33 127.85 49.27 127.92 49.2 128.02 49.15 128.11 49.1 128.21 49.06 128.31 49.04 128.41 49.03 128.51 49.02 130.65 49.02 130.75 49.03"/><polyline class="cls-1" points="123.55 49.03 123.65 49.04 123.75 49.06 123.85 49.1 123.94 49.15 124.04 49.2 124.12 49.27 124.19 49.33 124.27 49.41 124.33 49.49 124.38 49.58 124.43 49.67 124.46 49.78 124.48 49.88 124.5 49.98 124.5 50.09 124.5 52.21 124.5 52.31 124.48 52.42 124.46 52.52 124.43 52.62 124.38 52.71 124.33 52.8 124.27 52.89 124.19 52.96 124.12 53.03 124.04 53.09 123.94 53.15 123.85 53.19 123.75 53.23 123.65 53.25 123.55 53.27 123.45 53.27 121.31 53.27 121.21 53.27 121.11 53.25 121.01 53.23 120.91 53.19 120.82 53.15 120.72 53.09 120.65 53.03 120.57 52.96 120.49 52.89 120.44 52.8 120.38 52.71 120.34 52.62 120.3 52.52 120.28 52.42 120.26 52.31 120.26 52.21 120.26 50.09 120.26 49.98 120.28 49.88 120.3 49.78 120.34 49.67 120.38 49.58 120.44 49.49 120.49 49.41 120.57 49.33 120.65 49.27 120.72 49.2 120.82 49.15 120.91 49.1 121.01 49.06 121.11 49.04 121.21 49.03 121.31 49.02 123.45 49.02 123.55 49.03"/><path class="cls-2" d="M256.19,297.63h0" transform="translate(-191.5 -272)"/><polyline class="cls-1" points="88.56 23.37 88.56 27.9 84.03 27.9 84.03 23.37 88.56 23.37"/><circle class="cls-1" cx="128.82" cy="19.97" r="2.27"/><circle class="cls-1" cx="142.99" cy="19.97" r="2.27"/><path class="cls-2" d="M343,300.47h0" transform="translate(-191.5 -272)"/><circle class="cls-1" cx="122.7" cy="28.47" r="2.27"/><polyline class="cls-1" points="41.86 25.29 42.06 25.32 42.27 25.38 42.46 25.44 42.66 25.53 42.83 25.64 43 25.76 43.15 25.9 43.3 26.06 43.42 26.23 43.53 26.41 43.61 26.59 43.69 26.79 43.73 27 43.76 27.2 43.78 27.41 43.78 31.66 43.76 31.87 43.73 32.07 43.69 32.27 43.61 32.48 43.53 32.66 43.42 32.84 43.3 33.01 43.15 33.16 43 33.3 42.83 33.42 42.66 33.53 42.46 33.62 42.27 33.69 42.06 33.74 41.86 33.78 41.65 33.78 37.4 33.78 37.19 33.78 36.98 33.74 36.78 33.69 36.59 33.62 36.4 33.53 36.22 33.42 36.05 33.3 35.9 33.16 35.76 33.01 35.63 32.84 35.52 32.66 35.43 32.48 35.36 32.27 35.31 32.07 35.28 31.87 35.27 31.66 35.27 27.41 35.28 27.2 35.31 27 35.36 26.79 35.43 26.59 35.52 26.41 35.63 26.23 35.76 26.06 35.9 25.9 36.05 25.76 36.22 25.64 36.4 25.53 36.59 25.44 36.78 25.38 36.98 25.32 37.19 25.29 37.4 25.28 41.65 25.28 41.86 25.29"/><polyline class="cls-1" points="39.34 12.53 39.52 12.56 39.68 12.6 39.85 12.66 40.01 12.73 40.16 12.83 40.29 12.93 40.42 13.04 40.54 13.17 40.64 13.31 40.73 13.46 40.8 13.62 40.86 13.78 40.91 13.95 40.94 14.12 40.94 14.29 40.94 17.84 40.94 18.02 40.91 18.18 40.86 18.36 40.8 18.52 40.73 18.67 40.64 18.82 40.54 18.97 40.42 19.09 40.29 19.21 40.16 19.31 40.01 19.4 39.85 19.48 39.68 19.54 39.52 19.58 39.34 19.6 39.17 19.61 31.37 19.61 31.2 19.6 31.03 19.58 30.86 19.54 30.7 19.48 30.54 19.4 30.39 19.31 30.25 19.21 30.12 19.09 30 18.97 29.9 18.82 29.81 18.67 29.74 18.52 29.68 18.36 29.64 18.18 29.61 18.02 29.6 17.84 29.6 14.29 29.61 14.12 29.64 13.95 29.68 13.78 29.74 13.62 29.81 13.46 29.9 13.31 30 13.17 30.12 13.04 30.25 12.93 30.39 12.83 30.54 12.73 30.7 12.66 30.86 12.6 31.03 12.56 31.2 12.53 31.37 12.52 39.17 12.52 39.34 12.53"/><polyline class="cls-1" points="25.49 11.11 25.63 11.13 25.76 11.17 25.89 11.21 26.02 11.28 26.14 11.35 26.25 11.43 26.36 11.52 26.45 11.62 26.53 11.74 26.6 11.85 26.66 11.98 26.71 12.11 26.74 12.25 26.77 12.39 26.77 12.52 26.77 19.61 26.77 19.75 26.74 19.89 26.71 20.03 26.66 20.16 26.6 20.28 26.53 20.4 26.45 20.51 26.36 20.62 26.25 20.71 26.14 20.79 26.02 20.86 25.89 20.92 25.76 20.97 25.63 21 25.49 21.02 25.35 21.03 22.52 21.03 22.38 21.02 22.24 21 22.11 20.97 21.98 20.92 21.85 20.86 21.73 20.79 21.62 20.71 21.52 20.62 21.42 20.51 21.34 20.4 21.26 20.28 21.21 20.16 21.16 20.03 21.13 19.89 21.11 19.75 21.1 19.61 21.1 12.52 21.11 12.39 21.13 12.25 21.16 12.11 21.21 11.98 21.26 11.85 21.34 11.74 21.42 11.62 21.52 11.52 21.62 11.43 21.73 11.35 21.85 11.28 21.98 11.21 22.11 11.17 22.24 11.13 22.38 11.11 22.52 11.11 25.35 11.11 25.49 11.11"/><polyline class="cls-1" points="16.99 11.82 17.12 11.85 17.26 11.88 17.39 11.93 17.51 11.98 17.64 12.05 17.74 12.13 17.85 12.23 17.95 12.34 18.02 12.44 18.1 12.57 18.15 12.69 18.2 12.82 18.24 12.96 18.25 13.09 18.26 13.24 18.26 18.9 18.25 19.04 18.24 19.18 18.2 19.31 18.15 19.44 18.1 19.57 18.02 19.69 17.95 19.8 17.85 19.9 17.74 20 17.64 20.08 17.51 20.16 17.39 20.21 17.26 20.26 17.12 20.29 16.99 20.31 16.85 20.32 14.01 20.32 13.88 20.31 13.73 20.29 13.6 20.26 13.47 20.21 13.34 20.16 13.22 20.08 13.11 20 13.01 19.9 12.92 19.8 12.83 19.69 12.76 19.57 12.7 19.44 12.65 19.31 12.62 19.18 12.6 19.04 12.6 18.9 12.6 13.24 12.6 13.09 12.62 12.96 12.65 12.82 12.7 12.69 12.76 12.57 12.83 12.44 12.92 12.34 13.01 12.23 13.11 12.13 13.22 12.05 13.34 11.98 13.47 11.93 13.6 11.88 13.73 11.85 13.88 11.82 14.01 11.82 16.85 11.82 16.99 11.82"/><path class="cls-2" d="M290.88,306.72h0" transform="translate(-191.5 -272)"/><polyline class="cls-1" points="101.64 58.58 97.12 58.58 97.12 54.05 101.64 54.05 101.64 58.58"/><path class="cls-3" d="M223.35,315.24h35.18" transform="translate(-191.5 -272)"/><path class="cls-3" d="M258.53,312.83v2.41" transform="translate(-191.5 -272)"/><path class="cls-3" d="M258.53,303.18v9.65" transform="translate(-191.5 -272)"/><path class="cls-3" d="M256.19,300.84l2.34,2.34" transform="translate(-191.5 -272)"/><path class="cls-3" d="M256.19,297.63v3.21" transform="translate(-191.5 -272)"/><path class="cls-3" d="M290.52,329h.7" transform="translate(-191.5 -272)"/><path class="cls-3" d="M305,315.24h4.54" transform="translate(-191.5 -272)"/><path class="cls-3" d="M291.22,329l13.8-13.8" transform="translate(-191.5 -272)"/><path class="cls-3" d="M314.09,315.24h-4.53" transform="translate(-191.5 -272)"/><path class="cls-3" d="M328.82,300.51l-14.73,14.73" transform="translate(-191.5 -272)"/><path class="cls-3" d="M328.82,290.08v10.43" transform="translate(-191.5 -272)"/><path class="cls-3" d="M332,286.86l-3.21,3.22" transform="translate(-191.5 -272)"/><path class="cls-3" d="M360.58,315.24v-9.38" transform="translate(-191.5 -272)"/><path class="cls-3" d="M346.39,286.86H332" transform="translate(-191.5 -272)"/><path class="cls-3" d="M357.16,302.44v-4.81" transform="translate(-191.5 -272)"/><path class="cls-3" d="M357.16,297.63l-10.77-10.77" transform="translate(-191.5 -272)"/><path class="cls-3" d="M360.58,305.86l-3.42-3.42" transform="translate(-191.5 -272)"/><path class="cls-3" d="M219,323.14h43.82" transform="translate(-191.5 -272)"/><path class="cls-3" d="M215.43,317.14l3.6,3.6" transform="translate(-191.5 -272)"/><path class="cls-3" d="M219,320.74v2.4" transform="translate(-191.5 -272)"/><path class="cls-3" d="M219,320.68v.06" transform="translate(-191.5 -272)"/><path class="cls-3" d="M213.59,315.24l5.44,5.44" transform="translate(-191.5 -272)"/><path class="cls-3" d="M207.5,315.24h6.09" transform="translate(-191.5 -272)"/><path class="cls-3" d="M207.5,305.13v10.11" transform="translate(-191.5 -272)"/><path class="cls-3" d="M215.43,297.2l-7.93,7.93" transform="translate(-191.5 -272)"/><path class="cls-3" d="M334.28,300.47h5.5" transform="translate(-191.5 -272)"/><path class="cls-3" d="M339.78,300.47H343" transform="translate(-191.5 -272)"/><path class="cls-3" d="M325.4,309.35l8.88-8.88" transform="translate(-191.5 -272)"/><path class="cls-3" d="M325.4,315.24v-5.89" transform="translate(-191.5 -272)"/><path class="cls-3" d="M334.48,300.26l-.2.21" transform="translate(-191.5 -272)"/><path class="cls-3" d="M334.48,300.26V292" transform="translate(-191.5 -272)"/><path class="cls-3" d="M215.43,297.2v-9.14" transform="translate(-191.5 -272)"/><path class="cls-3" d="M320.31,294.34l-6.12,6.13" transform="translate(-191.5 -272)"/><path class="cls-3" d="M320.31,292v2.37" transform="translate(-191.5 -272)"/><path class="cls-3" d="M278.91,315.24h-4.53" transform="translate(-191.5 -272)"/><path class="cls-3" d="M293.64,315.24H278.91" transform="translate(-191.5 -272)"/><path class="cls-3" d="M296,312.9l-2.34,2.34" transform="translate(-191.5 -272)"/><path class="cls-3" d="M314.19,300.47H303.3" transform="translate(-191.5 -272)"/><path class="cls-3" d="M303.3,300.47,296,307.79" transform="translate(-191.5 -272)"/><path class="cls-3" d="M296,307.79v5.11" transform="translate(-191.5 -272)"/><path class="cls-3" d="M350.93,280.06H329" transform="translate(-191.5 -272)"/><path class="cls-3" d="M376.42,305.55l-25.49-25.49" transform="translate(-191.5 -272)"/><path class="cls-3" d="M320.31,288.76V292" transform="translate(-191.5 -272)"/><path class="cls-3" d="M329,280.06l-8.7,8.7" transform="translate(-191.5 -272)"/><path class="cls-3" d="M376.42,315.24v-9.69" transform="translate(-191.5 -272)"/><path class="cls-3" d="M226.77,288.06h44.06" transform="translate(-191.5 -272)"/><path class="cls-3" d="M277.79,294.23v3.4" transform="translate(-191.5 -272)"/><path class="cls-3" d="M271.63,288.06l6.16,6.17" transform="translate(-191.5 -272)"/><path class="cls-3" d="M270.83,288.06h.8" transform="translate(-191.5 -272)"/><path class="cls-3" d="M281.79,297.63h-4" transform="translate(-191.5 -272)"/><path class="cls-3" d="M290.88,306.72l-9.09-9.09" transform="translate(-191.5 -272)"/><path class="cls-3" d="M372.1,320.68v.06" transform="translate(-191.5 -272)"/><path class="cls-3" d="M368.64,317.22l3.46,3.46" transform="translate(-191.5 -272)"/><path class="cls-3" d="M372.1,320.74v2.4" transform="translate(-191.5 -272)"/><path class="cls-3" d="M368.64,303.44v13.78" transform="translate(-191.5 -272)"/><path class="cls-3" d="M330.62,283.46h18" transform="translate(-191.5 -272)"/><path class="cls-3" d="M325.41,298.48v-9.8" transform="translate(-191.5 -272)"/><path class="cls-3" d="M317.42,306.47l8-8" transform="translate(-191.5 -272)"/><path class="cls-3" d="M291.93,318.64h3.12" transform="translate(-191.5 -272)"/><path class="cls-3" d="M299.38,310l3.5-3.5" transform="translate(-191.5 -272)"/><path class="cls-3" d="M348.66,283.46l20,20" transform="translate(-191.5 -272)"/><path class="cls-3" d="M299.38,314.3V310" transform="translate(-191.5 -272)"/><path class="cls-3" d="M285.48,325.09l6.45-6.45" transform="translate(-191.5 -272)"/><path class="cls-3" d="M325.41,288.68l5.21-5.22" transform="translate(-191.5 -272)"/><path class="cls-3" d="M295.05,318.64l4.33-4.34" transform="translate(-191.5 -272)"/><path class="cls-3" d="M287.41,333.42l-1.93-1.93" transform="translate(-191.5 -272)"/><path class="cls-3" d="M302.88,306.47h14.54" transform="translate(-191.5 -272)"/><path class="cls-3" d="M285.48,331.49v-6.4" transform="translate(-191.5 -272)"/><path class="cls-3" d="M313.88,323.14h-8.2" transform="translate(-191.5 -272)"/><path class="cls-3" d="M295.41,333.42h-8" transform="translate(-191.5 -272)"/><path class="cls-3" d="M305.68,323.14l-10.27,10.28" transform="translate(-191.5 -272)"/><path class="cls-3" d="M279.49,276.66l-8.66,8.66" transform="translate(-191.5 -272)"/><path class="cls-3" d="M353.2,276.66H279.49" transform="translate(-191.5 -272)"/><path class="cls-3" d="M379.84,300.47H377" transform="translate(-191.5 -272)"/><path class="cls-3" d="M386.64,307.27l-6.8-6.8" transform="translate(-191.5 -272)"/><path class="cls-3" d="M386.64,317.16v-9.89" transform="translate(-191.5 -272)"/><path class="cls-3" d="M270.83,285.32v2.74" transform="translate(-191.5 -272)"/><path class="cls-3" d="M377,300.47,353.2,276.66" transform="translate(-191.5 -272)"/><path class="cls-3" d="M380.65,323.14l6-6" transform="translate(-191.5 -272)"/><path class="cls-3" d="M372.1,323.14h8.55" transform="translate(-191.5 -272)"/><path class="cls-3" d="M211.83,326.26l4.21,4.22" transform="translate(-191.5 -272)"/><path class="cls-3" d="M211.83,323.14v3.12" transform="translate(-191.5 -272)"/><path class="cls-3" d="M270.05,326.26v-3.12" transform="translate(-191.5 -272)"/><path class="cls-3" d="M265.84,330.48l4.21-4.22" transform="translate(-191.5 -272)"/><path class="cls-3" d="M216,330.48h49.8" transform="translate(-191.5 -272)"/><path class="cls-3" d="M305.35,329.4H320" transform="translate(-191.5 -272)"/><path class="cls-3" d="M279.3,330.12l7,7" transform="translate(-191.5 -272)"/><path class="cls-3" d="M286.29,337.1h11.35" transform="translate(-191.5 -272)"/><path class="cls-3" d="M273.9,330.12h5.4" transform="translate(-191.5 -272)"/><path class="cls-3" d="M297.64,337.1l7.71-7.7" transform="translate(-191.5 -272)"/><path class="cls-3" d="M270.05,326.26l3.85,3.86" transform="translate(-191.5 -272)"/><path class="cls-3" d="M198.42,306.14l8.51-9.44" transform="translate(-191.5 -272)"/><path class="cls-3" d="M198.42,317.48V306.14" transform="translate(-191.5 -272)"/><path class="cls-3" d="M203.73,323.14l-5.31-5.66" transform="translate(-191.5 -272)"/><path class="cls-3" d="M211.83,323.14h-8.1" transform="translate(-191.5 -272)"/><path class="cls-3" d="M321.08,328.36v-5.22" transform="translate(-191.5 -272)"/><path class="cls-3" d="M320,329.4l1-1" transform="translate(-191.5 -272)"/><path class="cls-3" d="M324.69,323.14h-3.61" transform="translate(-191.5 -272)"/><path class="cls-3" d="M330.58,329l-5.89-5.9" transform="translate(-191.5 -272)"/><path class="cls-3" d="M359,329H330.58" transform="translate(-191.5 -272)"/><path class="cls-3" d="M364.9,323.14,359,329" transform="translate(-191.5 -272)"/><path class="cls-3" d="M206.93,296.7v-8.64" transform="translate(-191.5 -272)"/><circle class="cls-4" cx="62.26" cy="38.45" r="1.13"/><circle class="cls-4" cx="87.66" cy="38.45" r="1.13"/><circle class="cls-4" cx="62.26" cy="63.85" r="1.13"/><circle class="cls-4" cx="87.66" cy="63.85" r="1.13"/><circle class="cls-4" cx="71.36" cy="51.15" r="1.13"/><circle class="cls-4" cx="78.56" cy="51.15" r="1.13"/><circle class="cls-4" cx="82.88" cy="43.24" r="1.13"/><circle class="cls-4" cx="67.04" cy="43.24" r="1.13"/><circle class="cls-4" cx="169.09" cy="43.24" r="1.13"/><circle class="cls-4" cx="184.93" cy="43.24" r="1.13"/><circle class="cls-4" cx="180.61" cy="51.15" r="1.13"/><circle class="cls-4" cx="173.41" cy="51.15" r="1.13"/><circle class="cls-4" cx="189.71" cy="63.85" r="1.13"/><circle class="cls-4" cx="164.31" cy="63.85" r="1.13"/><circle class="cls-4" cx="189.71" cy="38.45" r="1.13"/><circle class="cls-4" cx="164.31" cy="38.45" r="1.13"/><circle class="cls-4" cx="16.01" cy="43.24" r="1.13"/><circle class="cls-4" cx="31.86" cy="43.24" r="1.13"/><circle class="cls-4" cx="27.54" cy="51.15" r="1.13"/><circle class="cls-4" cx="20.34" cy="51.15" r="1.13"/><circle class="cls-4" cx="36.64" cy="63.85" r="1.13"/><circle class="cls-4" cx="11.24" cy="63.85" r="1.13"/><circle class="cls-4" cx="36.64" cy="38.45" r="1.13"/><circle class="cls-4" cx="11.24" cy="38.45" r="1.13"/><circle class="cls-4" cx="118.06" cy="43.24" r="1.13"/><circle class="cls-4" cx="133.91" cy="43.24" r="1.13"/><circle class="cls-4" cx="129.58" cy="51.15" r="1.13"/><circle class="cls-4" cx="122.38" cy="51.15" r="1.13"/><circle class="cls-4" cx="138.68" cy="63.85" r="1.13"/><circle class="cls-4" cx="113.29" cy="63.85" r="1.13"/><circle class="cls-4" cx="138.68" cy="38.45" r="1.13"/><circle class="cls-4" cx="113.29" cy="38.45" r="1.13"/><circle class="cls-4" cx="64.7" cy="25.64" r="1.13"/><circle class="cls-4" cx="86.3" cy="25.64" r="1.13"/><circle class="cls-4" cx="128.82" cy="19.97" r="1.13"/><circle class="cls-4" cx="142.99" cy="19.97" r="1.13"/><circle class="cls-4" cx="100.47" cy="14.3" r="4.54"/><circle class="cls-4" cx="151.5" cy="28.47" r="1.13"/><circle class="cls-4" cx="122.7" cy="28.47" r="1.13"/><circle class="cls-4" cx="31.02" cy="22.8" r="1.2"/><circle class="cls-4" cx="11.18" cy="22.8" r="1.2"/><circle class="cls-4" cx="39.53" cy="29.54" r="1.56"/><circle class="cls-4" cx="35.28" cy="16.07" r="1.56"/><circle class="cls-4" cx="23.94" cy="16.07" r="1.56"/><circle class="cls-4" cx="15.43" cy="16.07" r="1.56"/><circle class="cls-4" cx="99.38" cy="34.72" r="1.13"/><circle class="cls-4" cx="99.38" cy="56.32" r="1.13"/><polyline class="cls-1" points="72.52 49.03 72.63 49.04 72.73 49.06 72.83 49.1 72.92 49.15 73.01 49.2 73.1 49.27 73.17 49.33 73.24 49.41 73.31 49.49 73.36 49.58 73.4 49.67 73.44 49.78 73.46 49.88 73.48 49.98 73.49 50.09 73.49 52.21 73.48 52.31 73.46 52.42 73.44 52.52 73.4 52.62 73.36 52.71 73.31 52.8 73.24 52.89 73.17 52.96 73.1 53.03 73.01 53.09 72.92 53.15 72.83 53.19 72.73 53.23 72.63 53.25 72.52 53.27 72.42 53.27 70.3 53.27 70.19 53.27 70.09 53.25 69.99 53.23 69.89 53.19 69.79 53.15 69.71 53.09 69.62 53.03 69.54 52.96 69.47 52.89 69.41 52.8 69.36 52.71 69.31 52.62 69.27 52.52 69.25 52.42 69.24 52.31 69.23 52.21 69.23 50.09 69.24 49.98 69.25 49.88 69.27 49.78 69.31 49.67 69.36 49.58 69.41 49.49 69.47 49.41 69.54 49.33 69.62 49.27 69.71 49.2 69.79 49.15 69.89 49.1 69.99 49.06 70.09 49.04 70.19 49.03 70.3 49.02 72.42 49.02 72.52 49.03"/><polyline class="cls-1" points="79.72 49.03 79.83 49.04 79.93 49.06 80.03 49.1 80.12 49.15 80.21 49.2 80.3 49.27 80.37 49.33 80.44 49.41 80.51 49.49 80.56 49.58 80.6 49.67 80.64 49.78 80.66 49.88 80.68 49.98 80.69 50.09 80.69 52.21 80.68 52.31 80.66 52.42 80.64 52.52 80.6 52.62 80.56 52.71 80.51 52.8 80.44 52.89 80.37 52.96 80.3 53.03 80.21 53.09 80.12 53.15 80.03 53.19 79.93 53.23 79.83 53.25 79.72 53.27 79.62 53.27 77.5 53.27 77.39 53.27 77.29 53.25 77.19 53.23 77.09 53.19 76.99 53.15 76.91 53.09 76.82 53.03 76.74 52.96 76.67 52.89 76.61 52.8 76.56 52.71 76.51 52.62 76.47 52.52 76.45 52.42 76.44 52.31 76.43 52.21 76.43 50.09 76.44 49.98 76.45 49.88 76.47 49.78 76.51 49.67 76.56 49.58 76.61 49.49 76.67 49.41 76.74 49.33 76.82 49.27 76.91 49.2 76.99 49.15 77.09 49.1 77.19 49.06 77.29 49.04 77.39 49.03 77.5 49.02 79.62 49.02 79.72 49.03"/><polyline class="cls-1" points="86.17 41.12 86.27 41.14 86.38 41.16 86.47 41.19 86.57 41.24 86.66 41.3 86.74 41.35 86.82 41.42 86.89 41.5 86.95 41.58 87.01 41.68 87.05 41.77 87.09 41.86 87.11 41.97 87.13 42.07 87.13 42.17 87.13 44.3 87.13 44.41 87.11 44.51 87.09 44.61 87.05 44.71 87.01 44.8 86.95 44.9 86.89 44.97 86.82 45.05 86.74 45.13 86.66 45.18 86.57 45.24 86.47 45.28 86.38 45.32 86.27 45.34 86.17 45.36 86.07 45.36 79.69 45.36 79.58 45.36 79.48 45.34 79.38 45.32 79.28 45.28 79.19 45.24 79.1 45.18 79.02 45.13 78.94 45.05 78.87 44.97 78.81 44.9 78.76 44.8 78.71 44.71 78.68 44.61 78.65 44.51 78.63 44.41 78.63 44.3 78.63 42.17 78.63 42.07 78.65 41.97 78.68 41.86 78.71 41.77 78.76 41.68 78.81 41.58 78.87 41.5 78.94 41.42 79.02 41.35 79.1 41.3 79.19 41.24 79.28 41.19 79.38 41.16 79.48 41.14 79.58 41.12 79.69 41.12 86.07 41.12 86.17 41.12"/><polyline class="cls-1" points="70.33 41.12 70.43 41.14 70.53 41.16 70.63 41.19 70.72 41.24 70.81 41.3 70.9 41.35 70.97 41.42 71.05 41.5 71.11 41.58 71.16 41.68 71.2 41.77 71.24 41.86 71.27 41.97 71.28 42.07 71.29 42.17 71.29 44.3 71.28 44.41 71.27 44.51 71.24 44.61 71.2 44.71 71.16 44.8 71.11 44.9 71.05 44.97 70.97 45.05 70.9 45.13 70.81 45.18 70.72 45.24 70.63 45.28 70.53 45.32 70.43 45.34 70.33 45.36 70.22 45.36 63.84 45.36 63.74 45.36 63.64 45.34 63.53 45.32 63.44 45.28 63.34 45.24 63.26 45.18 63.17 45.13 63.1 45.05 63.02 44.97 62.96 44.9 62.91 44.8 62.87 44.71 62.83 44.61 62.8 44.51 62.79 44.41 62.78 44.3 62.78 42.17 62.79 42.07 62.8 41.97 62.83 41.86 62.87 41.77 62.91 41.68 62.96 41.58 63.02 41.5 63.1 41.42 63.17 41.35 63.26 41.3 63.34 41.24 63.44 41.19 63.53 41.16 63.64 41.14 63.74 41.12 63.84 41.12 70.22 41.12 70.33 41.12"/><polyline class="cls-1" points="172.38 41.12 172.48 41.14 172.58 41.16 172.68 41.19 172.77 41.24 172.86 41.3 172.95 41.35 173.03 41.42 173.09 41.5 173.16 41.58 173.21 41.68 173.26 41.77 173.28 41.86 173.31 41.97 173.33 42.07 173.34 42.17 173.34 44.3 173.33 44.41 173.31 44.51 173.28 44.61 173.26 44.71 173.21 44.8 173.16 44.9 173.09 44.97 173.03 45.05 172.95 45.13 172.86 45.18 172.77 45.24 172.68 45.28 172.58 45.32 172.48 45.34 172.38 45.36 172.27 45.36 165.89 45.36 165.79 45.36 165.68 45.34 165.58 45.32 165.49 45.28 165.39 45.24 165.3 45.18 165.22 45.13 165.14 45.05 165.07 44.97 165.01 44.9 164.95 44.8 164.91 44.71 164.88 44.61 164.85 44.51 164.83 44.41 164.83 44.3 164.83 42.17 164.83 42.07 164.85 41.97 164.88 41.86 164.91 41.77 164.95 41.68 165.01 41.58 165.07 41.5 165.14 41.42 165.22 41.35 165.3 41.3 165.39 41.24 165.49 41.19 165.58 41.16 165.68 41.14 165.79 41.12 165.89 41.12 172.27 41.12 172.38 41.12"/><polyline class="cls-1" points="188.22 41.12 188.33 41.14 188.43 41.16 188.52 41.19 188.62 41.24 188.71 41.3 188.79 41.35 188.87 41.42 188.94 41.5 189 41.58 189.05 41.68 189.1 41.77 189.13 41.86 189.16 41.97 189.18 42.07 189.18 42.17 189.18 44.3 189.18 44.41 189.16 44.51 189.13 44.61 189.1 44.71 189.05 44.8 189 44.9 188.94 44.97 188.87 45.05 188.79 45.13 188.71 45.18 188.62 45.24 188.52 45.28 188.43 45.32 188.33 45.34 188.22 45.36 188.12 45.36 181.74 45.36 181.64 45.36 181.53 45.34 181.43 45.32 181.33 45.28 181.23 45.24 181.15 45.18 181.06 45.13 180.99 45.05 180.92 44.97 180.85 44.9 180.8 44.8 180.76 44.71 180.72 44.61 180.69 44.51 180.68 44.41 180.67 44.3 180.67 42.17 180.68 42.07 180.69 41.97 180.72 41.86 180.76 41.77 180.8 41.68 180.85 41.58 180.92 41.5 180.99 41.42 181.06 41.35 181.15 41.3 181.23 41.24 181.33 41.19 181.43 41.16 181.53 41.14 181.64 41.12 181.74 41.12 188.12 41.12 188.22 41.12"/><polyline class="cls-1" points="181.77 49.03 181.87 49.04 181.97 49.06 182.08 49.1 182.17 49.15 182.26 49.2 182.34 49.27 182.42 49.33 182.49 49.41 182.55 49.49 182.6 49.58 182.65 49.67 182.69 49.78 182.71 49.88 182.72 49.98 182.73 50.09 182.73 52.21 182.72 52.31 182.71 52.42 182.69 52.52 182.65 52.62 182.6 52.71 182.55 52.8 182.49 52.89 182.42 52.96 182.34 53.03 182.26 53.09 182.17 53.15 182.08 53.19 181.97 53.23 181.87 53.25 181.77 53.27 181.67 53.27 179.54 53.27 179.43 53.27 179.33 53.25 179.23 53.23 179.13 53.19 179.04 53.15 178.95 53.09 178.87 53.03 178.79 52.96 178.72 52.89 178.66 52.8 178.61 52.71 178.56 52.62 178.53 52.52 178.5 52.42 178.48 52.31 178.48 52.21 178.48 50.09 178.48 49.98 178.5 49.88 178.53 49.78 178.56 49.67 178.61 49.58 178.66 49.49 178.72 49.41 178.79 49.33 178.87 49.27 178.95 49.2 179.04 49.15 179.13 49.1 179.23 49.06 179.33 49.04 179.43 49.03 179.54 49.02 181.67 49.02 181.77 49.03"/><polyline class="cls-1" points="174.57 49.03 174.67 49.04 174.78 49.06 174.88 49.1 174.97 49.15 175.06 49.2 175.14 49.27 175.22 49.33 175.29 49.41 175.35 49.49 175.4 49.58 175.45 49.67 175.49 49.78 175.51 49.88 175.52 49.98 175.53 50.09 175.53 52.21 175.52 52.31 175.51 52.42 175.49 52.52 175.45 52.62 175.4 52.71 175.35 52.8 175.29 52.89 175.22 52.96 175.14 53.03 175.06 53.09 174.97 53.15 174.88 53.19 174.78 53.23 174.67 53.25 174.57 53.27 174.47 53.27 172.34 53.27 172.23 53.27 172.13 53.25 172.03 53.23 171.93 53.19 171.84 53.15 171.75 53.09 171.66 53.03 171.59 52.96 171.52 52.89 171.46 52.8 171.41 52.71 171.36 52.62 171.33 52.52 171.3 52.42 171.28 52.31 171.28 52.21 171.28 50.09 171.28 49.98 171.3 49.88 171.33 49.78 171.36 49.67 171.41 49.58 171.46 49.49 171.52 49.41 171.59 49.33 171.66 49.27 171.75 49.2 171.84 49.15 171.93 49.1 172.03 49.06 172.13 49.04 172.23 49.03 172.34 49.02 174.47 49.02 174.57 49.03"/><polyline class="cls-1" points="19.31 41.12 19.41 41.14 19.51 41.16 19.61 41.19 19.7 41.24 19.79 41.3 19.88 41.35 19.95 41.42 20.02 41.5 20.08 41.58 20.13 41.68 20.18 41.77 20.22 41.86 20.24 41.97 20.26 42.07 20.26 42.17 20.26 44.3 20.26 44.41 20.24 44.51 20.22 44.61 20.18 44.71 20.13 44.8 20.08 44.9 20.02 44.97 19.95 45.05 19.88 45.13 19.79 45.18 19.7 45.24 19.61 45.28 19.51 45.32 19.41 45.34 19.31 45.36 19.2 45.36 12.82 45.36 12.72 45.36 12.62 45.34 12.52 45.32 12.41 45.28 12.32 45.24 12.23 45.18 12.15 45.13 12.07 45.05 12 44.97 11.94 44.9 11.88 44.8 11.84 44.71 11.8 44.61 11.78 44.51 11.77 44.41 11.76 44.3 11.76 42.17 11.77 42.07 11.78 41.97 11.8 41.86 11.84 41.77 11.88 41.68 11.94 41.58 12 41.5 12.07 41.42 12.15 41.35 12.23 41.3 12.32 41.24 12.41 41.19 12.52 41.16 12.62 41.14 12.72 41.12 12.82 41.12 19.2 41.12 19.31 41.12"/><polyline class="cls-1" points="35.15 41.12 35.25 41.14 35.35 41.16 35.45 41.19 35.55 41.24 35.63 41.3 35.72 41.35 35.79 41.42 35.87 41.5 35.93 41.58 35.98 41.68 36.02 41.77 36.06 41.86 36.09 41.97 36.1 42.07 36.11 42.17 36.11 44.3 36.1 44.41 36.09 44.51 36.06 44.61 36.02 44.71 35.98 44.8 35.93 44.9 35.87 44.97 35.79 45.05 35.72 45.13 35.63 45.18 35.55 45.24 35.45 45.28 35.35 45.32 35.25 45.34 35.15 45.36 35.05 45.36 28.67 45.36 28.57 45.36 28.46 45.34 28.36 45.32 28.26 45.28 28.17 45.24 28.07 45.18 28 45.13 27.92 45.05 27.84 44.97 27.78 44.9 27.73 44.8 27.69 44.71 27.65 44.61 27.62 44.51 27.61 44.41 27.61 44.3 27.61 42.17 27.61 42.07 27.62 41.97 27.65 41.86 27.69 41.77 27.73 41.68 27.78 41.58 27.84 41.5 27.92 41.42 28 41.35 28.07 41.3 28.17 41.24 28.26 41.19 28.36 41.16 28.46 41.14 28.57 41.12 28.67 41.12 35.05 41.12 35.15 41.12"/><polyline class="cls-1" points="28.7 49.03 28.8 49.04 28.9 49.06 29 49.1 29.1 49.15 29.18 49.2 29.27 49.27 29.35 49.33 29.42 49.41 29.48 49.49 29.54 49.58 29.58 49.67 29.62 49.78 29.64 49.88 29.65 49.98 29.66 50.09 29.66 52.21 29.65 52.31 29.64 52.42 29.62 52.52 29.58 52.62 29.54 52.71 29.48 52.8 29.42 52.89 29.35 52.96 29.27 53.03 29.18 53.09 29.1 53.15 29 53.19 28.9 53.23 28.8 53.25 28.7 53.27 28.59 53.27 26.47 53.27 26.37 53.27 26.26 53.25 26.16 53.23 26.07 53.19 25.97 53.15 25.88 53.09 25.79 53.03 25.72 52.96 25.65 52.89 25.58 52.8 25.53 52.71 25.49 52.62 25.45 52.52 25.43 52.42 25.41 52.31 25.4 52.21 25.4 50.09 25.41 49.98 25.43 49.88 25.45 49.78 25.49 49.67 25.53 49.58 25.58 49.49 25.65 49.41 25.72 49.33 25.79 49.27 25.88 49.2 25.97 49.15 26.07 49.1 26.16 49.06 26.26 49.04 26.37 49.03 26.47 49.02 28.59 49.02 28.7 49.03"/><polyline class="cls-1" points="21.5 49.03 21.6 49.04 21.7 49.06 21.8 49.1 21.9 49.15 21.98 49.2 22.07 49.27 22.15 49.33 22.22 49.41 22.28 49.49 22.34 49.58 22.38 49.67 22.42 49.78 22.44 49.88 22.45 49.98 22.46 50.09 22.46 52.21 22.45 52.31 22.44 52.42 22.42 52.52 22.38 52.62 22.34 52.71 22.28 52.8 22.22 52.89 22.15 52.96 22.07 53.03 21.98 53.09 21.9 53.15 21.8 53.19 21.7 53.23 21.6 53.25 21.5 53.27 21.39 53.27 19.27 53.27 19.17 53.27 19.06 53.25 18.96 53.23 18.87 53.19 18.77 53.15 18.68 53.09 18.59 53.03 18.52 52.96 18.45 52.89 18.38 52.8 18.33 52.71 18.29 52.62 18.25 52.52 18.23 52.42 18.21 52.31 18.2 52.21 18.2 50.09 18.21 49.98 18.23 49.88 18.25 49.78 18.29 49.67 18.33 49.58 18.38 49.49 18.45 49.41 18.52 49.33 18.59 49.27 18.68 49.2 18.77 49.15 18.87 49.1 18.96 49.06 19.06 49.04 19.17 49.03 19.27 49.02 21.39 49.02 21.5 49.03"/><polyline class="cls-1" points="121.35 41.12 121.45 41.14 121.55 41.16 121.65 41.19 121.75 41.24 121.84 41.3 121.92 41.35 122 41.42 122.07 41.5 122.13 41.58 122.19 41.68 122.23 41.77 122.27 41.86 122.29 41.97 122.3 42.07 122.31 42.17 122.31 44.3 122.3 44.41 122.29 44.51 122.27 44.61 122.23 44.71 122.19 44.8 122.13 44.9 122.07 44.97 122 45.05 121.92 45.13 121.84 45.18 121.75 45.24 121.65 45.28 121.55 45.32 121.45 45.34 121.35 45.36 121.25 45.36 114.87 45.36 114.76 45.36 114.66 45.34 114.56 45.32 114.46 45.28 114.37 45.24 114.28 45.18 114.19 45.13 114.11 45.05 114.05 44.97 113.99 44.9 113.93 44.8 113.89 44.71 113.85 44.61 113.83 44.51 113.81 44.41 113.81 44.3 113.81 42.17 113.81 42.07 113.83 41.97 113.85 41.86 113.89 41.77 113.93 41.68 113.99 41.58 114.05 41.5 114.11 41.42 114.19 41.35 114.28 41.3 114.37 41.24 114.46 41.19 114.56 41.16 114.66 41.14 114.76 41.12 114.87 41.12 121.25 41.12 121.35 41.12"/><polyline class="cls-1" points="137.2 41.12 137.3 41.14 137.4 41.16 137.5 41.19 137.59 41.24 137.68 41.3 137.77 41.35 137.85 41.42 137.91 41.5 137.98 41.58 138.03 41.68 138.08 41.77 138.11 41.86 138.13 41.97 138.15 42.07 138.16 42.17 138.16 44.3 138.15 44.41 138.13 44.51 138.11 44.61 138.08 44.71 138.03 44.8 137.98 44.9 137.91 44.97 137.85 45.05 137.77 45.13 137.68 45.18 137.59 45.24 137.5 45.28 137.4 45.32 137.3 45.34 137.2 45.36 137.09 45.36 130.71 45.36 130.61 45.36 130.51 45.34 130.41 45.32 130.31 45.28 130.21 45.24 130.12 45.18 130.04 45.13 129.96 45.05 129.89 44.97 129.83 44.9 129.78 44.8 129.73 44.71 129.7 44.61 129.67 44.51 129.66 44.41 129.65 44.3 129.65 42.17 129.66 42.07 129.67 41.97 129.7 41.86 129.73 41.77 129.78 41.68 129.83 41.58 129.89 41.5 129.96 41.42 130.04 41.35 130.12 41.3 130.21 41.24 130.31 41.19 130.41 41.16 130.51 41.14 130.61 41.12 130.71 41.12 137.09 41.12 137.2 41.12"/><polyline class="cls-1" points="130.75 49.03 130.85 49.04 130.95 49.06 131.05 49.1 131.14 49.15 131.24 49.2 131.32 49.27 131.4 49.33 131.47 49.41 131.53 49.49 131.58 49.58 131.63 49.67 131.66 49.78 131.68 49.88 131.71 49.98 131.71 50.09 131.71 52.21 131.71 52.31 131.68 52.42 131.66 52.52 131.63 52.62 131.58 52.71 131.53 52.8 131.47 52.89 131.4 52.96 131.32 53.03 131.24 53.09 131.14 53.15 131.05 53.19 130.95 53.23 130.85 53.25 130.75 53.27 130.65 53.27 128.51 53.27 128.41 53.27 128.31 53.25 128.21 53.23 128.11 53.19 128.02 53.15 127.92 53.09 127.85 53.03 127.77 52.96 127.69 52.89 127.64 52.8 127.58 52.71 127.54 52.62 127.5 52.52 127.48 52.42 127.46 52.31 127.46 52.21 127.46 50.09 127.46 49.98 127.48 49.88 127.5 49.78 127.54 49.67 127.58 49.58 127.64 49.49 127.69 49.41 127.77 49.33 127.85 49.27 127.92 49.2 128.02 49.15 128.11 49.1 128.21 49.06 128.31 49.04 128.41 49.03 128.51 49.02 130.65 49.02 130.75 49.03"/><polyline class="cls-1" points="123.55 49.03 123.65 49.04 123.75 49.06 123.85 49.1 123.94 49.15 124.04 49.2 124.12 49.27 124.19 49.33 124.27 49.41 124.33 49.49 124.38 49.58 124.43 49.67 124.46 49.78 124.48 49.88 124.5 49.98 124.5 50.09 124.5 52.21 124.5 52.31 124.48 52.42 124.46 52.52 124.43 52.62 124.38 52.71 124.33 52.8 124.27 52.89 124.19 52.96 124.12 53.03 124.04 53.09 123.94 53.15 123.85 53.19 123.75 53.23 123.65 53.25 123.55 53.27 123.45 53.27 121.31 53.27 121.21 53.27 121.11 53.25 121.01 53.23 120.91 53.19 120.82 53.15 120.72 53.09 120.65 53.03 120.57 52.96 120.49 52.89 120.44 52.8 120.38 52.71 120.34 52.62 120.3 52.52 120.28 52.42 120.26 52.31 120.26 52.21 120.26 50.09 120.26 49.98 120.28 49.88 120.3 49.78 120.34 49.67 120.38 49.58 120.44 49.49 120.49 49.41 120.57 49.33 120.65 49.27 120.72 49.2 120.82 49.15 120.91 49.1 121.01 49.06 121.11 49.04 121.21 49.03 121.31 49.02 123.45 49.02 123.55 49.03"/><path class="cls-2" d="M256.19,297.63h0" transform="translate(-191.5 -272)"/><polyline class="cls-1" points="88.56 23.37 88.56 27.9 84.03 27.9 84.03 23.37 88.56 23.37"/><circle class="cls-1" cx="128.82" cy="19.97" r="2.27"/><circle class="cls-1" cx="142.99" cy="19.97" r="2.27"/><path class="cls-2" d="M343,300.47h0" transform="translate(-191.5 -272)"/><circle class="cls-1" cx="122.7" cy="28.47" r="2.27"/><polyline class="cls-1" points="41.86 25.29 42.06 25.32 42.27 25.38 42.46 25.44 42.66 25.53 42.83 25.64 43 25.76 43.15 25.9 43.3 26.06 43.42 26.23 43.53 26.41 43.61 26.59 43.69 26.79 43.73 27 43.76 27.2 43.78 27.41 43.78 31.66 43.76 31.87 43.73 32.07 43.69 32.27 43.61 32.48 43.53 32.66 43.42 32.84 43.3 33.01 43.15 33.16 43 33.3 42.83 33.42 42.66 33.53 42.46 33.62 42.27 33.69 42.06 33.74 41.86 33.78 41.65 33.78 37.4 33.78 37.19 33.78 36.98 33.74 36.78 33.69 36.59 33.62 36.4 33.53 36.22 33.42 36.05 33.3 35.9 33.16 35.76 33.01 35.63 32.84 35.52 32.66 35.43 32.48 35.36 32.27 35.31 32.07 35.28 31.87 35.27 31.66 35.27 27.41 35.28 27.2 35.31 27 35.36 26.79 35.43 26.59 35.52 26.41 35.63 26.23 35.76 26.06 35.9 25.9 36.05 25.76 36.22 25.64 36.4 25.53 36.59 25.44 36.78 25.38 36.98 25.32 37.19 25.29 37.4 25.28 41.65 25.28 41.86 25.29"/><polyline class="cls-1" points="39.34 12.53 39.52 12.56 39.68 12.6 39.85 12.66 40.01 12.73 40.16 12.83 40.29 12.93 40.42 13.04 40.54 13.17 40.64 13.31 40.73 13.46 40.8 13.62 40.86 13.78 40.91 13.95 40.94 14.12 40.94 14.29 40.94 17.84 40.94 18.02 40.91 18.18 40.86 18.36 40.8 18.52 40.73 18.67 40.64 18.82 40.54 18.97 40.42 19.09 40.29 19.21 40.16 19.31 40.01 19.4 39.85 19.48 39.68 19.54 39.52 19.58 39.34 19.6 39.17 19.61 31.37 19.61 31.2 19.6 31.03 19.58 30.86 19.54 30.7 19.48 30.54 19.4 30.39 19.31 30.25 19.21 30.12 19.09 30 18.97 29.9 18.82 29.81 18.67 29.74 18.52 29.68 18.36 29.64 18.18 29.61 18.02 29.6 17.84 29.6 14.29 29.61 14.12 29.64 13.95 29.68 13.78 29.74 13.62 29.81 13.46 29.9 13.31 30 13.17 30.12 13.04 30.25 12.93 30.39 12.83 30.54 12.73 30.7 12.66 30.86 12.6 31.03 12.56 31.2 12.53 31.37 12.52 39.17 12.52 39.34 12.53"/><polyline class="cls-1" points="25.49 11.11 25.63 11.13 25.76 11.17 25.89 11.21 26.02 11.28 26.14 11.35 26.25 11.43 26.36 11.52 26.45 11.62 26.53 11.74 26.6 11.85 26.66 11.98 26.71 12.11 26.74 12.25 26.77 12.39 26.77 12.52 26.77 19.61 26.77 19.75 26.74 19.89 26.71 20.03 26.66 20.16 26.6 20.28 26.53 20.4 26.45 20.51 26.36 20.62 26.25 20.71 26.14 20.79 26.02 20.86 25.89 20.92 25.76 20.97 25.63 21 25.49 21.02 25.35 21.03 22.52 21.03 22.38 21.02 22.24 21 22.11 20.97 21.98 20.92 21.85 20.86 21.73 20.79 21.62 20.71 21.52 20.62 21.42 20.51 21.34 20.4 21.26 20.28 21.21 20.16 21.16 20.03 21.13 19.89 21.11 19.75 21.1 19.61 21.1 12.52 21.11 12.39 21.13 12.25 21.16 12.11 21.21 11.98 21.26 11.85 21.34 11.74 21.42 11.62 21.52 11.52 21.62 11.43 21.73 11.35 21.85 11.28 21.98 11.21 22.11 11.17 22.24 11.13 22.38 11.11 22.52 11.11 25.35 11.11 25.49 11.11"/><polyline class="cls-1" points="16.99 11.82 17.12 11.85 17.26 11.88 17.39 11.93 17.51 11.98 17.64 12.05 17.74 12.13 17.85 12.23 17.95 12.34 18.02 12.44 18.1 12.57 18.15 12.69 18.2 12.82 18.24 12.96 18.25 13.09 18.26 13.24 18.26 18.9 18.25 19.04 18.24 19.18 18.2 19.31 18.15 19.44 18.1 19.57 18.02 19.69 17.95 19.8 17.85 19.9 17.74 20 17.64 20.08 17.51 20.16 17.39 20.21 17.26 20.26 17.12 20.29 16.99 20.31 16.85 20.32 14.01 20.32 13.88 20.31 13.73 20.29 13.6 20.26 13.47 20.21 13.34 20.16 13.22 20.08 13.11 20 13.01 19.9 12.92 19.8 12.83 19.69 12.76 19.57 12.7 19.44 12.65 19.31 12.62 19.18 12.6 19.04 12.6 18.9 12.6 13.24 12.6 13.09 12.62 12.96 12.65 12.82 12.7 12.69 12.76 12.57 12.83 12.44 12.92 12.34 13.01 12.23 13.11 12.13 13.22 12.05 13.34 11.98 13.47 11.93 13.6 11.88 13.73 11.85 13.88 11.82 14.01 11.82 16.85 11.82 16.99 11.82"/><path class="cls-2" d="M290.88,306.72h0" transform="translate(-191.5 -272)"/><polyline class="cls-1" points="101.64 58.58 97.12 58.58 97.12 54.05 101.64 54.05 101.64 58.58"/><path class="cls-5" d="M215.43,282.82v5.24" transform="translate(-191.5 -272)"/><path class="cls-5" d="M220.46,277.79l-5,5" transform="translate(-191.5 -272)"/><path class="cls-5" d="M235.27,277.79H220.46" transform="translate(-191.5 -272)"/><path class="cls-5" d="M243.78,286.29l-8.51-8.5" transform="translate(-191.5 -272)"/><path class="cls-5" d="M249.44,303.3l-5.66-5.67" transform="translate(-191.5 -272)"/><path class="cls-5" d="M243.78,297.63V286.29" transform="translate(-191.5 -272)"/><path class="cls-5" d="M286.29,300.47l-2.83,2.83" transform="translate(-191.5 -272)"/><path class="cls-5" d="M297.63,300.47H286.29" transform="translate(-191.5 -272)"/><path class="cls-5" d="M314.64,283.46l-17,17" transform="translate(-191.5 -272)"/><path class="cls-5" d="M283.46,303.3h-34" transform="translate(-191.5 -272)"/><path class="cls-5" d="M326,283.46H314.64" transform="translate(-191.5 -272)"/><path class="cls-5" d="M334.48,292l-8.5-8.51" transform="translate(-191.5 -272)"/><circle class="cls-4" cx="62.26" cy="38.45" r="1.13"/><circle class="cls-4" cx="87.66" cy="38.45" r="1.13"/><circle class="cls-4" cx="62.26" cy="63.85" r="1.13"/><circle class="cls-4" cx="87.66" cy="63.85" r="1.13"/><circle class="cls-4" cx="71.36" cy="51.15" r="1.13"/><circle class="cls-4" cx="78.56" cy="51.15" r="1.13"/><circle class="cls-4" cx="82.88" cy="43.24" r="1.13"/><circle class="cls-4" cx="67.04" cy="43.24" r="1.13"/><circle class="cls-4" cx="169.09" cy="43.24" r="1.13"/><circle class="cls-4" cx="184.93" cy="43.24" r="1.13"/><circle class="cls-4" cx="180.61" cy="51.15" r="1.13"/><circle class="cls-4" cx="173.41" cy="51.15" r="1.13"/><circle class="cls-4" cx="189.71" cy="63.85" r="1.13"/><circle class="cls-4" cx="164.31" cy="63.85" r="1.13"/><circle class="cls-4" cx="189.71" cy="38.45" r="1.13"/><circle class="cls-4" cx="164.31" cy="38.45" r="1.13"/><circle class="cls-4" cx="16.01" cy="43.24" r="1.13"/><circle class="cls-4" cx="31.86" cy="43.24" r="1.13"/><circle class="cls-4" cx="27.54" cy="51.15" r="1.13"/><circle class="cls-4" cx="20.34" cy="51.15" r="1.13"/><circle class="cls-4" cx="36.64" cy="63.85" r="1.13"/><circle class="cls-4" cx="11.24" cy="63.85" r="1.13"/><circle class="cls-4" cx="36.64" cy="38.45" r="1.13"/><circle class="cls-4" cx="11.24" cy="38.45" r="1.13"/><circle class="cls-4" cx="118.06" cy="43.24" r="1.13"/><circle class="cls-4" cx="133.91" cy="43.24" r="1.13"/><circle class="cls-4" cx="129.58" cy="51.15" r="1.13"/><circle class="cls-4" cx="122.38" cy="51.15" r="1.13"/><circle class="cls-4" cx="138.68" cy="63.85" r="1.13"/><circle class="cls-4" cx="113.29" cy="63.85" r="1.13"/><circle class="cls-4" cx="138.68" cy="38.45" r="1.13"/><circle class="cls-4" cx="113.29" cy="38.45" r="1.13"/><circle class="cls-4" cx="64.7" cy="25.64" r="1.13"/><circle class="cls-4" cx="86.3" cy="25.64" r="1.13"/><circle class="cls-4" cx="128.82" cy="19.97" r="1.13"/><circle class="cls-4" cx="142.99" cy="19.97" r="1.13"/><circle class="cls-4" cx="100.47" cy="14.3" r="4.54"/><circle class="cls-4" cx="151.5" cy="28.47" r="1.13"/><circle class="cls-4" cx="122.7" cy="28.47" r="1.13"/><circle class="cls-4" cx="31.02" cy="22.8" r="1.2"/><circle class="cls-4" cx="11.18" cy="22.8" r="1.2"/><circle class="cls-4" cx="39.53" cy="29.54" r="1.56"/><circle class="cls-4" cx="35.28" cy="16.07" r="1.56"/><circle class="cls-4" cx="23.94" cy="16.07" r="1.56"/><circle class="cls-4" cx="15.43" cy="16.07" r="1.56"/><circle class="cls-4" cx="99.38" cy="34.72" r="1.13"/><circle class="cls-4" cx="99.38" cy="56.32" r="1.13"/><path class="cls-6" d="M280.06,336.75V309.54" transform="translate(-191.5 -272)"/><path class="cls-6" d="M252.85,336.75h27.21" transform="translate(-191.5 -272)"/><path class="cls-6" d="M252.85,309.54v27.21" transform="translate(-191.5 -272)"/><path class="cls-6" d="M280.06,309.54H252.85" transform="translate(-191.5 -272)"/><path class="cls-6" d="M382.1,309.54H354.89" transform="translate(-191.5 -272)"/><path class="cls-6" d="M354.89,309.54v27.21" transform="translate(-191.5 -272)"/><path class="cls-6" d="M354.89,336.75H382.1" transform="translate(-191.5 -272)"/><path class="cls-6" d="M382.1,336.75V309.54" transform="translate(-191.5 -272)"/><path class="cls-6" d="M229,309.54H201.82" transform="translate(-191.5 -272)"/><path class="cls-6" d="M201.82,309.54v27.21" transform="translate(-191.5 -272)"/><path class="cls-6" d="M201.82,336.75H229" transform="translate(-191.5 -272)"/><path class="cls-6" d="M229,336.75V309.54" transform="translate(-191.5 -272)"/><path class="cls-6" d="M331.08,309.54H303.87" transform="translate(-191.5 -272)"/><path class="cls-6" d="M303.87,309.54v27.21" transform="translate(-191.5 -272)"/><path class="cls-6" d="M303.87,336.75h27.21" transform="translate(-191.5 -272)"/><path class="cls-6" d="M331.08,336.75V309.54" transform="translate(-191.5 -272)"/><path class="cls-6" d="M271.3,300.81v-6.35" transform="translate(-191.5 -272)"/><path class="cls-6" d="M270.62,300.81v-6.35" transform="translate(-191.5 -272)"/><path class="cls-6" d="M271,300.81v-6.35" transform="translate(-191.5 -272)"/><path class="cls-6" d="M259.14,297.63H261" transform="translate(-191.5 -272)"/><path class="cls-6" d="M274.85,297.63H273" transform="translate(-191.5 -272)"/><path class="cls-6" d="M261,300.81h12" transform="translate(-191.5 -272)"/><path class="cls-6" d="M261,294.46v6.35" transform="translate(-191.5 -272)"/><path class="cls-6" d="M273,294.46H261" transform="translate(-191.5 -272)"/><path class="cls-6" d="M273,300.81v-6.35" transform="translate(-191.5 -272)"/><path class="cls-6" d="M320.4,288.08h14" transform="translate(-191.5 -272)"/><path class="cls-6" d="M320.4,295.85h14" transform="translate(-191.5 -272)"/><path class="cls-6" d="M320.4,288.08V289" transform="translate(-191.5 -272)"/><path class="cls-6" d="M320.4,295v.9" transform="translate(-191.5 -272)"/><path class="cls-6" d="M334.4,288.08V289" transform="translate(-191.5 -272)"/><path class="cls-6" d="M334.4,295v.9" transform="translate(-191.5 -272)"/><path class="cls-6" d="M340,300.47h-2.18" transform="translate(-191.5 -272)"/><path class="cls-6" d="M317.14,300.47h2.18" transform="translate(-191.5 -272)"/><path class="cls-6" d="M337.86,296.58H319.32" transform="translate(-191.5 -272)"/><path class="cls-6" d="M337.86,304.35v-7.77" transform="translate(-191.5 -272)"/><path class="cls-6" d="M319.32,304.35h18.54" transform="translate(-191.5 -272)"/><path class="cls-6" d="M319.32,296.58v7.77" transform="translate(-191.5 -272)"/><path class="cls-6" d="M191.62,287.71h6.24" transform="translate(-191.5 -272)"/><path class="cls-6" d="M191.62,301.89V287.71" transform="translate(-191.5 -272)"/><path class="cls-6" d="M197.86,301.89h-6.24" transform="translate(-191.5 -272)"/><path class="cls-6" d="M232.44,303.59H197.86" transform="translate(-191.5 -272)"/><path class="cls-6" d="M232.44,286v17.58" transform="translate(-191.5 -272)"/><path class="cls-6" d="M197.86,286h34.58" transform="translate(-191.5 -272)"/><path class="cls-6" d="M197.86,303.59V286" transform="translate(-191.5 -272)"/><path class="cls-6" d="M287.7,321.83h6.35" transform="translate(-191.5 -272)"/><path class="cls-6" d="M287.7,321.14h6.35" transform="translate(-191.5 -272)"/><path class="cls-6" d="M287.7,321.49h6.35" transform="translate(-191.5 -272)"/><path class="cls-6" d="M290.88,309.66v1.85" transform="translate(-191.5 -272)"/><path class="cls-6" d="M290.88,325.37v-1.85" transform="translate(-191.5 -272)"/><path class="cls-6" d="M287.7,311.51v12" transform="translate(-191.5 -272)"/><path class="cls-6" d="M294.05,311.51H287.7" transform="translate(-191.5 -272)"/><path class="cls-6" d="M294.05,323.52v-12" transform="translate(-191.5 -272)"/><path class="cls-6" d="M287.7,323.52h6.35" transform="translate(-191.5 -272)"/><path class="cls-6" d="M254.46,308.14l.4.13h.68l.26-.13.14-.14.14-.27v-.27l-.14-.27-.14-.13-.26-.14-.54-.14-.28-.13-.14-.13-.12-.28V306l.12-.28.14-.13.28-.13h.66l.42.13" transform="translate(-191.5 -272)"/><path class="cls-6" d="M257,305.44l.68,2.83.54-2,.54,2,.66-2.83" transform="translate(-191.5 -272)"/><path class="cls-6" d="M260.4,305.7l.12-.13.28-.13h.68l.26.13.14.13.14.28v.26l-.14.41-1.62,1.62H262" transform="translate(-191.5 -272)"/><path class="cls-6" d="M356.5,308.14l.4.13h.68l.27-.13L358,308l.14-.27v-.27l-.14-.27-.13-.13-.27-.14-.54-.14-.27-.13-.13-.13-.14-.28V306l.14-.28.13-.13.27-.13h.68l.4.13" transform="translate(-191.5 -272)"/><path class="cls-6" d="M359.06,305.44l.68,2.83.54-2,.54,2,.68-2.83" transform="translate(-191.5 -272)"/><path class="cls-6" d="M363.79,306.38v1.89" transform="translate(-191.5 -272)"/><path class="cls-6" d="M363.12,305.3l-.68,2h1.76" transform="translate(-191.5 -272)"/><path class="cls-6" d="M203.43,308.14l.4.13h.68l.27-.13.13-.14.14-.27v-.27l-.14-.27-.13-.13-.27-.14-.54-.14-.27-.13-.13-.13-.14-.28V306l.14-.28.13-.13.27-.13h.68l.4.13" transform="translate(-191.5 -272)"/><path class="cls-6" d="M206,305.44l.68,2.83.54-2,.54,2,.68-2.83" transform="translate(-191.5 -272)"/><path class="cls-6" d="M211,308.27h-1.62" transform="translate(-191.5 -272)"/><path class="cls-6" d="M210.18,308.27v-2.83l-.27.4-.27.27-.27.13" transform="translate(-191.5 -272)"/><path class="cls-6" d="M305.47,308.14l.41.13h.67l.28-.13L307,308l.13-.27v-.27l-.13-.27-.13-.13-.28-.14-.54-.14-.26-.13-.14-.13-.14-.28V306l.14-.28.14-.13.26-.13h.68l.4.13" transform="translate(-191.5 -272)"/><path class="cls-6" d="M308,305.44l.67,2.83.54-2,.54,2,.68-2.83" transform="translate(-191.5 -272)"/><path class="cls-6" d="M311.28,305.44H313l-.94,1.08h.4l.28.13.13.13.13.28v.67l-.13.27-.13.14-.28.13h-.8l-.28-.13-.13-.14" transform="translate(-191.5 -272)"/><path class="cls-6" d="M264.9,304.93v-2.84h.67l.41.14.27.26.14.28.13.54v.4l-.13.54-.14.27-.27.27-.41.14h-.67" transform="translate(-191.5 -272)"/><path class="cls-6" d="M269.09,302.09h-1.36l-.13,1.35.13-.13.28-.14h.67l.27.14.14.13.13.27v.68l-.13.26-.14.14-.27.14H268l-.28-.14-.13-.14" transform="translate(-191.5 -272)"/><path class="cls-6" d="M277.05,304v-2.84" transform="translate(-191.5 -272)"/><path class="cls-6" d="M278.67,304l-1.22-1.62" transform="translate(-191.5 -272)"/><path class="cls-6" d="M278.67,301.18l-1.62,1.62" transform="translate(-191.5 -272)"/><path class="cls-6" d="M326.92,285.89l-.13.14-.41.13h-.26l-.41-.13-.27-.28-.14-.26-.13-.54v-.41l.13-.54.14-.27.27-.27.41-.13h.26l.41.13.13.13" transform="translate(-191.5 -272)"/><path class="cls-6" d="M329.62,286.16H328" transform="translate(-191.5 -272)"/><path class="cls-6" d="M328.82,286.16v-2.83l-.28.4-.26.27-.28.13" transform="translate(-191.5 -272)"/><path class="cls-6" d="M289.81,275.67v-2.83" transform="translate(-191.5 -272)"/><path class="cls-6" d="M289.81,274.19h1.62" transform="translate(-191.5 -272)"/><path class="cls-6" d="M291.43,275.67v-2.83" transform="translate(-191.5 -272)"/><path class="cls-6" d="M294.26,275.67h-1.62" transform="translate(-191.5 -272)"/><path class="cls-6" d="M293.45,275.67v-2.83l-.27.4-.27.27-.27.14" transform="translate(-191.5 -272)"/><path class="cls-6" d="M328.12,295l-.95-1.35" transform="translate(-191.5 -272)"/><path class="cls-6" d="M326.5,295V292.2h1.08l.26.13.14.14.14.27v.4l-.14.27-.14.14-.26.13H326.5" transform="translate(-191.5 -272)"/><path class="cls-6" d="M330.54,293.14V295" transform="translate(-191.5 -272)"/><path class="cls-6" d="M329.87,292.06l-.67,2H331" transform="translate(-191.5 -272)"/><path class="cls-6" d="M234,299.71h2l.4.14.27.27.14.4v.27" transform="translate(-191.5 -272)"/><path class="cls-6" d="M236.84,296.88v1.62" transform="translate(-191.5 -272)"/><path class="cls-6" d="M236.84,297.69H234l.41.27.27.27.13.27" transform="translate(-191.5 -272)"/><path class="cls-6" d="M286.15,319.61h-2.84v-.68l.14-.4.27-.27.27-.14.54-.13h.4l.54.13.28.14.26.27.14.4v.68" transform="translate(-191.5 -272)"/><path class="cls-6" d="M283.31,315.56v.54l.14.27.14.13.4.27.54.14h1.08l.27-.14.13-.13.14-.27v-.54l-.14-.27-.13-.14-.27-.13h-.68l-.26.13-.14.14-.14.27v.54l.14.27.14.13.26.14" transform="translate(-191.5 -272)"/><path class="cls-6" d="M287.06,329.06h-2.84" transform="translate(-191.5 -272)"/><path class="cls-6" d="M287.06,327.44l-1.62,1.21" transform="translate(-191.5 -272)"/><path class="cls-6" d="M284.22,327.44l1.62,1.62" transform="translate(-191.5 -272)"/><path class="cls-7" d="M385.51,340.16l5.67-5.68" transform="translate(-191.5 -272)"/><path class="cls-7" d="M360,272.12l31.18,31.18" transform="translate(-191.5 -272)"/><path class="cls-7" d="M201.25,340.16l-5.66-5.68" transform="translate(-191.5 -272)"/><path class="cls-7" d="M201.25,272.12l-5.66,5.67" transform="translate(-191.5 -272)"/><path class="cls-7" d="M385.51,340.16H201.25" transform="translate(-191.5 -272)"/><path class="cls-7" d="M391.18,303.3v31.18" transform="translate(-191.5 -272)"/><path class="cls-7" d="M201.25,272.12H360" transform="translate(-191.5 -272)"/><path class="cls-7" d="M195.59,334.48V277.79" transform="translate(-191.5 -272)"/></svg>