G04 #@! TF.GenerationSoftware,KiCad,Pcbnew,(5.0.1-3-g963ef8bb5)*
G04 #@! TF.CreationDate,2019-02-12T17:52:07-08:00*
G04 #@! TF.ProjectId,4button-3wire,34627574746F6E2D33776972652E6B69,rev?*
G04 #@! TF.SameCoordinates,Original*
G04 #@! TF.FileFunction,Soldermask,Bot*
G04 #@! TF.FilePolarity,Negative*
%FSLAX46Y46*%
G04 Gerber Fmt 4.6, Leading zero omitted, Abs format (unit mm)*
G04 Created by KiCad (PCBNEW (5.0.1-3-g963ef8bb5)) date Tuesday, February 12, 2019 at 05:52:07 PM*
%MOMM*%
%LPD*%
G01*
G04 APERTURE LIST*
%ADD10C,0.100000*%
G04 APERTURE END LIST*
D10*
G36*
X134611552Y-118046331D02*
X134693625Y-118080327D01*
X134693626Y-118080328D01*
X134693629Y-118080329D01*
X134767496Y-118129686D01*
X134767500Y-118129689D01*
X134830311Y-118192500D01*
X134830313Y-118192503D01*
X134830314Y-118192504D01*
X134879671Y-118266371D01*
X134879672Y-118266374D01*
X134879673Y-118266375D01*
X134913669Y-118348448D01*
X134931000Y-118435579D01*
X134931000Y-118524421D01*
X134913669Y-118611552D01*
X134879673Y-118693625D01*
X134879671Y-118693629D01*
X134830314Y-118767496D01*
X134830311Y-118767500D01*
X134767500Y-118830311D01*
X134767497Y-118830313D01*
X134767496Y-118830314D01*
X134693629Y-118879671D01*
X134693626Y-118879672D01*
X134693625Y-118879673D01*
X134611552Y-118913669D01*
X134524421Y-118931000D01*
X134435579Y-118931000D01*
X134348448Y-118913669D01*
X134266375Y-118879673D01*
X134266374Y-118879672D01*
X134266371Y-118879671D01*
X134192504Y-118830314D01*
X134192503Y-118830313D01*
X134192500Y-118830311D01*
X134129689Y-118767500D01*
X134129686Y-118767496D01*
X134080329Y-118693629D01*
X134080327Y-118693625D01*
X134046331Y-118611552D01*
X134029000Y-118524421D01*
X134029000Y-118435579D01*
X134046331Y-118348448D01*
X134080327Y-118266375D01*
X134080328Y-118266374D01*
X134080329Y-118266371D01*
X134129686Y-118192504D01*
X134129687Y-118192503D01*
X134129689Y-118192500D01*
X134192500Y-118129689D01*
X134192504Y-118129686D01*
X134266371Y-118080329D01*
X134266374Y-118080328D01*
X134266375Y-118080327D01*
X134348448Y-118046331D01*
X134435579Y-118029000D01*
X134524421Y-118029000D01*
X134611552Y-118046331D01*
X134611552Y-118046331D01*
G37*
G36*
X125651552Y-118046331D02*
X125733625Y-118080327D01*
X125733626Y-118080328D01*
X125733629Y-118080329D01*
X125807496Y-118129686D01*
X125807500Y-118129689D01*
X125870311Y-118192500D01*
X125870313Y-118192503D01*
X125870314Y-118192504D01*
X125919671Y-118266371D01*
X125919672Y-118266374D01*
X125919673Y-118266375D01*
X125953669Y-118348448D01*
X125971000Y-118435579D01*
X125971000Y-118524421D01*
X125953669Y-118611552D01*
X125919673Y-118693625D01*
X125919671Y-118693629D01*
X125870314Y-118767496D01*
X125870311Y-118767500D01*
X125807500Y-118830311D01*
X125807497Y-118830313D01*
X125807496Y-118830314D01*
X125733629Y-118879671D01*
X125733626Y-118879672D01*
X125733625Y-118879673D01*
X125651552Y-118913669D01*
X125564421Y-118931000D01*
X125475579Y-118931000D01*
X125388448Y-118913669D01*
X125306375Y-118879673D01*
X125306374Y-118879672D01*
X125306371Y-118879671D01*
X125232504Y-118830314D01*
X125232503Y-118830313D01*
X125232500Y-118830311D01*
X125169689Y-118767500D01*
X125169686Y-118767496D01*
X125120329Y-118693629D01*
X125120327Y-118693625D01*
X125086331Y-118611552D01*
X125069000Y-118524421D01*
X125069000Y-118435579D01*
X125086331Y-118348448D01*
X125120327Y-118266375D01*
X125120328Y-118266374D01*
X125120329Y-118266371D01*
X125169686Y-118192504D01*
X125169687Y-118192503D01*
X125169689Y-118192500D01*
X125232500Y-118129689D01*
X125232504Y-118129686D01*
X125306371Y-118080329D01*
X125306374Y-118080328D01*
X125306375Y-118080327D01*
X125388448Y-118046331D01*
X125475579Y-118029000D01*
X125564421Y-118029000D01*
X125651552Y-118046331D01*
X125651552Y-118046331D01*
G37*
G36*
X116611552Y-118046331D02*
X116693625Y-118080327D01*
X116693626Y-118080328D01*
X116693629Y-118080329D01*
X116767496Y-118129686D01*
X116767500Y-118129689D01*
X116830311Y-118192500D01*
X116830313Y-118192503D01*
X116830314Y-118192504D01*
X116879671Y-118266371D01*
X116879672Y-118266374D01*
X116879673Y-118266375D01*
X116913669Y-118348448D01*
X116931000Y-118435579D01*
X116931000Y-118524421D01*
X116913669Y-118611552D01*
X116879673Y-118693625D01*
X116879671Y-118693629D01*
X116830314Y-118767496D01*
X116830311Y-118767500D01*
X116767500Y-118830311D01*
X116767497Y-118830313D01*
X116767496Y-118830314D01*
X116693629Y-118879671D01*
X116693626Y-118879672D01*
X116693625Y-118879673D01*
X116611552Y-118913669D01*
X116524421Y-118931000D01*
X116435579Y-118931000D01*
X116348448Y-118913669D01*
X116266375Y-118879673D01*
X116266374Y-118879672D01*
X116266371Y-118879671D01*
X116192504Y-118830314D01*
X116192503Y-118830313D01*
X116192500Y-118830311D01*
X116129689Y-118767500D01*
X116129686Y-118767496D01*
X116080329Y-118693629D01*
X116080327Y-118693625D01*
X116046331Y-118611552D01*
X116029000Y-118524421D01*
X116029000Y-118435579D01*
X116046331Y-118348448D01*
X116080327Y-118266375D01*
X116080328Y-118266374D01*
X116080329Y-118266371D01*
X116129686Y-118192504D01*
X116129687Y-118192503D01*
X116129689Y-118192500D01*
X116192500Y-118129689D01*
X116192504Y-118129686D01*
X116266371Y-118080329D01*
X116266374Y-118080328D01*
X116266375Y-118080327D01*
X116348448Y-118046331D01*
X116435579Y-118029000D01*
X116524421Y-118029000D01*
X116611552Y-118046331D01*
X116611552Y-118046331D01*
G37*
G36*
X107651552Y-118046331D02*
X107733625Y-118080327D01*
X107733626Y-118080328D01*
X107733629Y-118080329D01*
X107807496Y-118129686D01*
X107807500Y-118129689D01*
X107870311Y-118192500D01*
X107870313Y-118192503D01*
X107870314Y-118192504D01*
X107919671Y-118266371D01*
X107919672Y-118266374D01*
X107919673Y-118266375D01*
X107953669Y-118348448D01*
X107971000Y-118435579D01*
X107971000Y-118524421D01*
X107953669Y-118611552D01*
X107919673Y-118693625D01*
X107919671Y-118693629D01*
X107870314Y-118767496D01*
X107870311Y-118767500D01*
X107807500Y-118830311D01*
X107807497Y-118830313D01*
X107807496Y-118830314D01*
X107733629Y-118879671D01*
X107733626Y-118879672D01*
X107733625Y-118879673D01*
X107651552Y-118913669D01*
X107564421Y-118931000D01*
X107475579Y-118931000D01*
X107388448Y-118913669D01*
X107306375Y-118879673D01*
X107306374Y-118879672D01*
X107306371Y-118879671D01*
X107232504Y-118830314D01*
X107232503Y-118830313D01*
X107232500Y-118830311D01*
X107169689Y-118767500D01*
X107169686Y-118767496D01*
X107120329Y-118693629D01*
X107120327Y-118693625D01*
X107086331Y-118611552D01*
X107069000Y-118524421D01*
X107069000Y-118435579D01*
X107086331Y-118348448D01*
X107120327Y-118266375D01*
X107120328Y-118266374D01*
X107120329Y-118266371D01*
X107169686Y-118192504D01*
X107169687Y-118192503D01*
X107169689Y-118192500D01*
X107232500Y-118129689D01*
X107232504Y-118129686D01*
X107306371Y-118080329D01*
X107306374Y-118080328D01*
X107306375Y-118080327D01*
X107388448Y-118046331D01*
X107475579Y-118029000D01*
X107564421Y-118029000D01*
X107651552Y-118046331D01*
X107651552Y-118046331D01*
G37*
G36*
X98611552Y-118046331D02*
X98693625Y-118080327D01*
X98693626Y-118080328D01*
X98693629Y-118080329D01*
X98767496Y-118129686D01*
X98767500Y-118129689D01*
X98830311Y-118192500D01*
X98830313Y-118192503D01*
X98830314Y-118192504D01*
X98879671Y-118266371D01*
X98879672Y-118266374D01*
X98879673Y-118266375D01*
X98913669Y-118348448D01*
X98931000Y-118435579D01*
X98931000Y-118524421D01*
X98913669Y-118611552D01*
X98879673Y-118693625D01*
X98879671Y-118693629D01*
X98830314Y-118767496D01*
X98830311Y-118767500D01*
X98767500Y-118830311D01*
X98767497Y-118830313D01*
X98767496Y-118830314D01*
X98693629Y-118879671D01*
X98693626Y-118879672D01*
X98693625Y-118879673D01*
X98611552Y-118913669D01*
X98524421Y-118931000D01*
X98435579Y-118931000D01*
X98348448Y-118913669D01*
X98266375Y-118879673D01*
X98266374Y-118879672D01*
X98266371Y-118879671D01*
X98192504Y-118830314D01*
X98192503Y-118830313D01*
X98192500Y-118830311D01*
X98129689Y-118767500D01*
X98129686Y-118767496D01*
X98080329Y-118693629D01*
X98080327Y-118693625D01*
X98046331Y-118611552D01*
X98029000Y-118524421D01*
X98029000Y-118435579D01*
X98046331Y-118348448D01*
X98080327Y-118266375D01*
X98080328Y-118266374D01*
X98080329Y-118266371D01*
X98129686Y-118192504D01*
X98129687Y-118192503D01*
X98129689Y-118192500D01*
X98192500Y-118129689D01*
X98192504Y-118129686D01*
X98266371Y-118080329D01*
X98266374Y-118080328D01*
X98266375Y-118080327D01*
X98348448Y-118046331D01*
X98435579Y-118029000D01*
X98524421Y-118029000D01*
X98611552Y-118046331D01*
X98611552Y-118046331D01*
G37*
G36*
X89651552Y-118046331D02*
X89733625Y-118080327D01*
X89733626Y-118080328D01*
X89733629Y-118080329D01*
X89807496Y-118129686D01*
X89807500Y-118129689D01*
X89870311Y-118192500D01*
X89870313Y-118192503D01*
X89870314Y-118192504D01*
X89919671Y-118266371D01*
X89919672Y-118266374D01*
X89919673Y-118266375D01*
X89953669Y-118348448D01*
X89971000Y-118435579D01*
X89971000Y-118524421D01*
X89953669Y-118611552D01*
X89919673Y-118693625D01*
X89919671Y-118693629D01*
X89870314Y-118767496D01*
X89870311Y-118767500D01*
X89807500Y-118830311D01*
X89807497Y-118830313D01*
X89807496Y-118830314D01*
X89733629Y-118879671D01*
X89733626Y-118879672D01*
X89733625Y-118879673D01*
X89651552Y-118913669D01*
X89564421Y-118931000D01*
X89475579Y-118931000D01*
X89388448Y-118913669D01*
X89306375Y-118879673D01*
X89306374Y-118879672D01*
X89306371Y-118879671D01*
X89232504Y-118830314D01*
X89232503Y-118830313D01*
X89232500Y-118830311D01*
X89169689Y-118767500D01*
X89169686Y-118767496D01*
X89120329Y-118693629D01*
X89120327Y-118693625D01*
X89086331Y-118611552D01*
X89069000Y-118524421D01*
X89069000Y-118435579D01*
X89086331Y-118348448D01*
X89120327Y-118266375D01*
X89120328Y-118266374D01*
X89120329Y-118266371D01*
X89169686Y-118192504D01*
X89169687Y-118192503D01*
X89169689Y-118192500D01*
X89232500Y-118129689D01*
X89232504Y-118129686D01*
X89306371Y-118080329D01*
X89306374Y-118080328D01*
X89306375Y-118080327D01*
X89388448Y-118046331D01*
X89475579Y-118029000D01*
X89564421Y-118029000D01*
X89651552Y-118046331D01*
X89651552Y-118046331D01*
G37*
G36*
X80611552Y-118046331D02*
X80693625Y-118080327D01*
X80693626Y-118080328D01*
X80693629Y-118080329D01*
X80767496Y-118129686D01*
X80767500Y-118129689D01*
X80830311Y-118192500D01*
X80830313Y-118192503D01*
X80830314Y-118192504D01*
X80879671Y-118266371D01*
X80879672Y-118266374D01*
X80879673Y-118266375D01*
X80913669Y-118348448D01*
X80931000Y-118435579D01*
X80931000Y-118524421D01*
X80913669Y-118611552D01*
X80879673Y-118693625D01*
X80879671Y-118693629D01*
X80830314Y-118767496D01*
X80830311Y-118767500D01*
X80767500Y-118830311D01*
X80767497Y-118830313D01*
X80767496Y-118830314D01*
X80693629Y-118879671D01*
X80693626Y-118879672D01*
X80693625Y-118879673D01*
X80611552Y-118913669D01*
X80524421Y-118931000D01*
X80435579Y-118931000D01*
X80348448Y-118913669D01*
X80266375Y-118879673D01*
X80266374Y-118879672D01*
X80266371Y-118879671D01*
X80192504Y-118830314D01*
X80192503Y-118830313D01*
X80192500Y-118830311D01*
X80129689Y-118767500D01*
X80129686Y-118767496D01*
X80080329Y-118693629D01*
X80080327Y-118693625D01*
X80046331Y-118611552D01*
X80029000Y-118524421D01*
X80029000Y-118435579D01*
X80046331Y-118348448D01*
X80080327Y-118266375D01*
X80080328Y-118266374D01*
X80080329Y-118266371D01*
X80129686Y-118192504D01*
X80129687Y-118192503D01*
X80129689Y-118192500D01*
X80192500Y-118129689D01*
X80192504Y-118129686D01*
X80266371Y-118080329D01*
X80266374Y-118080328D01*
X80266375Y-118080327D01*
X80348448Y-118046331D01*
X80435579Y-118029000D01*
X80524421Y-118029000D01*
X80611552Y-118046331D01*
X80611552Y-118046331D01*
G37*
G36*
X71651552Y-118046331D02*
X71733625Y-118080327D01*
X71733626Y-118080328D01*
X71733629Y-118080329D01*
X71807496Y-118129686D01*
X71807500Y-118129689D01*
X71870311Y-118192500D01*
X71870313Y-118192503D01*
X71870314Y-118192504D01*
X71919671Y-118266371D01*
X71919672Y-118266374D01*
X71919673Y-118266375D01*
X71953669Y-118348448D01*
X71971000Y-118435579D01*
X71971000Y-118524421D01*
X71953669Y-118611552D01*
X71919673Y-118693625D01*
X71919671Y-118693629D01*
X71870314Y-118767496D01*
X71870311Y-118767500D01*
X71807500Y-118830311D01*
X71807497Y-118830313D01*
X71807496Y-118830314D01*
X71733629Y-118879671D01*
X71733626Y-118879672D01*
X71733625Y-118879673D01*
X71651552Y-118913669D01*
X71564421Y-118931000D01*
X71475579Y-118931000D01*
X71388448Y-118913669D01*
X71306375Y-118879673D01*
X71306374Y-118879672D01*
X71306371Y-118879671D01*
X71232504Y-118830314D01*
X71232503Y-118830313D01*
X71232500Y-118830311D01*
X71169689Y-118767500D01*
X71169686Y-118767496D01*
X71120329Y-118693629D01*
X71120327Y-118693625D01*
X71086331Y-118611552D01*
X71069000Y-118524421D01*
X71069000Y-118435579D01*
X71086331Y-118348448D01*
X71120327Y-118266375D01*
X71120328Y-118266374D01*
X71120329Y-118266371D01*
X71169686Y-118192504D01*
X71169687Y-118192503D01*
X71169689Y-118192500D01*
X71232500Y-118129689D01*
X71232504Y-118129686D01*
X71306371Y-118080329D01*
X71306374Y-118080328D01*
X71306375Y-118080327D01*
X71388448Y-118046331D01*
X71475579Y-118029000D01*
X71564421Y-118029000D01*
X71651552Y-118046331D01*
X71651552Y-118046331D01*
G37*
G36*
X103467000Y-116675000D02*
X101765000Y-116675000D01*
X101765000Y-114973000D01*
X103467000Y-114973000D01*
X103467000Y-116675000D01*
X103467000Y-116675000D01*
G37*
G36*
X131798822Y-113206087D02*
X131862114Y-113225287D01*
X131920448Y-113256467D01*
X131971574Y-113298426D01*
X132013533Y-113349552D01*
X132044713Y-113407886D01*
X132063913Y-113471178D01*
X132071000Y-113543139D01*
X132071000Y-114456861D01*
X132063913Y-114528822D01*
X132044713Y-114592114D01*
X132013533Y-114650448D01*
X131971574Y-114701574D01*
X131920448Y-114743533D01*
X131862114Y-114774713D01*
X131798822Y-114793913D01*
X131726861Y-114801000D01*
X130813139Y-114801000D01*
X130741178Y-114793913D01*
X130677886Y-114774713D01*
X130619552Y-114743533D01*
X130568426Y-114701574D01*
X130526467Y-114650448D01*
X130495287Y-114592114D01*
X130476087Y-114528822D01*
X130469000Y-114456861D01*
X130469000Y-113543139D01*
X130476087Y-113471178D01*
X130495287Y-113407886D01*
X130526467Y-113349552D01*
X130568426Y-113298426D01*
X130619552Y-113256467D01*
X130677886Y-113225287D01*
X130741178Y-113206087D01*
X130813139Y-113199000D01*
X131726861Y-113199000D01*
X131798822Y-113206087D01*
X131798822Y-113206087D01*
G37*
G36*
X111258822Y-113206087D02*
X111322114Y-113225287D01*
X111380448Y-113256467D01*
X111431574Y-113298426D01*
X111473533Y-113349552D01*
X111504713Y-113407886D01*
X111523913Y-113471178D01*
X111531000Y-113543139D01*
X111531000Y-114456861D01*
X111523913Y-114528822D01*
X111504713Y-114592114D01*
X111473533Y-114650448D01*
X111431574Y-114701574D01*
X111380448Y-114743533D01*
X111322114Y-114774713D01*
X111258822Y-114793913D01*
X111186861Y-114801000D01*
X110273139Y-114801000D01*
X110201178Y-114793913D01*
X110137886Y-114774713D01*
X110079552Y-114743533D01*
X110028426Y-114701574D01*
X109986467Y-114650448D01*
X109955287Y-114592114D01*
X109936087Y-114528822D01*
X109929000Y-114456861D01*
X109929000Y-113543139D01*
X109936087Y-113471178D01*
X109955287Y-113407886D01*
X109986467Y-113349552D01*
X110028426Y-113298426D01*
X110079552Y-113256467D01*
X110137886Y-113225287D01*
X110201178Y-113206087D01*
X110273139Y-113199000D01*
X111186861Y-113199000D01*
X111258822Y-113206087D01*
X111258822Y-113206087D01*
G37*
G36*
X113798822Y-113206087D02*
X113862114Y-113225287D01*
X113920448Y-113256467D01*
X113971574Y-113298426D01*
X114013533Y-113349552D01*
X114044713Y-113407886D01*
X114063913Y-113471178D01*
X114071000Y-113543139D01*
X114071000Y-114456861D01*
X114063913Y-114528822D01*
X114044713Y-114592114D01*
X114013533Y-114650448D01*
X113971574Y-114701574D01*
X113920448Y-114743533D01*
X113862114Y-114774713D01*
X113798822Y-114793913D01*
X113726861Y-114801000D01*
X112813139Y-114801000D01*
X112741178Y-114793913D01*
X112677886Y-114774713D01*
X112619552Y-114743533D01*
X112568426Y-114701574D01*
X112526467Y-114650448D01*
X112495287Y-114592114D01*
X112476087Y-114528822D01*
X112469000Y-114456861D01*
X112469000Y-113543139D01*
X112476087Y-113471178D01*
X112495287Y-113407886D01*
X112526467Y-113349552D01*
X112568426Y-113298426D01*
X112619552Y-113256467D01*
X112677886Y-113225287D01*
X112741178Y-113206087D01*
X112813139Y-113199000D01*
X113726861Y-113199000D01*
X113798822Y-113206087D01*
X113798822Y-113206087D01*
G37*
G36*
X129258822Y-113206087D02*
X129322114Y-113225287D01*
X129380448Y-113256467D01*
X129431574Y-113298426D01*
X129473533Y-113349552D01*
X129504713Y-113407886D01*
X129523913Y-113471178D01*
X129531000Y-113543139D01*
X129531000Y-114456861D01*
X129523913Y-114528822D01*
X129504713Y-114592114D01*
X129473533Y-114650448D01*
X129431574Y-114701574D01*
X129380448Y-114743533D01*
X129322114Y-114774713D01*
X129258822Y-114793913D01*
X129186861Y-114801000D01*
X128273139Y-114801000D01*
X128201178Y-114793913D01*
X128137886Y-114774713D01*
X128079552Y-114743533D01*
X128028426Y-114701574D01*
X127986467Y-114650448D01*
X127955287Y-114592114D01*
X127936087Y-114528822D01*
X127929000Y-114456861D01*
X127929000Y-113543139D01*
X127936087Y-113471178D01*
X127955287Y-113407886D01*
X127986467Y-113349552D01*
X128028426Y-113298426D01*
X128079552Y-113256467D01*
X128137886Y-113225287D01*
X128201178Y-113206087D01*
X128273139Y-113199000D01*
X129186861Y-113199000D01*
X129258822Y-113206087D01*
X129258822Y-113206087D01*
G37*
G36*
X75258822Y-113206087D02*
X75322114Y-113225287D01*
X75380448Y-113256467D01*
X75431574Y-113298426D01*
X75473533Y-113349552D01*
X75504713Y-113407886D01*
X75523913Y-113471178D01*
X75531000Y-113543139D01*
X75531000Y-114456861D01*
X75523913Y-114528822D01*
X75504713Y-114592114D01*
X75473533Y-114650448D01*
X75431574Y-114701574D01*
X75380448Y-114743533D01*
X75322114Y-114774713D01*
X75258822Y-114793913D01*
X75186861Y-114801000D01*
X74273139Y-114801000D01*
X74201178Y-114793913D01*
X74137886Y-114774713D01*
X74079552Y-114743533D01*
X74028426Y-114701574D01*
X73986467Y-114650448D01*
X73955287Y-114592114D01*
X73936087Y-114528822D01*
X73929000Y-114456861D01*
X73929000Y-113543139D01*
X73936087Y-113471178D01*
X73955287Y-113407886D01*
X73986467Y-113349552D01*
X74028426Y-113298426D01*
X74079552Y-113256467D01*
X74137886Y-113225287D01*
X74201178Y-113206087D01*
X74273139Y-113199000D01*
X75186861Y-113199000D01*
X75258822Y-113206087D01*
X75258822Y-113206087D01*
G37*
G36*
X77798822Y-113206087D02*
X77862114Y-113225287D01*
X77920448Y-113256467D01*
X77971574Y-113298426D01*
X78013533Y-113349552D01*
X78044713Y-113407886D01*
X78063913Y-113471178D01*
X78071000Y-113543139D01*
X78071000Y-114456861D01*
X78063913Y-114528822D01*
X78044713Y-114592114D01*
X78013533Y-114650448D01*
X77971574Y-114701574D01*
X77920448Y-114743533D01*
X77862114Y-114774713D01*
X77798822Y-114793913D01*
X77726861Y-114801000D01*
X76813139Y-114801000D01*
X76741178Y-114793913D01*
X76677886Y-114774713D01*
X76619552Y-114743533D01*
X76568426Y-114701574D01*
X76526467Y-114650448D01*
X76495287Y-114592114D01*
X76476087Y-114528822D01*
X76469000Y-114456861D01*
X76469000Y-113543139D01*
X76476087Y-113471178D01*
X76495287Y-113407886D01*
X76526467Y-113349552D01*
X76568426Y-113298426D01*
X76619552Y-113256467D01*
X76677886Y-113225287D01*
X76741178Y-113206087D01*
X76813139Y-113199000D01*
X77726861Y-113199000D01*
X77798822Y-113206087D01*
X77798822Y-113206087D01*
G37*
G36*
X95798822Y-113206087D02*
X95862114Y-113225287D01*
X95920448Y-113256467D01*
X95971574Y-113298426D01*
X96013533Y-113349552D01*
X96044713Y-113407886D01*
X96063913Y-113471178D01*
X96071000Y-113543139D01*
X96071000Y-114456861D01*
X96063913Y-114528822D01*
X96044713Y-114592114D01*
X96013533Y-114650448D01*
X95971574Y-114701574D01*
X95920448Y-114743533D01*
X95862114Y-114774713D01*
X95798822Y-114793913D01*
X95726861Y-114801000D01*
X94813139Y-114801000D01*
X94741178Y-114793913D01*
X94677886Y-114774713D01*
X94619552Y-114743533D01*
X94568426Y-114701574D01*
X94526467Y-114650448D01*
X94495287Y-114592114D01*
X94476087Y-114528822D01*
X94469000Y-114456861D01*
X94469000Y-113543139D01*
X94476087Y-113471178D01*
X94495287Y-113407886D01*
X94526467Y-113349552D01*
X94568426Y-113298426D01*
X94619552Y-113256467D01*
X94677886Y-113225287D01*
X94741178Y-113206087D01*
X94813139Y-113199000D01*
X95726861Y-113199000D01*
X95798822Y-113206087D01*
X95798822Y-113206087D01*
G37*
G36*
X93258822Y-113206087D02*
X93322114Y-113225287D01*
X93380448Y-113256467D01*
X93431574Y-113298426D01*
X93473533Y-113349552D01*
X93504713Y-113407886D01*
X93523913Y-113471178D01*
X93531000Y-113543139D01*
X93531000Y-114456861D01*
X93523913Y-114528822D01*
X93504713Y-114592114D01*
X93473533Y-114650448D01*
X93431574Y-114701574D01*
X93380448Y-114743533D01*
X93322114Y-114774713D01*
X93258822Y-114793913D01*
X93186861Y-114801000D01*
X92273139Y-114801000D01*
X92201178Y-114793913D01*
X92137886Y-114774713D01*
X92079552Y-114743533D01*
X92028426Y-114701574D01*
X91986467Y-114650448D01*
X91955287Y-114592114D01*
X91936087Y-114528822D01*
X91929000Y-114456861D01*
X91929000Y-113543139D01*
X91936087Y-113471178D01*
X91955287Y-113407886D01*
X91986467Y-113349552D01*
X92028426Y-113298426D01*
X92079552Y-113256467D01*
X92137886Y-113225287D01*
X92201178Y-113206087D01*
X92273139Y-113199000D01*
X93186861Y-113199000D01*
X93258822Y-113206087D01*
X93258822Y-113206087D01*
G37*
G36*
X128483822Y-110416087D02*
X128547114Y-110435287D01*
X128605448Y-110466467D01*
X128656574Y-110508426D01*
X128698533Y-110559552D01*
X128729713Y-110617886D01*
X128748913Y-110681178D01*
X128756000Y-110753139D01*
X128756000Y-111666861D01*
X128748913Y-111738822D01*
X128729713Y-111802114D01*
X128698533Y-111860448D01*
X128656574Y-111911574D01*
X128605448Y-111953533D01*
X128547114Y-111984713D01*
X128483822Y-112003913D01*
X128411861Y-112011000D01*
X125998139Y-112011000D01*
X125926178Y-112003913D01*
X125862886Y-111984713D01*
X125804552Y-111953533D01*
X125753426Y-111911574D01*
X125711467Y-111860448D01*
X125680287Y-111802114D01*
X125661087Y-111738822D01*
X125654000Y-111666861D01*
X125654000Y-110753139D01*
X125661087Y-110681178D01*
X125680287Y-110617886D01*
X125711467Y-110559552D01*
X125753426Y-110508426D01*
X125804552Y-110466467D01*
X125862886Y-110435287D01*
X125926178Y-110416087D01*
X125998139Y-110409000D01*
X128411861Y-110409000D01*
X128483822Y-110416087D01*
X128483822Y-110416087D01*
G37*
G36*
X80073822Y-110416087D02*
X80137114Y-110435287D01*
X80195448Y-110466467D01*
X80246574Y-110508426D01*
X80288533Y-110559552D01*
X80319713Y-110617886D01*
X80338913Y-110681178D01*
X80346000Y-110753139D01*
X80346000Y-111666861D01*
X80338913Y-111738822D01*
X80319713Y-111802114D01*
X80288533Y-111860448D01*
X80246574Y-111911574D01*
X80195448Y-111953533D01*
X80137114Y-111984713D01*
X80073822Y-112003913D01*
X80001861Y-112011000D01*
X77588139Y-112011000D01*
X77516178Y-112003913D01*
X77452886Y-111984713D01*
X77394552Y-111953533D01*
X77343426Y-111911574D01*
X77301467Y-111860448D01*
X77270287Y-111802114D01*
X77251087Y-111738822D01*
X77244000Y-111666861D01*
X77244000Y-110753139D01*
X77251087Y-110681178D01*
X77270287Y-110617886D01*
X77301467Y-110559552D01*
X77343426Y-110508426D01*
X77394552Y-110466467D01*
X77452886Y-110435287D01*
X77516178Y-110416087D01*
X77588139Y-110409000D01*
X80001861Y-110409000D01*
X80073822Y-110416087D01*
X80073822Y-110416087D01*
G37*
G36*
X134073822Y-110416087D02*
X134137114Y-110435287D01*
X134195448Y-110466467D01*
X134246574Y-110508426D01*
X134288533Y-110559552D01*
X134319713Y-110617886D01*
X134338913Y-110681178D01*
X134346000Y-110753139D01*
X134346000Y-111666861D01*
X134338913Y-111738822D01*
X134319713Y-111802114D01*
X134288533Y-111860448D01*
X134246574Y-111911574D01*
X134195448Y-111953533D01*
X134137114Y-111984713D01*
X134073822Y-112003913D01*
X134001861Y-112011000D01*
X131588139Y-112011000D01*
X131516178Y-112003913D01*
X131452886Y-111984713D01*
X131394552Y-111953533D01*
X131343426Y-111911574D01*
X131301467Y-111860448D01*
X131270287Y-111802114D01*
X131251087Y-111738822D01*
X131244000Y-111666861D01*
X131244000Y-110753139D01*
X131251087Y-110681178D01*
X131270287Y-110617886D01*
X131301467Y-110559552D01*
X131343426Y-110508426D01*
X131394552Y-110466467D01*
X131452886Y-110435287D01*
X131516178Y-110416087D01*
X131588139Y-110409000D01*
X134001861Y-110409000D01*
X134073822Y-110416087D01*
X134073822Y-110416087D01*
G37*
G36*
X116073822Y-110416087D02*
X116137114Y-110435287D01*
X116195448Y-110466467D01*
X116246574Y-110508426D01*
X116288533Y-110559552D01*
X116319713Y-110617886D01*
X116338913Y-110681178D01*
X116346000Y-110753139D01*
X116346000Y-111666861D01*
X116338913Y-111738822D01*
X116319713Y-111802114D01*
X116288533Y-111860448D01*
X116246574Y-111911574D01*
X116195448Y-111953533D01*
X116137114Y-111984713D01*
X116073822Y-112003913D01*
X116001861Y-112011000D01*
X113588139Y-112011000D01*
X113516178Y-112003913D01*
X113452886Y-111984713D01*
X113394552Y-111953533D01*
X113343426Y-111911574D01*
X113301467Y-111860448D01*
X113270287Y-111802114D01*
X113251087Y-111738822D01*
X113244000Y-111666861D01*
X113244000Y-110753139D01*
X113251087Y-110681178D01*
X113270287Y-110617886D01*
X113301467Y-110559552D01*
X113343426Y-110508426D01*
X113394552Y-110466467D01*
X113452886Y-110435287D01*
X113516178Y-110416087D01*
X113588139Y-110409000D01*
X116001861Y-110409000D01*
X116073822Y-110416087D01*
X116073822Y-110416087D01*
G37*
G36*
X110483822Y-110416087D02*
X110547114Y-110435287D01*
X110605448Y-110466467D01*
X110656574Y-110508426D01*
X110698533Y-110559552D01*
X110729713Y-110617886D01*
X110748913Y-110681178D01*
X110756000Y-110753139D01*
X110756000Y-111666861D01*
X110748913Y-111738822D01*
X110729713Y-111802114D01*
X110698533Y-111860448D01*
X110656574Y-111911574D01*
X110605448Y-111953533D01*
X110547114Y-111984713D01*
X110483822Y-112003913D01*
X110411861Y-112011000D01*
X107998139Y-112011000D01*
X107926178Y-112003913D01*
X107862886Y-111984713D01*
X107804552Y-111953533D01*
X107753426Y-111911574D01*
X107711467Y-111860448D01*
X107680287Y-111802114D01*
X107661087Y-111738822D01*
X107654000Y-111666861D01*
X107654000Y-110753139D01*
X107661087Y-110681178D01*
X107680287Y-110617886D01*
X107711467Y-110559552D01*
X107753426Y-110508426D01*
X107804552Y-110466467D01*
X107862886Y-110435287D01*
X107926178Y-110416087D01*
X107998139Y-110409000D01*
X110411861Y-110409000D01*
X110483822Y-110416087D01*
X110483822Y-110416087D01*
G37*
G36*
X98073822Y-110416087D02*
X98137114Y-110435287D01*
X98195448Y-110466467D01*
X98246574Y-110508426D01*
X98288533Y-110559552D01*
X98319713Y-110617886D01*
X98338913Y-110681178D01*
X98346000Y-110753139D01*
X98346000Y-111666861D01*
X98338913Y-111738822D01*
X98319713Y-111802114D01*
X98288533Y-111860448D01*
X98246574Y-111911574D01*
X98195448Y-111953533D01*
X98137114Y-111984713D01*
X98073822Y-112003913D01*
X98001861Y-112011000D01*
X95588139Y-112011000D01*
X95516178Y-112003913D01*
X95452886Y-111984713D01*
X95394552Y-111953533D01*
X95343426Y-111911574D01*
X95301467Y-111860448D01*
X95270287Y-111802114D01*
X95251087Y-111738822D01*
X95244000Y-111666861D01*
X95244000Y-110753139D01*
X95251087Y-110681178D01*
X95270287Y-110617886D01*
X95301467Y-110559552D01*
X95343426Y-110508426D01*
X95394552Y-110466467D01*
X95452886Y-110435287D01*
X95516178Y-110416087D01*
X95588139Y-110409000D01*
X98001861Y-110409000D01*
X98073822Y-110416087D01*
X98073822Y-110416087D01*
G37*
G36*
X92483822Y-110416087D02*
X92547114Y-110435287D01*
X92605448Y-110466467D01*
X92656574Y-110508426D01*
X92698533Y-110559552D01*
X92729713Y-110617886D01*
X92748913Y-110681178D01*
X92756000Y-110753139D01*
X92756000Y-111666861D01*
X92748913Y-111738822D01*
X92729713Y-111802114D01*
X92698533Y-111860448D01*
X92656574Y-111911574D01*
X92605448Y-111953533D01*
X92547114Y-111984713D01*
X92483822Y-112003913D01*
X92411861Y-112011000D01*
X89998139Y-112011000D01*
X89926178Y-112003913D01*
X89862886Y-111984713D01*
X89804552Y-111953533D01*
X89753426Y-111911574D01*
X89711467Y-111860448D01*
X89680287Y-111802114D01*
X89661087Y-111738822D01*
X89654000Y-111666861D01*
X89654000Y-110753139D01*
X89661087Y-110681178D01*
X89680287Y-110617886D01*
X89711467Y-110559552D01*
X89753426Y-110508426D01*
X89804552Y-110466467D01*
X89862886Y-110435287D01*
X89926178Y-110416087D01*
X89998139Y-110409000D01*
X92411861Y-110409000D01*
X92483822Y-110416087D01*
X92483822Y-110416087D01*
G37*
G36*
X74483822Y-110416087D02*
X74547114Y-110435287D01*
X74605448Y-110466467D01*
X74656574Y-110508426D01*
X74698533Y-110559552D01*
X74729713Y-110617886D01*
X74748913Y-110681178D01*
X74756000Y-110753139D01*
X74756000Y-111666861D01*
X74748913Y-111738822D01*
X74729713Y-111802114D01*
X74698533Y-111860448D01*
X74656574Y-111911574D01*
X74605448Y-111953533D01*
X74547114Y-111984713D01*
X74483822Y-112003913D01*
X74411861Y-112011000D01*
X71998139Y-112011000D01*
X71926178Y-112003913D01*
X71862886Y-111984713D01*
X71804552Y-111953533D01*
X71753426Y-111911574D01*
X71711467Y-111860448D01*
X71680287Y-111802114D01*
X71661087Y-111738822D01*
X71654000Y-111666861D01*
X71654000Y-110753139D01*
X71661087Y-110681178D01*
X71680287Y-110617886D01*
X71711467Y-110559552D01*
X71753426Y-110508426D01*
X71804552Y-110466467D01*
X71862886Y-110435287D01*
X71926178Y-110416087D01*
X71998139Y-110409000D01*
X74411861Y-110409000D01*
X74483822Y-110416087D01*
X74483822Y-110416087D01*
G37*
G36*
X80611552Y-109086331D02*
X80693625Y-109120327D01*
X80693626Y-109120328D01*
X80693629Y-109120329D01*
X80767496Y-109169686D01*
X80767500Y-109169689D01*
X80830311Y-109232500D01*
X80830313Y-109232503D01*
X80830314Y-109232504D01*
X80879671Y-109306371D01*
X80879672Y-109306374D01*
X80879673Y-109306375D01*
X80913669Y-109388448D01*
X80931000Y-109475579D01*
X80931000Y-109564421D01*
X80913669Y-109651552D01*
X80879673Y-109733625D01*
X80879671Y-109733629D01*
X80830314Y-109807496D01*
X80830311Y-109807500D01*
X80767500Y-109870311D01*
X80767497Y-109870313D01*
X80767496Y-109870314D01*
X80693629Y-109919671D01*
X80693626Y-109919672D01*
X80693625Y-109919673D01*
X80611552Y-109953669D01*
X80524421Y-109971000D01*
X80435579Y-109971000D01*
X80348448Y-109953669D01*
X80266375Y-109919673D01*
X80266374Y-109919672D01*
X80266371Y-109919671D01*
X80192504Y-109870314D01*
X80192503Y-109870313D01*
X80192500Y-109870311D01*
X80129689Y-109807500D01*
X80129686Y-109807496D01*
X80080329Y-109733629D01*
X80080327Y-109733625D01*
X80046331Y-109651552D01*
X80029000Y-109564421D01*
X80029000Y-109475579D01*
X80046331Y-109388448D01*
X80080327Y-109306375D01*
X80080328Y-109306374D01*
X80080329Y-109306371D01*
X80129686Y-109232504D01*
X80129687Y-109232503D01*
X80129689Y-109232500D01*
X80192500Y-109169689D01*
X80192504Y-109169686D01*
X80266371Y-109120329D01*
X80266374Y-109120328D01*
X80266375Y-109120327D01*
X80348448Y-109086331D01*
X80435579Y-109069000D01*
X80524421Y-109069000D01*
X80611552Y-109086331D01*
X80611552Y-109086331D01*
G37*
G36*
X89651552Y-109086331D02*
X89733625Y-109120327D01*
X89733626Y-109120328D01*
X89733629Y-109120329D01*
X89807496Y-109169686D01*
X89807500Y-109169689D01*
X89870311Y-109232500D01*
X89870313Y-109232503D01*
X89870314Y-109232504D01*
X89919671Y-109306371D01*
X89919672Y-109306374D01*
X89919673Y-109306375D01*
X89953669Y-109388448D01*
X89971000Y-109475579D01*
X89971000Y-109564421D01*
X89953669Y-109651552D01*
X89919673Y-109733625D01*
X89919671Y-109733629D01*
X89870314Y-109807496D01*
X89870311Y-109807500D01*
X89807500Y-109870311D01*
X89807497Y-109870313D01*
X89807496Y-109870314D01*
X89733629Y-109919671D01*
X89733626Y-109919672D01*
X89733625Y-109919673D01*
X89651552Y-109953669D01*
X89564421Y-109971000D01*
X89475579Y-109971000D01*
X89388448Y-109953669D01*
X89306375Y-109919673D01*
X89306374Y-109919672D01*
X89306371Y-109919671D01*
X89232504Y-109870314D01*
X89232503Y-109870313D01*
X89232500Y-109870311D01*
X89169689Y-109807500D01*
X89169686Y-109807496D01*
X89120329Y-109733629D01*
X89120327Y-109733625D01*
X89086331Y-109651552D01*
X89069000Y-109564421D01*
X89069000Y-109475579D01*
X89086331Y-109388448D01*
X89120327Y-109306375D01*
X89120328Y-109306374D01*
X89120329Y-109306371D01*
X89169686Y-109232504D01*
X89169687Y-109232503D01*
X89169689Y-109232500D01*
X89232500Y-109169689D01*
X89232504Y-109169686D01*
X89306371Y-109120329D01*
X89306374Y-109120328D01*
X89306375Y-109120327D01*
X89388448Y-109086331D01*
X89475579Y-109069000D01*
X89564421Y-109069000D01*
X89651552Y-109086331D01*
X89651552Y-109086331D01*
G37*
G36*
X98611552Y-109086331D02*
X98693625Y-109120327D01*
X98693626Y-109120328D01*
X98693629Y-109120329D01*
X98767496Y-109169686D01*
X98767500Y-109169689D01*
X98830311Y-109232500D01*
X98830313Y-109232503D01*
X98830314Y-109232504D01*
X98879671Y-109306371D01*
X98879672Y-109306374D01*
X98879673Y-109306375D01*
X98913669Y-109388448D01*
X98931000Y-109475579D01*
X98931000Y-109564421D01*
X98913669Y-109651552D01*
X98879673Y-109733625D01*
X98879671Y-109733629D01*
X98830314Y-109807496D01*
X98830311Y-109807500D01*
X98767500Y-109870311D01*
X98767497Y-109870313D01*
X98767496Y-109870314D01*
X98693629Y-109919671D01*
X98693626Y-109919672D01*
X98693625Y-109919673D01*
X98611552Y-109953669D01*
X98524421Y-109971000D01*
X98435579Y-109971000D01*
X98348448Y-109953669D01*
X98266375Y-109919673D01*
X98266374Y-109919672D01*
X98266371Y-109919671D01*
X98192504Y-109870314D01*
X98192503Y-109870313D01*
X98192500Y-109870311D01*
X98129689Y-109807500D01*
X98129686Y-109807496D01*
X98080329Y-109733629D01*
X98080327Y-109733625D01*
X98046331Y-109651552D01*
X98029000Y-109564421D01*
X98029000Y-109475579D01*
X98046331Y-109388448D01*
X98080327Y-109306375D01*
X98080328Y-109306374D01*
X98080329Y-109306371D01*
X98129686Y-109232504D01*
X98129687Y-109232503D01*
X98129689Y-109232500D01*
X98192500Y-109169689D01*
X98192504Y-109169686D01*
X98266371Y-109120329D01*
X98266374Y-109120328D01*
X98266375Y-109120327D01*
X98348448Y-109086331D01*
X98435579Y-109069000D01*
X98524421Y-109069000D01*
X98611552Y-109086331D01*
X98611552Y-109086331D01*
G37*
G36*
X71651552Y-109086331D02*
X71733625Y-109120327D01*
X71733626Y-109120328D01*
X71733629Y-109120329D01*
X71807496Y-109169686D01*
X71807500Y-109169689D01*
X71870311Y-109232500D01*
X71870313Y-109232503D01*
X71870314Y-109232504D01*
X71919671Y-109306371D01*
X71919672Y-109306374D01*
X71919673Y-109306375D01*
X71953669Y-109388448D01*
X71971000Y-109475579D01*
X71971000Y-109564421D01*
X71953669Y-109651552D01*
X71919673Y-109733625D01*
X71919671Y-109733629D01*
X71870314Y-109807496D01*
X71870311Y-109807500D01*
X71807500Y-109870311D01*
X71807497Y-109870313D01*
X71807496Y-109870314D01*
X71733629Y-109919671D01*
X71733626Y-109919672D01*
X71733625Y-109919673D01*
X71651552Y-109953669D01*
X71564421Y-109971000D01*
X71475579Y-109971000D01*
X71388448Y-109953669D01*
X71306375Y-109919673D01*
X71306374Y-109919672D01*
X71306371Y-109919671D01*
X71232504Y-109870314D01*
X71232503Y-109870313D01*
X71232500Y-109870311D01*
X71169689Y-109807500D01*
X71169686Y-109807496D01*
X71120329Y-109733629D01*
X71120327Y-109733625D01*
X71086331Y-109651552D01*
X71069000Y-109564421D01*
X71069000Y-109475579D01*
X71086331Y-109388448D01*
X71120327Y-109306375D01*
X71120328Y-109306374D01*
X71120329Y-109306371D01*
X71169686Y-109232504D01*
X71169687Y-109232503D01*
X71169689Y-109232500D01*
X71232500Y-109169689D01*
X71232504Y-109169686D01*
X71306371Y-109120329D01*
X71306374Y-109120328D01*
X71306375Y-109120327D01*
X71388448Y-109086331D01*
X71475579Y-109069000D01*
X71564421Y-109069000D01*
X71651552Y-109086331D01*
X71651552Y-109086331D01*
G37*
G36*
X107651552Y-109086331D02*
X107733625Y-109120327D01*
X107733626Y-109120328D01*
X107733629Y-109120329D01*
X107807496Y-109169686D01*
X107807500Y-109169689D01*
X107870311Y-109232500D01*
X107870313Y-109232503D01*
X107870314Y-109232504D01*
X107919671Y-109306371D01*
X107919672Y-109306374D01*
X107919673Y-109306375D01*
X107953669Y-109388448D01*
X107971000Y-109475579D01*
X107971000Y-109564421D01*
X107953669Y-109651552D01*
X107919673Y-109733625D01*
X107919671Y-109733629D01*
X107870314Y-109807496D01*
X107870311Y-109807500D01*
X107807500Y-109870311D01*
X107807497Y-109870313D01*
X107807496Y-109870314D01*
X107733629Y-109919671D01*
X107733626Y-109919672D01*
X107733625Y-109919673D01*
X107651552Y-109953669D01*
X107564421Y-109971000D01*
X107475579Y-109971000D01*
X107388448Y-109953669D01*
X107306375Y-109919673D01*
X107306374Y-109919672D01*
X107306371Y-109919671D01*
X107232504Y-109870314D01*
X107232503Y-109870313D01*
X107232500Y-109870311D01*
X107169689Y-109807500D01*
X107169686Y-109807496D01*
X107120329Y-109733629D01*
X107120327Y-109733625D01*
X107086331Y-109651552D01*
X107069000Y-109564421D01*
X107069000Y-109475579D01*
X107086331Y-109388448D01*
X107120327Y-109306375D01*
X107120328Y-109306374D01*
X107120329Y-109306371D01*
X107169686Y-109232504D01*
X107169687Y-109232503D01*
X107169689Y-109232500D01*
X107232500Y-109169689D01*
X107232504Y-109169686D01*
X107306371Y-109120329D01*
X107306374Y-109120328D01*
X107306375Y-109120327D01*
X107388448Y-109086331D01*
X107475579Y-109069000D01*
X107564421Y-109069000D01*
X107651552Y-109086331D01*
X107651552Y-109086331D01*
G37*
G36*
X116611552Y-109086331D02*
X116693625Y-109120327D01*
X116693626Y-109120328D01*
X116693629Y-109120329D01*
X116767496Y-109169686D01*
X116767500Y-109169689D01*
X116830311Y-109232500D01*
X116830313Y-109232503D01*
X116830314Y-109232504D01*
X116879671Y-109306371D01*
X116879672Y-109306374D01*
X116879673Y-109306375D01*
X116913669Y-109388448D01*
X116931000Y-109475579D01*
X116931000Y-109564421D01*
X116913669Y-109651552D01*
X116879673Y-109733625D01*
X116879671Y-109733629D01*
X116830314Y-109807496D01*
X116830311Y-109807500D01*
X116767500Y-109870311D01*
X116767497Y-109870313D01*
X116767496Y-109870314D01*
X116693629Y-109919671D01*
X116693626Y-109919672D01*
X116693625Y-109919673D01*
X116611552Y-109953669D01*
X116524421Y-109971000D01*
X116435579Y-109971000D01*
X116348448Y-109953669D01*
X116266375Y-109919673D01*
X116266374Y-109919672D01*
X116266371Y-109919671D01*
X116192504Y-109870314D01*
X116192503Y-109870313D01*
X116192500Y-109870311D01*
X116129689Y-109807500D01*
X116129686Y-109807496D01*
X116080329Y-109733629D01*
X116080327Y-109733625D01*
X116046331Y-109651552D01*
X116029000Y-109564421D01*
X116029000Y-109475579D01*
X116046331Y-109388448D01*
X116080327Y-109306375D01*
X116080328Y-109306374D01*
X116080329Y-109306371D01*
X116129686Y-109232504D01*
X116129687Y-109232503D01*
X116129689Y-109232500D01*
X116192500Y-109169689D01*
X116192504Y-109169686D01*
X116266371Y-109120329D01*
X116266374Y-109120328D01*
X116266375Y-109120327D01*
X116348448Y-109086331D01*
X116435579Y-109069000D01*
X116524421Y-109069000D01*
X116611552Y-109086331D01*
X116611552Y-109086331D01*
G37*
G36*
X125651552Y-109086331D02*
X125733625Y-109120327D01*
X125733626Y-109120328D01*
X125733629Y-109120329D01*
X125807496Y-109169686D01*
X125807500Y-109169689D01*
X125870311Y-109232500D01*
X125870313Y-109232503D01*
X125870314Y-109232504D01*
X125919671Y-109306371D01*
X125919672Y-109306374D01*
X125919673Y-109306375D01*
X125953669Y-109388448D01*
X125971000Y-109475579D01*
X125971000Y-109564421D01*
X125953669Y-109651552D01*
X125919673Y-109733625D01*
X125919671Y-109733629D01*
X125870314Y-109807496D01*
X125870311Y-109807500D01*
X125807500Y-109870311D01*
X125807497Y-109870313D01*
X125807496Y-109870314D01*
X125733629Y-109919671D01*
X125733626Y-109919672D01*
X125733625Y-109919673D01*
X125651552Y-109953669D01*
X125564421Y-109971000D01*
X125475579Y-109971000D01*
X125388448Y-109953669D01*
X125306375Y-109919673D01*
X125306374Y-109919672D01*
X125306371Y-109919671D01*
X125232504Y-109870314D01*
X125232503Y-109870313D01*
X125232500Y-109870311D01*
X125169689Y-109807500D01*
X125169686Y-109807496D01*
X125120329Y-109733629D01*
X125120327Y-109733625D01*
X125086331Y-109651552D01*
X125069000Y-109564421D01*
X125069000Y-109475579D01*
X125086331Y-109388448D01*
X125120327Y-109306375D01*
X125120328Y-109306374D01*
X125120329Y-109306371D01*
X125169686Y-109232504D01*
X125169687Y-109232503D01*
X125169689Y-109232500D01*
X125232500Y-109169689D01*
X125232504Y-109169686D01*
X125306371Y-109120329D01*
X125306374Y-109120328D01*
X125306375Y-109120327D01*
X125388448Y-109086331D01*
X125475579Y-109069000D01*
X125564421Y-109069000D01*
X125651552Y-109086331D01*
X125651552Y-109086331D01*
G37*
G36*
X134611552Y-109086331D02*
X134693625Y-109120327D01*
X134693626Y-109120328D01*
X134693629Y-109120329D01*
X134767496Y-109169686D01*
X134767500Y-109169689D01*
X134830311Y-109232500D01*
X134830313Y-109232503D01*
X134830314Y-109232504D01*
X134879671Y-109306371D01*
X134879672Y-109306374D01*
X134879673Y-109306375D01*
X134913669Y-109388448D01*
X134931000Y-109475579D01*
X134931000Y-109564421D01*
X134913669Y-109651552D01*
X134879673Y-109733625D01*
X134879671Y-109733629D01*
X134830314Y-109807496D01*
X134830311Y-109807500D01*
X134767500Y-109870311D01*
X134767497Y-109870313D01*
X134767496Y-109870314D01*
X134693629Y-109919671D01*
X134693626Y-109919672D01*
X134693625Y-109919673D01*
X134611552Y-109953669D01*
X134524421Y-109971000D01*
X134435579Y-109971000D01*
X134348448Y-109953669D01*
X134266375Y-109919673D01*
X134266374Y-109919672D01*
X134266371Y-109919671D01*
X134192504Y-109870314D01*
X134192503Y-109870313D01*
X134192500Y-109870311D01*
X134129689Y-109807500D01*
X134129686Y-109807496D01*
X134080329Y-109733629D01*
X134080327Y-109733625D01*
X134046331Y-109651552D01*
X134029000Y-109564421D01*
X134029000Y-109475579D01*
X134046331Y-109388448D01*
X134080327Y-109306375D01*
X134080328Y-109306374D01*
X134080329Y-109306371D01*
X134129686Y-109232504D01*
X134129687Y-109232503D01*
X134129689Y-109232500D01*
X134192500Y-109169689D01*
X134192504Y-109169686D01*
X134266371Y-109120329D01*
X134266374Y-109120328D01*
X134266375Y-109120327D01*
X134348448Y-109086331D01*
X134435579Y-109069000D01*
X134524421Y-109069000D01*
X134611552Y-109086331D01*
X134611552Y-109086331D01*
G37*
G36*
X102782821Y-107365313D02*
X102782824Y-107365314D01*
X102782825Y-107365314D01*
X102943239Y-107413975D01*
X102943241Y-107413976D01*
X102943244Y-107413977D01*
X103091078Y-107492995D01*
X103220659Y-107599341D01*
X103327005Y-107728922D01*
X103406023Y-107876756D01*
X103406024Y-107876759D01*
X103406025Y-107876761D01*
X103420961Y-107926000D01*
X103454687Y-108037179D01*
X103471117Y-108204000D01*
X103454687Y-108370821D01*
X103406023Y-108531244D01*
X103327005Y-108679078D01*
X103220659Y-108808659D01*
X103091078Y-108915005D01*
X102943244Y-108994023D01*
X102943241Y-108994024D01*
X102943239Y-108994025D01*
X102782825Y-109042686D01*
X102782824Y-109042686D01*
X102782821Y-109042687D01*
X102657804Y-109055000D01*
X102574196Y-109055000D01*
X102449179Y-109042687D01*
X102449176Y-109042686D01*
X102449175Y-109042686D01*
X102288761Y-108994025D01*
X102288759Y-108994024D01*
X102288756Y-108994023D01*
X102140922Y-108915005D01*
X102011341Y-108808659D01*
X101904995Y-108679078D01*
X101825977Y-108531244D01*
X101777313Y-108370821D01*
X101760883Y-108204000D01*
X101777313Y-108037179D01*
X101811039Y-107926000D01*
X101825975Y-107876761D01*
X101825976Y-107876759D01*
X101825977Y-107876756D01*
X101904995Y-107728922D01*
X102011341Y-107599341D01*
X102140922Y-107492995D01*
X102288756Y-107413977D01*
X102288759Y-107413976D01*
X102288761Y-107413975D01*
X102449175Y-107365314D01*
X102449176Y-107365314D01*
X102449179Y-107365313D01*
X102574196Y-107353000D01*
X102657804Y-107353000D01*
X102782821Y-107365313D01*
X102782821Y-107365313D01*
G37*
G36*
X82476978Y-104838293D02*
X82610627Y-104878835D01*
X82733782Y-104944662D01*
X82841739Y-105033261D01*
X82930338Y-105141218D01*
X82996165Y-105264373D01*
X83036707Y-105398022D01*
X83051000Y-105543140D01*
X83051000Y-107206860D01*
X83036707Y-107351978D01*
X82996165Y-107485627D01*
X82930338Y-107608782D01*
X82841739Y-107716739D01*
X82733782Y-107805338D01*
X82610627Y-107871165D01*
X82476978Y-107911707D01*
X82331860Y-107926000D01*
X80668140Y-107926000D01*
X80523022Y-107911707D01*
X80389373Y-107871165D01*
X80266218Y-107805338D01*
X80158261Y-107716739D01*
X80069662Y-107608782D01*
X80003835Y-107485627D01*
X79963293Y-107351978D01*
X79949000Y-107206860D01*
X79949000Y-105543140D01*
X79963293Y-105398022D01*
X80003835Y-105264373D01*
X80069662Y-105141218D01*
X80158261Y-105033261D01*
X80266218Y-104944662D01*
X80389373Y-104878835D01*
X80523022Y-104838293D01*
X80668140Y-104824000D01*
X82331860Y-104824000D01*
X82476978Y-104838293D01*
X82476978Y-104838293D01*
G37*
G36*
X121166821Y-105161313D02*
X121166824Y-105161314D01*
X121166825Y-105161314D01*
X121327239Y-105209975D01*
X121327241Y-105209976D01*
X121327244Y-105209977D01*
X121475078Y-105288995D01*
X121604659Y-105395341D01*
X121711005Y-105524922D01*
X121790023Y-105672756D01*
X121790024Y-105672759D01*
X121790025Y-105672761D01*
X121838686Y-105833175D01*
X121838687Y-105833179D01*
X121855117Y-106000000D01*
X121838687Y-106166821D01*
X121838686Y-106166824D01*
X121838686Y-106166825D01*
X121813993Y-106248228D01*
X121790023Y-106327244D01*
X121711005Y-106475078D01*
X121604659Y-106604659D01*
X121475078Y-106711005D01*
X121327244Y-106790023D01*
X121327241Y-106790024D01*
X121327239Y-106790025D01*
X121166825Y-106838686D01*
X121166824Y-106838686D01*
X121166821Y-106838687D01*
X121041804Y-106851000D01*
X120958196Y-106851000D01*
X120833179Y-106838687D01*
X120833176Y-106838686D01*
X120833175Y-106838686D01*
X120672761Y-106790025D01*
X120672759Y-106790024D01*
X120672756Y-106790023D01*
X120524922Y-106711005D01*
X120395341Y-106604659D01*
X120288995Y-106475078D01*
X120209977Y-106327244D01*
X120186008Y-106248228D01*
X120161314Y-106166825D01*
X120161314Y-106166824D01*
X120161313Y-106166821D01*
X120144883Y-106000000D01*
X120161313Y-105833179D01*
X120161314Y-105833175D01*
X120209975Y-105672761D01*
X120209976Y-105672759D01*
X120209977Y-105672756D01*
X120288995Y-105524922D01*
X120395341Y-105395341D01*
X120524922Y-105288995D01*
X120672756Y-105209977D01*
X120672759Y-105209976D01*
X120672761Y-105209975D01*
X120833175Y-105161314D01*
X120833176Y-105161314D01*
X120833179Y-105161313D01*
X120958196Y-105149000D01*
X121041804Y-105149000D01*
X121166821Y-105161313D01*
X121166821Y-105161313D01*
G37*
G36*
X111088228Y-105181703D02*
X111243100Y-105245853D01*
X111382481Y-105338985D01*
X111501015Y-105457519D01*
X111594147Y-105596900D01*
X111658297Y-105751772D01*
X111691000Y-105916184D01*
X111691000Y-106083816D01*
X111658297Y-106248228D01*
X111594147Y-106403100D01*
X111501015Y-106542481D01*
X111382481Y-106661015D01*
X111243100Y-106754147D01*
X111088228Y-106818297D01*
X110923816Y-106851000D01*
X110756184Y-106851000D01*
X110591772Y-106818297D01*
X110436900Y-106754147D01*
X110297519Y-106661015D01*
X110178985Y-106542481D01*
X110085853Y-106403100D01*
X110021703Y-106248228D01*
X109989000Y-106083816D01*
X109989000Y-105916184D01*
X110021703Y-105751772D01*
X110085853Y-105596900D01*
X110178985Y-105457519D01*
X110297519Y-105338985D01*
X110436900Y-105245853D01*
X110591772Y-105181703D01*
X110756184Y-105149000D01*
X110923816Y-105149000D01*
X111088228Y-105181703D01*
X111088228Y-105181703D01*
G37*
G36*
X90546821Y-104161313D02*
X90546824Y-104161314D01*
X90546825Y-104161314D01*
X90707239Y-104209975D01*
X90707241Y-104209976D01*
X90707244Y-104209977D01*
X90855078Y-104288995D01*
X90984659Y-104395341D01*
X91091005Y-104524922D01*
X91170023Y-104672756D01*
X91218687Y-104833179D01*
X91235117Y-105000000D01*
X91218687Y-105166821D01*
X91218686Y-105166824D01*
X91218686Y-105166825D01*
X91181626Y-105288996D01*
X91170023Y-105327244D01*
X91091005Y-105475078D01*
X90984659Y-105604659D01*
X90855078Y-105711005D01*
X90707244Y-105790023D01*
X90707241Y-105790024D01*
X90707239Y-105790025D01*
X90546825Y-105838686D01*
X90546824Y-105838686D01*
X90546821Y-105838687D01*
X90421804Y-105851000D01*
X90338196Y-105851000D01*
X90213179Y-105838687D01*
X90213176Y-105838686D01*
X90213175Y-105838686D01*
X90052761Y-105790025D01*
X90052759Y-105790024D01*
X90052756Y-105790023D01*
X89904922Y-105711005D01*
X89775341Y-105604659D01*
X89668995Y-105475078D01*
X89589977Y-105327244D01*
X89578375Y-105288996D01*
X89541314Y-105166825D01*
X89541314Y-105166824D01*
X89541313Y-105166821D01*
X89524883Y-105000000D01*
X89541313Y-104833179D01*
X89589977Y-104672756D01*
X89668995Y-104524922D01*
X89775341Y-104395341D01*
X89904922Y-104288995D01*
X90052756Y-104209977D01*
X90052759Y-104209976D01*
X90052761Y-104209975D01*
X90213175Y-104161314D01*
X90213176Y-104161314D01*
X90213179Y-104161313D01*
X90338196Y-104149000D01*
X90421804Y-104149000D01*
X90546821Y-104161313D01*
X90546821Y-104161313D01*
G37*
G36*
X98851000Y-105851000D02*
X97149000Y-105851000D01*
X97149000Y-104149000D01*
X98851000Y-104149000D01*
X98851000Y-105851000D01*
X98851000Y-105851000D01*
G37*
G36*
X78638841Y-103542292D02*
X78638843Y-103542293D01*
X78638844Y-103542293D01*
X78725470Y-103578174D01*
X78725471Y-103578175D01*
X78803435Y-103630269D01*
X78869731Y-103696565D01*
X78869733Y-103696568D01*
X78921826Y-103774530D01*
X78957707Y-103861156D01*
X78976000Y-103953118D01*
X78976000Y-104046882D01*
X78957707Y-104138844D01*
X78921826Y-104225470D01*
X78921825Y-104225471D01*
X78869731Y-104303435D01*
X78803435Y-104369731D01*
X78803432Y-104369733D01*
X78725470Y-104421826D01*
X78638844Y-104457707D01*
X78638843Y-104457707D01*
X78638841Y-104457708D01*
X78546883Y-104476000D01*
X78453117Y-104476000D01*
X78361159Y-104457708D01*
X78361157Y-104457707D01*
X78361156Y-104457707D01*
X78274530Y-104421826D01*
X78196568Y-104369733D01*
X78196565Y-104369731D01*
X78130269Y-104303435D01*
X78078175Y-104225471D01*
X78078174Y-104225470D01*
X78042293Y-104138844D01*
X78024000Y-104046882D01*
X78024000Y-103953118D01*
X78042293Y-103861156D01*
X78078174Y-103774530D01*
X78130267Y-103696568D01*
X78130269Y-103696565D01*
X78196565Y-103630269D01*
X78274529Y-103578175D01*
X78274530Y-103578174D01*
X78361156Y-103542293D01*
X78361157Y-103542293D01*
X78361159Y-103542292D01*
X78453117Y-103524000D01*
X78546883Y-103524000D01*
X78638841Y-103542292D01*
X78638841Y-103542292D01*
G37*
G36*
X71638841Y-103542292D02*
X71638843Y-103542293D01*
X71638844Y-103542293D01*
X71725470Y-103578174D01*
X71725471Y-103578175D01*
X71803435Y-103630269D01*
X71869731Y-103696565D01*
X71869733Y-103696568D01*
X71921826Y-103774530D01*
X71957707Y-103861156D01*
X71976000Y-103953118D01*
X71976000Y-104046882D01*
X71957707Y-104138844D01*
X71921826Y-104225470D01*
X71921825Y-104225471D01*
X71869731Y-104303435D01*
X71803435Y-104369731D01*
X71803432Y-104369733D01*
X71725470Y-104421826D01*
X71638844Y-104457707D01*
X71638843Y-104457707D01*
X71638841Y-104457708D01*
X71546883Y-104476000D01*
X71453117Y-104476000D01*
X71361159Y-104457708D01*
X71361157Y-104457707D01*
X71361156Y-104457707D01*
X71274530Y-104421826D01*
X71196568Y-104369733D01*
X71196565Y-104369731D01*
X71130269Y-104303435D01*
X71078175Y-104225471D01*
X71078174Y-104225470D01*
X71042293Y-104138844D01*
X71024000Y-104046882D01*
X71024000Y-103953118D01*
X71042293Y-103861156D01*
X71078174Y-103774530D01*
X71130267Y-103696568D01*
X71130269Y-103696565D01*
X71196565Y-103630269D01*
X71274529Y-103578175D01*
X71274530Y-103578174D01*
X71361156Y-103542293D01*
X71361157Y-103542293D01*
X71361159Y-103542292D01*
X71453117Y-103524000D01*
X71546883Y-103524000D01*
X71638841Y-103542292D01*
X71638841Y-103542292D01*
G37*
G36*
X118248228Y-102181703D02*
X118403100Y-102245853D01*
X118542481Y-102338985D01*
X118661015Y-102457519D01*
X118754147Y-102596900D01*
X118818297Y-102751772D01*
X118851000Y-102916184D01*
X118851000Y-103083816D01*
X118818297Y-103248228D01*
X118754147Y-103403100D01*
X118661015Y-103542481D01*
X118542481Y-103661015D01*
X118403100Y-103754147D01*
X118248228Y-103818297D01*
X118083816Y-103851000D01*
X117916184Y-103851000D01*
X117751772Y-103818297D01*
X117596900Y-103754147D01*
X117457519Y-103661015D01*
X117338985Y-103542481D01*
X117245853Y-103403100D01*
X117181703Y-103248228D01*
X117149000Y-103083816D01*
X117149000Y-102916184D01*
X117181703Y-102751772D01*
X117245853Y-102596900D01*
X117338985Y-102457519D01*
X117457519Y-102338985D01*
X117596900Y-102245853D01*
X117751772Y-102181703D01*
X117916184Y-102149000D01*
X118083816Y-102149000D01*
X118248228Y-102181703D01*
X118248228Y-102181703D01*
G37*
G36*
X113248228Y-102181703D02*
X113403100Y-102245853D01*
X113542481Y-102338985D01*
X113661015Y-102457519D01*
X113754147Y-102596900D01*
X113818297Y-102751772D01*
X113851000Y-102916184D01*
X113851000Y-103083816D01*
X113818297Y-103248228D01*
X113754147Y-103403100D01*
X113661015Y-103542481D01*
X113542481Y-103661015D01*
X113403100Y-103754147D01*
X113248228Y-103818297D01*
X113083816Y-103851000D01*
X112916184Y-103851000D01*
X112751772Y-103818297D01*
X112596900Y-103754147D01*
X112457519Y-103661015D01*
X112338985Y-103542481D01*
X112245853Y-103403100D01*
X112181703Y-103248228D01*
X112149000Y-103083816D01*
X112149000Y-102916184D01*
X112181703Y-102751772D01*
X112245853Y-102596900D01*
X112338985Y-102457519D01*
X112457519Y-102338985D01*
X112596900Y-102245853D01*
X112751772Y-102181703D01*
X112916184Y-102149000D01*
X113083816Y-102149000D01*
X113248228Y-102181703D01*
X113248228Y-102181703D01*
G37*
G36*
X76678210Y-99833489D02*
X76764949Y-99859802D01*
X76844891Y-99902532D01*
X76914963Y-99960037D01*
X76972468Y-100030109D01*
X77015198Y-100110051D01*
X77041511Y-100196790D01*
X77051000Y-100293140D01*
X77051000Y-102956860D01*
X77041511Y-103053210D01*
X77015198Y-103139949D01*
X76972468Y-103219891D01*
X76914963Y-103289963D01*
X76844891Y-103347468D01*
X76764949Y-103390198D01*
X76678210Y-103416511D01*
X76581860Y-103426000D01*
X75418140Y-103426000D01*
X75321790Y-103416511D01*
X75235051Y-103390198D01*
X75155109Y-103347468D01*
X75085037Y-103289963D01*
X75027532Y-103219891D01*
X74984802Y-103139949D01*
X74958489Y-103053210D01*
X74949000Y-102956860D01*
X74949000Y-100293140D01*
X74958489Y-100196790D01*
X74984802Y-100110051D01*
X75027532Y-100030109D01*
X75085037Y-99960037D01*
X75155109Y-99902532D01*
X75235051Y-99859802D01*
X75321790Y-99833489D01*
X75418140Y-99824000D01*
X76581860Y-99824000D01*
X76678210Y-99833489D01*
X76678210Y-99833489D01*
G37*
G36*
X73678210Y-100083489D02*
X73764949Y-100109802D01*
X73844891Y-100152532D01*
X73914963Y-100210037D01*
X73972468Y-100280109D01*
X74015198Y-100360051D01*
X74041511Y-100446790D01*
X74051000Y-100543140D01*
X74051000Y-102706860D01*
X74041511Y-102803210D01*
X74015198Y-102889949D01*
X73972468Y-102969891D01*
X73914963Y-103039963D01*
X73844891Y-103097468D01*
X73764949Y-103140198D01*
X73678210Y-103166511D01*
X73581860Y-103176000D01*
X72418140Y-103176000D01*
X72321790Y-103166511D01*
X72235051Y-103140198D01*
X72155109Y-103097468D01*
X72085037Y-103039963D01*
X72027532Y-102969891D01*
X71984802Y-102889949D01*
X71958489Y-102803210D01*
X71949000Y-102706860D01*
X71949000Y-100543140D01*
X71958489Y-100446790D01*
X71984802Y-100360051D01*
X72027532Y-100280109D01*
X72085037Y-100210037D01*
X72155109Y-100152532D01*
X72235051Y-100109802D01*
X72321790Y-100083489D01*
X72418140Y-100074000D01*
X73581860Y-100074000D01*
X73678210Y-100083489D01*
X73678210Y-100083489D01*
G37*
G36*
X81577591Y-100335891D02*
X81687791Y-100369320D01*
X81789337Y-100423597D01*
X81878351Y-100496649D01*
X81951403Y-100585663D01*
X82005680Y-100687209D01*
X82039109Y-100797409D01*
X82051000Y-100918140D01*
X82051000Y-102331860D01*
X82039109Y-102452591D01*
X82005680Y-102562791D01*
X81951403Y-102664337D01*
X81878351Y-102753351D01*
X81789337Y-102826403D01*
X81687791Y-102880680D01*
X81577591Y-102914109D01*
X81456860Y-102926000D01*
X78543140Y-102926000D01*
X78422409Y-102914109D01*
X78312209Y-102880680D01*
X78210663Y-102826403D01*
X78121649Y-102753351D01*
X78048597Y-102664337D01*
X77994320Y-102562791D01*
X77960891Y-102452591D01*
X77949000Y-102331860D01*
X77949000Y-100918140D01*
X77960891Y-100797409D01*
X77994320Y-100687209D01*
X78048597Y-100585663D01*
X78121649Y-100496649D01*
X78210663Y-100423597D01*
X78312209Y-100369320D01*
X78422409Y-100335891D01*
X78543140Y-100324000D01*
X81456860Y-100324000D01*
X81577591Y-100335891D01*
X81577591Y-100335891D01*
G37*
G36*
X103375256Y-99391298D02*
X103481579Y-99412447D01*
X103782042Y-99536903D01*
X104048852Y-99715180D01*
X104052454Y-99717587D01*
X104282413Y-99947546D01*
X104282415Y-99947549D01*
X104463097Y-100217958D01*
X104578672Y-100496980D01*
X104587553Y-100518422D01*
X104651000Y-100837389D01*
X104651000Y-101162611D01*
X104587553Y-101481578D01*
X104463098Y-101782040D01*
X104282413Y-102052454D01*
X104052454Y-102282413D01*
X104052451Y-102282415D01*
X103782042Y-102463097D01*
X103481579Y-102587553D01*
X103434588Y-102596900D01*
X103162611Y-102651000D01*
X102837389Y-102651000D01*
X102565412Y-102596900D01*
X102518421Y-102587553D01*
X102217958Y-102463097D01*
X101947549Y-102282415D01*
X101947546Y-102282413D01*
X101717587Y-102052454D01*
X101536902Y-101782040D01*
X101412447Y-101481578D01*
X101349000Y-101162611D01*
X101349000Y-100837389D01*
X101412447Y-100518422D01*
X101421329Y-100496980D01*
X101536903Y-100217958D01*
X101717585Y-99947549D01*
X101717587Y-99947546D01*
X101947546Y-99717587D01*
X101951148Y-99715180D01*
X102217958Y-99536903D01*
X102518421Y-99412447D01*
X102624744Y-99391298D01*
X102837389Y-99349000D01*
X103162611Y-99349000D01*
X103375256Y-99391298D01*
X103375256Y-99391298D01*
G37*
M02*
